<?xml version="1.0" encoding="utf-8" standalone="no"?>
<!DOCTYPE svg PUBLIC "-//W3C//DTD SVG 1.1//EN"
  "http://www.w3.org/Graphics/SVG/1.1/DTD/svg11.dtd">
<svg xmlns:xlink="http://www.w3.org/1999/xlink" width="717.573437pt" height="208.800313pt" viewBox="0 0 717.573437 208.800313" xmlns="http://www.w3.org/2000/svg" version="1.1">
 <metadata>
  <rdf:RDF xmlns:dc="http://purl.org/dc/elements/1.1/" xmlns:cc="http://creativecommons.org/ns#" xmlns:rdf="http://www.w3.org/1999/02/22-rdf-syntax-ns#">
   <cc:Work>
    <dc:type rdf:resource="http://purl.org/dc/dcmitype/StillImage"/>
    <dc:date>2024-12-11T10:05:01.177089</dc:date>
    <dc:format>image/svg+xml</dc:format>
    <dc:creator>
     <cc:Agent>
      <dc:title>Matplotlib v3.8.0, https://matplotlib.org/</dc:title>
     </cc:Agent>
    </dc:creator>
   </cc:Work>
  </rdf:RDF>
 </metadata>
 <defs>
  <style type="text/css">*{stroke-linejoin: round; stroke-linecap: butt}</style>
 </defs>
 <g id="figure_1">
  <g id="patch_1">
   <path d="M 0 208.800313 
L 717.573437 208.800313 
L 717.573437 0 
L 0 0 
z
" style="fill: #ffffff"/>
  </g>
  <g id="axes_1">
   <g id="patch_2">
    <path d="M 40.773438 173.52 
L 710.373438 173.52 
L 710.373438 7.2 
L 40.773438 7.2 
z
" style="fill: #ffffff"/>
   </g>
   <g id="PolyCollection_1">
    <path d="M 97.827477 154.088667 
L 79.37654 154.088667 
L 78.879847 153.48662 
L 78.375683 152.884573 
L 77.864482 152.282526 
L 77.346636 151.680478 
L 76.822523 151.078431 
L 76.292525 150.476384 
L 75.757054 149.874337 
L 75.216586 149.272289 
L 74.671683 148.670242 
L 74.123031 148.068195 
L 73.571468 147.466147 
L 73.018009 146.8641 
L 72.463871 146.262053 
L 71.91049 145.660006 
L 71.359535 145.057958 
L 70.812911 144.455911 
L 70.272758 143.853864 
L 69.741437 143.251816 
L 69.221513 142.649769 
L 68.715727 142.047722 
L 68.226959 141.445675 
L 67.758188 140.843627 
L 67.312444 140.24158 
L 66.892755 139.639533 
L 66.502095 139.037486 
L 66.143325 138.435438 
L 65.81914 137.833391 
L 65.532019 137.231344 
L 65.284169 136.629296 
L 65.07749 136.027249 
L 64.913531 135.425202 
L 64.793468 134.823155 
L 64.718076 134.221107 
L 64.687723 133.61906 
L 64.702364 133.017013 
L 64.761545 132.414965 
L 64.864421 131.812918 
L 65.009772 131.210871 
L 65.196031 130.608824 
L 65.421321 130.006776 
L 65.683482 129.404729 
L 65.98012 128.802682 
L 66.308638 128.200635 
L 66.666284 127.598587 
L 67.050187 126.99654 
L 67.457395 126.394493 
L 67.884912 125.792445 
L 68.329734 125.190398 
L 68.788872 124.588351 
L 69.259387 123.986304 
L 69.738409 123.384256 
L 70.223157 122.782209 
L 70.710963 122.180162 
L 71.199281 121.578114 
L 71.685705 120.976067 
L 72.167979 120.37402 
L 72.644012 119.771973 
L 73.111883 119.169925 
L 73.569853 118.567878 
L 74.016371 117.965831 
L 74.450084 117.363783 
L 74.869841 116.761736 
L 75.274699 116.159689 
L 75.663927 115.557642 
L 76.037005 114.955594 
L 76.393626 114.353547 
L 76.733693 113.7515 
L 77.057312 113.149453 
L 77.364785 112.547405 
L 77.656598 111.945358 
L 77.93341 111.343311 
L 78.196034 110.741263 
L 78.445418 110.139216 
L 78.682628 109.537169 
L 78.908823 108.935122 
L 79.125231 108.333074 
L 79.333129 107.731027 
L 79.533815 107.12898 
L 79.72859 106.526932 
L 79.91873 105.924885 
L 80.105473 105.322838 
L 80.289991 104.720791 
L 80.473382 104.118743 
L 80.656652 103.516696 
L 80.840705 102.914649 
L 81.026332 102.312602 
L 81.214206 101.710554 
L 81.404879 101.108507 
L 81.59878 100.50646 
L 81.796213 99.904412 
L 81.997363 99.302365 
L 82.202297 98.700318 
L 82.410968 98.098271 
L 82.623226 97.496223 
L 82.838819 96.894176 
L 83.057407 96.292129 
L 83.278564 95.690081 
L 83.501792 95.088034 
L 83.726528 94.485987 
L 93.47749 94.485987 
L 93.47749 94.485987 
L 93.702226 95.088034 
L 93.925454 95.690081 
L 94.146611 96.292129 
L 94.365199 96.894176 
L 94.580792 97.496223 
L 94.79305 98.098271 
L 95.001721 98.700318 
L 95.206655 99.302365 
L 95.407805 99.904412 
L 95.605238 100.50646 
L 95.799139 101.108507 
L 95.989812 101.710554 
L 96.177686 102.312602 
L 96.363313 102.914649 
L 96.547365 103.516696 
L 96.730636 104.118743 
L 96.914027 104.720791 
L 97.098545 105.322838 
L 97.285287 105.924885 
L 97.475428 106.526932 
L 97.670203 107.12898 
L 97.870889 107.731027 
L 98.078787 108.333074 
L 98.295195 108.935122 
L 98.521389 109.537169 
L 98.7586 110.139216 
L 99.007984 110.741263 
L 99.270608 111.343311 
L 99.54742 111.945358 
L 99.839233 112.547405 
L 100.146706 113.149453 
L 100.470325 113.7515 
L 100.810391 114.353547 
L 101.167013 114.955594 
L 101.540091 115.557642 
L 101.929319 116.159689 
L 102.334177 116.761736 
L 102.753934 117.363783 
L 103.187647 117.965831 
L 103.634165 118.567878 
L 104.092134 119.169925 
L 104.560005 119.771973 
L 105.036038 120.37402 
L 105.518313 120.976067 
L 106.004737 121.578114 
L 106.493055 122.180162 
L 106.980861 122.782209 
L 107.465609 123.384256 
L 107.944631 123.986304 
L 108.415146 124.588351 
L 108.874284 125.190398 
L 109.319106 125.792445 
L 109.746623 126.394493 
L 110.153831 126.99654 
L 110.537733 127.598587 
L 110.89538 128.200635 
L 111.223898 128.802682 
L 111.520536 129.404729 
L 111.782697 130.006776 
L 112.007987 130.608824 
L 112.194246 131.210871 
L 112.339597 131.812918 
L 112.442473 132.414965 
L 112.501654 133.017013 
L 112.516295 133.61906 
L 112.485942 134.221107 
L 112.41055 134.823155 
L 112.290487 135.425202 
L 112.126528 136.027249 
L 111.919849 136.629296 
L 111.671999 137.231344 
L 111.384877 137.833391 
L 111.060693 138.435438 
L 110.701923 139.037486 
L 110.311263 139.639533 
L 109.891574 140.24158 
L 109.44583 140.843627 
L 108.977059 141.445675 
L 108.488291 142.047722 
L 107.982505 142.649769 
L 107.462581 143.251816 
L 106.93126 143.853864 
L 106.391107 144.455911 
L 105.844483 145.057958 
L 105.293528 145.660006 
L 104.740147 146.262053 
L 104.186008 146.8641 
L 103.632549 147.466147 
L 103.080987 148.068195 
L 102.532335 148.670242 
L 101.987432 149.272289 
L 101.446964 149.874337 
L 100.911493 150.476384 
L 100.381495 151.078431 
L 99.857382 151.680478 
L 99.339536 152.282526 
L 98.828334 152.884573 
L 98.324171 153.48662 
L 97.827477 154.088667 
z
" clip-path="url(#p09730ce46d)" style="fill: #1f77b4; fill-opacity: 0.3"/>
   </g>
   <g id="PolyCollection_2">
    <path d="M 196.76695 154.083308 
L 171.751354 154.083308 
L 171.327391 153.335984 
L 170.911822 152.58866 
L 170.50518 151.841336 
L 170.10782 151.094012 
L 169.719926 150.346688 
L 169.341511 149.599364 
L 168.972419 148.85204 
L 168.612344 148.104716 
L 168.260837 147.357392 
L 167.917326 146.610068 
L 167.581139 145.862744 
L 167.251526 145.11542 
L 166.927689 144.368096 
L 166.608806 143.620772 
L 166.294065 142.873448 
L 165.982695 142.126124 
L 165.673995 141.3788 
L 165.367366 140.631476 
L 165.062341 139.884152 
L 164.758609 139.136828 
L 164.456046 138.389504 
L 164.154729 137.64218 
L 163.854959 136.894855 
L 163.557272 136.147531 
L 163.262448 135.400207 
L 162.971512 134.652883 
L 162.685733 133.905559 
L 162.406618 133.158235 
L 162.135893 132.410911 
L 161.875488 131.663587 
L 161.627509 130.916263 
L 161.394211 130.168939 
L 161.177961 129.421615 
L 160.9812 128.674291 
L 160.806401 127.926967 
L 160.656023 127.179643 
L 160.532468 126.432319 
L 160.43803 125.684995 
L 160.374849 124.937671 
L 160.344866 124.190347 
L 160.349777 123.443023 
L 160.390992 122.695699 
L 160.469603 121.948375 
L 160.586344 121.201051 
L 160.741572 120.453727 
L 160.935241 119.706403 
L 161.166895 118.959079 
L 161.435657 118.211755 
L 161.740232 117.464431 
L 162.078921 116.717107 
L 162.44963 115.969782 
L 162.849904 115.222458 
L 163.27695 114.475134 
L 163.727679 113.72781 
L 164.198749 112.980486 
L 164.686614 112.233162 
L 165.187575 111.485838 
L 165.697836 110.738514 
L 166.213559 109.99119 
L 166.730925 109.243866 
L 167.24619 108.496542 
L 167.755738 107.749218 
L 168.256137 107.001894 
L 168.744186 106.25457 
L 169.216963 105.507246 
L 169.671859 104.759922 
L 170.106616 104.012598 
L 170.519351 103.265274 
L 170.908575 102.51795 
L 171.273207 101.770626 
L 171.612578 101.023302 
L 171.926427 100.275978 
L 172.214895 99.528654 
L 172.478505 98.78133 
L 172.718143 98.034006 
L 172.935027 97.286682 
L 173.130677 96.539358 
L 173.306874 95.792034 
L 173.465626 95.04471 
L 173.609119 94.297385 
L 173.739675 93.550061 
L 173.85971 92.802737 
L 173.971684 92.055413 
L 174.078061 91.308089 
L 174.181266 90.560765 
L 174.283647 89.813441 
L 174.387434 89.066117 
L 174.494714 88.318793 
L 174.607395 87.571469 
L 174.727185 86.824145 
L 174.855573 86.076821 
L 174.993813 85.329497 
L 175.142915 84.582173 
L 175.303638 83.834849 
L 175.476491 83.087525 
L 175.661735 82.340201 
L 175.859392 81.592877 
L 176.069255 80.845553 
L 176.290904 80.098229 
L 192.227399 80.098229 
L 192.227399 80.098229 
L 192.449048 80.845553 
L 192.658911 81.592877 
L 192.856568 82.340201 
L 193.041812 83.087525 
L 193.214665 83.834849 
L 193.375389 84.582173 
L 193.524491 85.329497 
L 193.662731 86.076821 
L 193.791119 86.824145 
L 193.910909 87.571469 
L 194.023589 88.318793 
L 194.130869 89.066117 
L 194.234657 89.813441 
L 194.337037 90.560765 
L 194.440243 91.308089 
L 194.54662 92.055413 
L 194.658594 92.802737 
L 194.778628 93.550061 
L 194.909185 94.297385 
L 195.052677 95.04471 
L 195.211429 95.792034 
L 195.387627 96.539358 
L 195.583276 97.286682 
L 195.80016 98.034006 
L 196.039798 98.78133 
L 196.303409 99.528654 
L 196.591876 100.275978 
L 196.905726 101.023302 
L 197.245096 101.770626 
L 197.609729 102.51795 
L 197.998953 103.265274 
L 198.411688 104.012598 
L 198.846445 104.759922 
L 199.301341 105.507246 
L 199.774118 106.25457 
L 200.262167 107.001894 
L 200.762566 107.749218 
L 201.272113 108.496542 
L 201.787378 109.243866 
L 202.304745 109.99119 
L 202.820468 110.738514 
L 203.330728 111.485838 
L 203.831689 112.233162 
L 204.319555 112.980486 
L 204.790625 113.72781 
L 205.241354 114.475134 
L 205.668399 115.222458 
L 206.068673 115.969782 
L 206.439383 116.717107 
L 206.778072 117.464431 
L 207.082647 118.211755 
L 207.351408 118.959079 
L 207.583062 119.706403 
L 207.776732 120.453727 
L 207.931959 121.201051 
L 208.048701 121.948375 
L 208.127311 122.695699 
L 208.168527 123.443023 
L 208.173438 124.190347 
L 208.143454 124.937671 
L 208.080273 125.684995 
L 207.985835 126.432319 
L 207.86228 127.179643 
L 207.711903 127.926967 
L 207.537104 128.674291 
L 207.340342 129.421615 
L 207.124092 130.168939 
L 206.890795 130.916263 
L 206.642816 131.663587 
L 206.382411 132.410911 
L 206.111686 133.158235 
L 205.83257 133.905559 
L 205.546792 134.652883 
L 205.255856 135.400207 
L 204.961031 136.147531 
L 204.663345 136.894855 
L 204.363575 137.64218 
L 204.062258 138.389504 
L 203.759694 139.136828 
L 203.455963 139.884152 
L 203.150937 140.631476 
L 202.844308 141.3788 
L 202.535608 142.126124 
L 202.224238 142.873448 
L 201.909498 143.620772 
L 201.590615 144.368096 
L 201.266777 145.11542 
L 200.937165 145.862744 
L 200.600978 146.610068 
L 200.257467 147.357392 
L 199.905959 148.104716 
L 199.545884 148.85204 
L 199.176793 149.599364 
L 198.798377 150.346688 
L 198.410484 151.094012 
L 198.013124 151.841336 
L 197.606481 152.58866 
L 197.190913 153.335984 
L 196.76695 154.083308 
z
" clip-path="url(#p09730ce46d)" style="fill: #1f77b4; fill-opacity: 0.3"/>
   </g>
   <g id="PolyCollection_3">
    <path d="M 293.487303 100.199443 
L 266.345286 100.199443 
L 265.811304 99.685549 
L 265.27607 99.171654 
L 264.740852 98.65776 
L 264.20698 98.143866 
L 263.675841 97.629971 
L 263.148883 97.116077 
L 262.62761 96.602182 
L 262.113582 96.088288 
L 261.608416 95.574393 
L 261.113775 95.060499 
L 260.631371 94.546604 
L 260.162953 94.03271 
L 259.710307 93.518815 
L 259.275242 93.004921 
L 258.859583 92.491027 
L 258.465163 91.977132 
L 258.093805 91.463238 
L 257.747314 90.949343 
L 257.427462 90.435449 
L 257.135969 89.921554 
L 256.874493 89.40766 
L 256.644606 88.893765 
L 256.447782 88.379871 
L 256.285379 87.865976 
L 256.158616 87.352082 
L 256.068564 86.838188 
L 256.016123 86.324293 
L 256.002009 85.810399 
L 256.026738 85.296504 
L 256.090616 84.78261 
L 256.193724 84.268715 
L 256.335909 83.754821 
L 256.516783 83.240926 
L 256.735709 82.727032 
L 256.991807 82.213137 
L 257.28395 81.699243 
L 257.610771 81.185349 
L 257.970667 80.671454 
L 258.361809 80.15756 
L 258.782154 79.643665 
L 259.229461 79.129771 
L 259.701306 78.615876 
L 260.195105 78.101982 
L 260.70813 77.588087 
L 261.237537 77.074193 
L 261.780391 76.560298 
L 262.333688 76.046404 
L 262.894387 75.53251 
L 263.459431 75.018615 
L 264.025781 74.504721 
L 264.590441 73.990826 
L 265.150481 73.476932 
L 265.703068 72.963037 
L 266.245488 72.449143 
L 266.775168 71.935248 
L 267.289701 71.421354 
L 267.78686 70.907459 
L 268.264619 70.393565 
L 268.721168 69.879671 
L 269.154923 69.365776 
L 269.564535 68.851882 
L 269.9489 68.337987 
L 270.307162 67.824093 
L 270.638715 67.310198 
L 270.943201 66.796304 
L 271.220507 66.282409 
L 271.470761 65.768515 
L 271.694323 65.25462 
L 271.891774 64.740726 
L 272.063905 64.226832 
L 272.211703 63.712937 
L 272.336334 63.199043 
L 272.439131 62.685148 
L 272.521569 62.171254 
L 272.585252 61.657359 
L 272.631891 61.143465 
L 272.663283 60.62957 
L 272.681296 60.115676 
L 272.687839 59.601781 
L 272.684851 59.087887 
L 272.674277 58.573993 
L 272.658048 58.060098 
L 272.638065 57.546204 
L 272.616179 57.032309 
L 272.594175 56.518415 
L 272.573758 56.00452 
L 272.556535 55.490626 
L 272.544009 54.976731 
L 272.537559 54.462837 
L 272.53844 53.948942 
L 272.547766 53.435048 
L 272.566511 52.921154 
L 272.595501 52.407259 
L 272.635412 51.893365 
L 272.686768 51.37947 
L 272.749944 50.865576 
L 272.825167 50.351681 
L 272.912518 49.837787 
L 273.011939 49.323892 
L 286.82065 49.323892 
L 286.82065 49.323892 
L 286.920072 49.837787 
L 287.007422 50.351681 
L 287.082645 50.865576 
L 287.145821 51.37947 
L 287.197177 51.893365 
L 287.237088 52.407259 
L 287.266078 52.921154 
L 287.284823 53.435048 
L 287.294149 53.948942 
L 287.29503 54.462837 
L 287.28858 54.976731 
L 287.276054 55.490626 
L 287.258832 56.00452 
L 287.238414 56.518415 
L 287.21641 57.032309 
L 287.194524 57.546204 
L 287.174541 58.060098 
L 287.158313 58.573993 
L 287.147739 59.087887 
L 287.144751 59.601781 
L 287.151294 60.115676 
L 287.169306 60.62957 
L 287.200699 61.143465 
L 287.247337 61.657359 
L 287.31102 62.171254 
L 287.393458 62.685148 
L 287.496255 63.199043 
L 287.620886 63.712937 
L 287.768684 64.226832 
L 287.940815 64.740726 
L 288.138266 65.25462 
L 288.361828 65.768515 
L 288.612083 66.282409 
L 288.889389 66.796304 
L 289.193874 67.310198 
L 289.525427 67.824093 
L 289.883689 68.337987 
L 290.268055 68.851882 
L 290.677667 69.365776 
L 291.111421 69.879671 
L 291.56797 70.393565 
L 292.04573 70.907459 
L 292.542889 71.421354 
L 293.057421 71.935248 
L 293.587101 72.449143 
L 294.129521 72.963037 
L 294.682108 73.476932 
L 295.242148 73.990826 
L 295.806808 74.504721 
L 296.373159 75.018615 
L 296.938203 75.53251 
L 297.498901 76.046404 
L 298.052198 76.560298 
L 298.595052 77.074193 
L 299.124459 77.588087 
L 299.637484 78.101982 
L 300.131283 78.615876 
L 300.603128 79.129771 
L 301.050435 79.643665 
L 301.470781 80.15756 
L 301.861922 80.671454 
L 302.221818 81.185349 
L 302.548639 81.699243 
L 302.840782 82.213137 
L 303.09688 82.727032 
L 303.315806 83.240926 
L 303.49668 83.754821 
L 303.638866 84.268715 
L 303.741973 84.78261 
L 303.805851 85.296504 
L 303.83058 85.810399 
L 303.816466 86.324293 
L 303.764025 86.838188 
L 303.673973 87.352082 
L 303.547211 87.865976 
L 303.384807 88.379871 
L 303.187983 88.893765 
L 302.958097 89.40766 
L 302.69662 89.921554 
L 302.405128 90.435449 
L 302.085275 90.949343 
L 301.738785 91.463238 
L 301.367427 91.977132 
L 300.973006 92.491027 
L 300.557347 93.004921 
L 300.122282 93.518815 
L 299.669636 94.03271 
L 299.201219 94.546604 
L 298.718814 95.060499 
L 298.224173 95.574393 
L 297.719007 96.088288 
L 297.20498 96.602182 
L 296.683706 97.116077 
L 296.156748 97.629971 
L 295.625609 98.143866 
L 295.091737 98.65776 
L 294.556519 99.171654 
L 294.021285 99.685549 
L 293.487303 100.199443 
z
" clip-path="url(#p09730ce46d)" style="fill: #1f77b4; fill-opacity: 0.3"/>
   </g>
   <g id="PolyCollection_4">
    <path d="M 386.562706 164.078336 
L 364.584169 164.078336 
L 364.228667 162.705354 
L 363.871295 161.332372 
L 363.512309 159.959389 
L 363.151969 158.586407 
L 362.790535 157.213425 
L 362.428275 155.840443 
L 362.065464 154.46746 
L 361.702387 153.094478 
L 361.33934 151.721496 
L 360.976634 150.348514 
L 360.614593 148.975531 
L 360.253562 147.602549 
L 359.8939 146.229567 
L 359.535989 144.856585 
L 359.180231 143.483602 
L 358.827048 142.11062 
L 358.476883 140.737638 
L 358.1302 139.364656 
L 357.787483 137.991673 
L 357.449234 136.618691 
L 357.11597 135.245709 
L 356.788225 133.872727 
L 356.466543 132.499744 
L 356.151476 131.126762 
L 355.843582 129.75378 
L 355.54342 128.380797 
L 355.251544 127.007815 
L 354.968502 125.634833 
L 354.694828 124.261851 
L 354.43104 122.888868 
L 354.177632 121.515886 
L 353.935071 120.142904 
L 353.70379 118.769922 
L 353.484187 117.396939 
L 353.276614 116.023957 
L 353.081378 114.650975 
L 352.898736 113.277993 
L 352.728887 111.90501 
L 352.571975 110.532028 
L 352.428081 109.159046 
L 352.297223 107.786064 
L 352.179354 106.413081 
L 352.074363 105.040099 
L 351.982071 103.667117 
L 351.902236 102.294135 
L 351.834551 100.921152 
L 351.778648 99.54817 
L 351.734101 98.175188 
L 351.700429 96.802206 
L 351.677103 95.429223 
L 351.663548 94.056241 
L 351.659152 92.683259 
L 351.663271 91.310276 
L 351.675238 89.937294 
L 351.694371 88.564312 
L 351.719979 87.19133 
L 351.751373 85.818347 
L 351.787877 84.445365 
L 351.828832 83.072383 
L 351.873609 81.699401 
L 351.921619 80.326418 
L 351.972318 78.953436 
L 352.025218 77.580454 
L 352.079898 76.207472 
L 352.136003 74.834489 
L 352.193261 73.461507 
L 352.25148 72.088525 
L 352.31056 70.715543 
L 352.37049 69.34256 
L 352.431356 67.969578 
L 352.493339 66.596596 
L 352.556718 65.223614 
L 352.621865 63.850631 
L 352.689244 62.477649 
L 352.759408 61.104667 
L 352.832993 59.731684 
L 352.910709 58.358702 
L 352.993336 56.98572 
L 353.081709 55.612738 
L 353.176716 54.239755 
L 353.279278 52.866773 
L 353.390344 51.493791 
L 353.510874 50.120809 
L 353.641828 48.747826 
L 353.784152 47.374844 
L 353.938766 46.001862 
L 354.106547 44.62888 
L 354.288321 43.255897 
L 354.484846 41.882915 
L 354.696801 40.509933 
L 354.924779 39.136951 
L 355.169271 37.763968 
L 355.43066 36.390986 
L 355.709213 35.018004 
L 356.005076 33.645022 
L 356.318268 32.272039 
L 356.648676 30.899057 
L 356.996058 29.526075 
L 357.360038 28.153092 
L 393.786837 28.153092 
L 393.786837 28.153092 
L 394.150817 29.526075 
L 394.498199 30.899057 
L 394.828607 32.272039 
L 395.141799 33.645022 
L 395.437662 35.018004 
L 395.716215 36.390986 
L 395.977604 37.763968 
L 396.222096 39.136951 
L 396.450074 40.509933 
L 396.662029 41.882915 
L 396.858554 43.255897 
L 397.040328 44.62888 
L 397.208109 46.001862 
L 397.362723 47.374844 
L 397.505047 48.747826 
L 397.636001 50.120809 
L 397.756531 51.493791 
L 397.867597 52.866773 
L 397.970159 54.239755 
L 398.065166 55.612738 
L 398.153539 56.98572 
L 398.236166 58.358702 
L 398.313882 59.731684 
L 398.387467 61.104667 
L 398.457631 62.477649 
L 398.52501 63.850631 
L 398.590157 65.223614 
L 398.653536 66.596596 
L 398.715519 67.969578 
L 398.776385 69.34256 
L 398.836315 70.715543 
L 398.895395 72.088525 
L 398.953614 73.461507 
L 399.010872 74.834489 
L 399.066977 76.207472 
L 399.121657 77.580454 
L 399.174557 78.953436 
L 399.225256 80.326418 
L 399.273266 81.699401 
L 399.318043 83.072383 
L 399.358998 84.445365 
L 399.395502 85.818347 
L 399.426896 87.19133 
L 399.452504 88.564312 
L 399.471637 89.937294 
L 399.483604 91.310276 
L 399.487723 92.683259 
L 399.483327 94.056241 
L 399.469772 95.429223 
L 399.446446 96.802206 
L 399.412774 98.175188 
L 399.368227 99.54817 
L 399.312324 100.921152 
L 399.244639 102.294135 
L 399.164804 103.667117 
L 399.072512 105.040099 
L 398.967521 106.413081 
L 398.849652 107.786064 
L 398.718794 109.159046 
L 398.5749 110.532028 
L 398.417988 111.90501 
L 398.248139 113.277993 
L 398.065497 114.650975 
L 397.870261 116.023957 
L 397.662688 117.396939 
L 397.443085 118.769922 
L 397.211804 120.142904 
L 396.969243 121.515886 
L 396.715835 122.888868 
L 396.452047 124.261851 
L 396.178373 125.634833 
L 395.895331 127.007815 
L 395.603455 128.380797 
L 395.303293 129.75378 
L 394.995399 131.126762 
L 394.680332 132.499744 
L 394.35865 133.872727 
L 394.030905 135.245709 
L 393.697641 136.618691 
L 393.359392 137.991673 
L 393.016675 139.364656 
L 392.669992 140.737638 
L 392.319827 142.11062 
L 391.966644 143.483602 
L 391.610886 144.856585 
L 391.252975 146.229567 
L 390.893313 147.602549 
L 390.532282 148.975531 
L 390.170241 150.348514 
L 389.807535 151.721496 
L 389.444488 153.094478 
L 389.081411 154.46746 
L 388.7186 155.840443 
L 388.35634 157.213425 
L 387.994906 158.586407 
L 387.634566 159.959389 
L 387.27558 161.332372 
L 386.918208 162.705354 
L 386.562706 164.078336 
z
" clip-path="url(#p09730ce46d)" style="fill: #1f77b4; fill-opacity: 0.3"/>
   </g>
   <g id="PolyCollection_5">
    <path d="M 485.963494 108.841232 
L 456.497667 108.841232 
L 455.856945 108.064006 
L 455.223362 107.28678 
L 454.599574 106.509554 
L 453.988216 105.732328 
L 453.391878 104.955102 
L 452.813082 104.177876 
L 452.254255 103.40065 
L 451.717706 102.623424 
L 451.205605 101.846198 
L 450.719962 101.068972 
L 450.262602 100.291746 
L 449.835157 99.51452 
L 449.43904 98.737294 
L 449.075441 97.960068 
L 448.74531 97.182842 
L 448.449354 96.405616 
L 448.188033 95.62839 
L 447.961556 94.851164 
L 447.769889 94.073938 
L 447.612755 93.296712 
L 447.489651 92.519486 
L 447.399852 91.74226 
L 447.342435 90.965034 
L 447.316295 90.187808 
L 447.320163 89.410581 
L 447.352636 88.633355 
L 447.412197 87.856129 
L 447.497246 87.078903 
L 447.606123 86.301677 
L 447.737141 85.524451 
L 447.888611 84.747225 
L 448.058868 83.969999 
L 448.246298 83.192773 
L 448.449363 82.415547 
L 448.666618 81.638321 
L 448.896734 80.861095 
L 449.138508 80.083869 
L 449.390881 79.306643 
L 449.652938 78.529417 
L 449.92392 77.752191 
L 450.203217 76.974965 
L 450.490366 76.197739 
L 450.785047 75.420513 
L 451.087064 74.643287 
L 451.396336 73.866061 
L 451.712878 73.088835 
L 452.03678 72.311609 
L 452.368185 71.534383 
L 452.707269 70.757157 
L 453.054211 69.979931 
L 453.409175 69.202705 
L 453.772285 68.425479 
L 454.143599 67.648253 
L 454.523095 66.871027 
L 454.910647 66.093801 
L 455.306012 65.316575 
L 455.708819 64.539349 
L 456.118556 63.762123 
L 456.534568 62.984897 
L 456.956054 62.207671 
L 457.382071 61.430445 
L 457.811536 60.653219 
L 458.243243 59.875993 
L 458.675868 59.098767 
L 459.107994 58.321541 
L 459.538124 57.544315 
L 459.964705 56.767089 
L 460.386155 55.989863 
L 460.800882 55.212637 
L 461.207315 54.435411 
L 461.603929 53.658185 
L 461.989267 52.880959 
L 462.361973 52.103733 
L 462.720806 51.326507 
L 463.064669 50.549281 
L 463.392622 49.772055 
L 463.703904 48.994829 
L 463.997938 48.217603 
L 464.274349 47.440377 
L 464.532963 46.663151 
L 464.773809 45.885925 
L 464.997122 45.108699 
L 465.203332 44.331472 
L 465.393054 43.554246 
L 465.567081 42.77702 
L 465.72636 41.999794 
L 465.87198 41.222568 
L 466.005147 40.445342 
L 466.127161 39.668116 
L 466.239396 38.89089 
L 466.343268 38.113664 
L 466.440216 37.336438 
L 466.531674 36.559212 
L 466.619048 35.781986 
L 466.703691 35.00476 
L 466.786884 34.227534 
L 466.869817 33.450308 
L 466.953571 32.673082 
L 467.039104 31.895856 
L 475.422057 31.895856 
L 475.422057 31.895856 
L 475.50759 32.673082 
L 475.591343 33.450308 
L 475.674276 34.227534 
L 475.75747 35.00476 
L 475.842113 35.781986 
L 475.929487 36.559212 
L 476.020945 37.336438 
L 476.117893 38.113664 
L 476.221765 38.89089 
L 476.333999 39.668116 
L 476.456014 40.445342 
L 476.589181 41.222568 
L 476.734801 41.999794 
L 476.89408 42.77702 
L 477.068107 43.554246 
L 477.257829 44.331472 
L 477.464038 45.108699 
L 477.687351 45.885925 
L 477.928198 46.663151 
L 478.186811 47.440377 
L 478.463222 48.217603 
L 478.757257 48.994829 
L 479.068538 49.772055 
L 479.396492 50.549281 
L 479.740354 51.326507 
L 480.099188 52.103733 
L 480.471893 52.880959 
L 480.857232 53.658185 
L 481.253845 54.435411 
L 481.660278 55.212637 
L 482.075006 55.989863 
L 482.496455 56.767089 
L 482.923037 57.544315 
L 483.353167 58.321541 
L 483.785293 59.098767 
L 484.217918 59.875993 
L 484.649625 60.653219 
L 485.07909 61.430445 
L 485.505106 62.207671 
L 485.926593 62.984897 
L 486.342605 63.762123 
L 486.752342 64.539349 
L 487.155148 65.316575 
L 487.550514 66.093801 
L 487.938066 66.871027 
L 488.317562 67.648253 
L 488.688876 68.425479 
L 489.051986 69.202705 
L 489.40695 69.979931 
L 489.753892 70.757157 
L 490.092976 71.534383 
L 490.424381 72.311609 
L 490.748283 73.088835 
L 491.064825 73.866061 
L 491.374097 74.643287 
L 491.676114 75.420513 
L 491.970794 76.197739 
L 492.257944 76.974965 
L 492.537241 77.752191 
L 492.808222 78.529417 
L 493.07028 79.306643 
L 493.322653 80.083869 
L 493.564427 80.861095 
L 493.794542 81.638321 
L 494.011798 82.415547 
L 494.214862 83.192773 
L 494.402293 83.969999 
L 494.57255 84.747225 
L 494.72402 85.524451 
L 494.855038 86.301677 
L 494.963915 87.078903 
L 495.048964 87.856129 
L 495.108525 88.633355 
L 495.140998 89.410581 
L 495.144866 90.187808 
L 495.118726 90.965034 
L 495.061309 91.74226 
L 494.97151 92.519486 
L 494.848405 93.296712 
L 494.691272 94.073938 
L 494.499604 94.851164 
L 494.273128 95.62839 
L 494.011806 96.405616 
L 493.715851 97.182842 
L 493.38572 97.960068 
L 493.02212 98.737294 
L 492.626004 99.51452 
L 492.198558 100.291746 
L 491.741199 101.068972 
L 491.255555 101.846198 
L 490.743455 102.623424 
L 490.206906 103.40065 
L 489.648078 104.177876 
L 489.069282 104.955102 
L 488.472945 105.732328 
L 487.861587 106.509554 
L 487.237798 107.28678 
L 486.604216 108.064006 
L 485.963494 108.841232 
z
" clip-path="url(#p09730ce46d)" style="fill: #1f77b4; fill-opacity: 0.3"/>
   </g>
   <g id="PolyCollection_6">
    <path d="M 576.681665 161.083039 
L 557.093781 161.083039 
L 556.928343 160.394924 
L 556.769479 159.706809 
L 556.617318 159.018695 
L 556.47194 158.33058 
L 556.333382 157.642465 
L 556.201629 156.95435 
L 556.076621 156.266236 
L 555.958246 155.578121 
L 555.846344 154.890006 
L 555.740704 154.201892 
L 555.641069 153.513777 
L 555.54713 152.825662 
L 555.458533 152.137547 
L 555.374878 151.449433 
L 555.295722 150.761318 
L 555.22058 150.073203 
L 555.148927 149.385088 
L 555.080205 148.696974 
L 555.01382 148.008859 
L 554.949151 147.320744 
L 554.88555 146.632629 
L 554.822349 145.944515 
L 554.75886 145.2564 
L 554.694383 144.568285 
L 554.628212 143.88017 
L 554.559635 143.192056 
L 554.48794 142.503941 
L 554.412424 141.815826 
L 554.332392 141.127711 
L 554.247167 140.439597 
L 554.156092 139.751482 
L 554.058536 139.063367 
L 553.953899 138.375252 
L 553.841615 137.687138 
L 553.721159 136.999023 
L 553.59205 136.310908 
L 553.453855 135.622793 
L 553.306195 134.934679 
L 553.148745 134.246564 
L 552.981242 133.558449 
L 552.803484 132.870334 
L 552.615334 132.18222 
L 552.416725 131.494105 
L 552.207659 130.80599 
L 551.98821 130.117875 
L 551.758527 129.429761 
L 551.518829 128.741646 
L 551.269414 128.053531 
L 551.010652 127.365416 
L 550.74299 126.677302 
L 550.466946 125.989187 
L 550.183111 125.301072 
L 549.89215 124.612957 
L 549.594792 123.924843 
L 549.291837 123.236728 
L 548.984144 122.548613 
L 548.672636 121.860498 
L 548.358291 121.172384 
L 548.042138 120.484269 
L 547.725257 119.796154 
L 547.408767 119.108039 
L 547.093829 118.419925 
L 546.781634 117.73181 
L 546.473401 117.043695 
L 546.17037 116.35558 
L 545.873795 115.667466 
L 545.584939 114.979351 
L 545.305066 114.291236 
L 545.035437 113.603121 
L 544.777299 112.915007 
L 544.531884 112.226892 
L 544.300395 111.538777 
L 544.084007 110.850662 
L 543.883855 110.162548 
L 543.701029 109.474433 
L 543.536568 108.786318 
L 543.391454 108.098203 
L 543.266607 107.410089 
L 543.162876 106.721974 
L 543.081038 106.033859 
L 543.02179 105.345744 
L 542.985747 104.65763 
L 542.973438 103.969515 
L 542.985297 103.2814 
L 543.021671 102.593285 
L 543.082806 101.905171 
L 543.168853 101.217056 
L 543.279864 100.528941 
L 543.41579 99.840826 
L 543.576485 99.152712 
L 543.761701 98.464597 
L 543.971096 97.776482 
L 544.204229 97.088367 
L 544.460567 96.400253 
L 544.739487 95.712138 
L 545.040278 95.024023 
L 545.362146 94.335908 
L 545.704221 93.647794 
L 546.065556 92.959679 
L 587.70989 92.959679 
L 587.70989 92.959679 
L 588.071226 93.647794 
L 588.4133 94.335908 
L 588.735169 95.024023 
L 589.035959 95.712138 
L 589.314879 96.400253 
L 589.571217 97.088367 
L 589.80435 97.776482 
L 590.013745 98.464597 
L 590.198962 99.152712 
L 590.359656 99.840826 
L 590.495582 100.528941 
L 590.606593 101.217056 
L 590.69264 101.905171 
L 590.753775 102.593285 
L 590.790149 103.2814 
L 590.802009 103.969515 
L 590.789699 104.65763 
L 590.753656 105.345744 
L 590.694409 106.033859 
L 590.61257 106.721974 
L 590.508839 107.410089 
L 590.383992 108.098203 
L 590.238879 108.786318 
L 590.074418 109.474433 
L 589.891592 110.162548 
L 589.691439 110.850662 
L 589.475051 111.538777 
L 589.243563 112.226892 
L 588.998147 112.915007 
L 588.740009 113.603121 
L 588.47038 114.291236 
L 588.190507 114.979351 
L 587.901651 115.667466 
L 587.605076 116.35558 
L 587.302045 117.043695 
L 586.993812 117.73181 
L 586.681618 118.419925 
L 586.366679 119.108039 
L 586.05019 119.796154 
L 585.733308 120.484269 
L 585.417155 121.172384 
L 585.10281 121.860498 
L 584.791302 122.548613 
L 584.48361 123.236728 
L 584.180654 123.924843 
L 583.883297 124.612957 
L 583.592335 125.301072 
L 583.308501 125.989187 
L 583.032457 126.677302 
L 582.764794 127.365416 
L 582.506033 128.053531 
L 582.256617 128.741646 
L 582.01692 129.429761 
L 581.787236 130.117875 
L 581.567788 130.80599 
L 581.358722 131.494105 
L 581.160113 132.18222 
L 580.971963 132.870334 
L 580.794204 133.558449 
L 580.626701 134.246564 
L 580.469251 134.934679 
L 580.321591 135.622793 
L 580.183397 136.310908 
L 580.054288 136.999023 
L 579.933832 137.687138 
L 579.821548 138.375252 
L 579.71691 139.063367 
L 579.619354 139.751482 
L 579.52828 140.439597 
L 579.443055 141.127711 
L 579.363023 141.815826 
L 579.287506 142.503941 
L 579.215812 143.192056 
L 579.147234 143.88017 
L 579.081063 144.568285 
L 579.016587 145.2564 
L 578.953098 145.944515 
L 578.889896 146.632629 
L 578.826295 147.320744 
L 578.761626 148.008859 
L 578.695242 148.696974 
L 578.626519 149.385088 
L 578.554867 150.073203 
L 578.479725 150.761318 
L 578.400568 151.449433 
L 578.316914 152.137547 
L 578.228317 152.825662 
L 578.134378 153.513777 
L 578.034742 154.201892 
L 577.929103 154.890006 
L 577.817201 155.578121 
L 577.698826 156.266236 
L 577.573818 156.95435 
L 577.442065 157.642465 
L 577.303506 158.33058 
L 577.158129 159.018695 
L 577.005967 159.706809 
L 576.847104 160.394924 
L 576.681665 161.083039 
z
" clip-path="url(#p09730ce46d)" style="fill: #1f77b4; fill-opacity: 0.3"/>
   </g>
   <g id="PolyCollection_7">
    <path d="M 677.00586 138.574551 
L 648.083872 138.574551 
L 647.56509 138.354959 
L 647.049122 138.135367 
L 646.537175 137.915774 
L 646.030475 137.696182 
L 645.530259 137.47659 
L 645.037778 137.256998 
L 644.554296 137.037406 
L 644.081083 136.817814 
L 643.61942 136.598222 
L 643.170588 136.37863 
L 642.735872 136.159038 
L 642.316551 135.939446 
L 641.913898 135.719854 
L 641.529168 135.500261 
L 641.163601 135.280669 
L 640.818405 135.061077 
L 640.494755 134.841485 
L 640.193781 134.621893 
L 639.916564 134.402301 
L 639.664118 134.182709 
L 639.437391 133.963117 
L 639.237246 133.743525 
L 639.064458 133.523933 
L 638.919702 133.304341 
L 638.803547 133.084748 
L 638.716444 132.865156 
L 638.658722 132.645564 
L 638.63058 132.425972 
L 638.632087 132.20638 
L 638.663172 131.986788 
L 638.723625 131.767196 
L 638.8131 131.547604 
L 638.93111 131.328012 
L 639.077035 131.10842 
L 639.250121 130.888828 
L 639.449491 130.669235 
L 639.67415 130.449643 
L 639.922994 130.230051 
L 640.194816 130.010459 
L 640.488321 129.790867 
L 640.802138 129.571275 
L 641.134827 129.351683 
L 641.484892 129.132091 
L 641.8508 128.912499 
L 642.230982 128.692907 
L 642.623856 128.473315 
L 643.027832 128.253723 
L 643.441323 128.03413 
L 643.862759 127.814538 
L 644.290592 127.594946 
L 644.723308 127.375354 
L 645.159434 127.155762 
L 645.597542 126.93617 
L 646.036255 126.716578 
L 646.474257 126.496986 
L 646.910288 126.277394 
L 647.343155 126.057802 
L 647.771727 125.83821 
L 648.194945 125.618617 
L 648.611813 125.399025 
L 649.021408 125.179433 
L 649.422876 124.959841 
L 649.815429 124.740249 
L 650.198354 124.520657 
L 650.571003 124.301065 
L 650.932802 124.081473 
L 651.283245 123.861881 
L 651.621897 123.642289 
L 651.948395 123.422697 
L 652.262448 123.203104 
L 652.563836 122.983512 
L 652.852413 122.76392 
L 653.12811 122.544328 
L 653.390927 122.324736 
L 653.640944 122.105144 
L 653.878313 121.885552 
L 654.103261 121.66596 
L 654.316088 121.446368 
L 654.517167 121.226776 
L 654.70694 121.007184 
L 654.885915 120.787591 
L 655.054664 120.567999 
L 655.213816 120.348407 
L 655.364055 120.128815 
L 655.506109 119.909223 
L 655.640747 119.689631 
L 655.768771 119.470039 
L 655.891004 119.250447 
L 656.008287 119.030855 
L 656.121465 118.811263 
L 656.23138 118.591671 
L 656.338861 118.372079 
L 656.444715 118.152486 
L 656.549716 117.932894 
L 656.654598 117.713302 
L 656.760049 117.49371 
L 656.866696 117.274118 
L 656.975106 117.054526 
L 657.085777 116.834934 
L 668.003955 116.834934 
L 668.003955 116.834934 
L 668.114626 117.054526 
L 668.223036 117.274118 
L 668.329683 117.49371 
L 668.435134 117.713302 
L 668.540016 117.932894 
L 668.645017 118.152486 
L 668.750871 118.372079 
L 668.858352 118.591671 
L 668.968267 118.811263 
L 669.081445 119.030855 
L 669.198728 119.250447 
L 669.320961 119.470039 
L 669.448985 119.689631 
L 669.583623 119.909223 
L 669.725677 120.128815 
L 669.875916 120.348407 
L 670.035068 120.567999 
L 670.203817 120.787591 
L 670.382792 121.007184 
L 670.572565 121.226776 
L 670.773644 121.446368 
L 670.986471 121.66596 
L 671.211419 121.885552 
L 671.448788 122.105144 
L 671.698805 122.324736 
L 671.961623 122.544328 
L 672.237319 122.76392 
L 672.525897 122.983512 
L 672.827285 123.203104 
L 673.141337 123.422697 
L 673.467835 123.642289 
L 673.806487 123.861881 
L 674.15693 124.081473 
L 674.518729 124.301065 
L 674.891378 124.520657 
L 675.274303 124.740249 
L 675.666857 124.959841 
L 676.068324 125.179433 
L 676.477919 125.399025 
L 676.894788 125.618617 
L 677.318005 125.83821 
L 677.746578 126.057802 
L 678.179444 126.277394 
L 678.615475 126.496986 
L 679.053477 126.716578 
L 679.49219 126.93617 
L 679.930298 127.155762 
L 680.366424 127.375354 
L 680.79914 127.594946 
L 681.226974 127.814538 
L 681.648409 128.03413 
L 682.0619 128.253723 
L 682.465876 128.473315 
L 682.85875 128.692907 
L 683.238932 128.912499 
L 683.60484 129.132091 
L 683.954905 129.351683 
L 684.287594 129.571275 
L 684.601411 129.790867 
L 684.894917 130.010459 
L 685.166739 130.230051 
L 685.415582 130.449643 
L 685.640241 130.669235 
L 685.839612 130.888828 
L 686.012698 131.10842 
L 686.158622 131.328012 
L 686.276632 131.547604 
L 686.366107 131.767196 
L 686.426561 131.986788 
L 686.457645 132.20638 
L 686.459152 132.425972 
L 686.431011 132.645564 
L 686.373288 132.865156 
L 686.286185 133.084748 
L 686.17003 133.304341 
L 686.025274 133.523933 
L 685.852487 133.743525 
L 685.652341 133.963117 
L 685.425614 134.182709 
L 685.173168 134.402301 
L 684.895951 134.621893 
L 684.594978 134.841485 
L 684.271328 135.061077 
L 683.926131 135.280669 
L 683.560564 135.500261 
L 683.175835 135.719854 
L 682.773181 135.939446 
L 682.35386 136.159038 
L 681.919144 136.37863 
L 681.470312 136.598222 
L 681.008649 136.817814 
L 680.535437 137.037406 
L 680.051954 137.256998 
L 679.559474 137.47659 
L 679.059257 137.696182 
L 678.552557 137.915774 
L 678.040611 138.135367 
L 677.524642 138.354959 
L 677.00586 138.574551 
z
" clip-path="url(#p09730ce46d)" style="fill: #1f77b4; fill-opacity: 0.3"/>
   </g>
   <g id="matplotlib.axis_1">
    <g id="xtick_1">
     <g id="line2d_1">
      <defs>
       <path id="m983572748e" d="M 0 0 
L 0 3.5 
" style="stroke: #000000; stroke-width: 0.8"/>
      </defs>
      <g>
       <use xlink:href="#m983572748e" x="88.602009" y="173.52" style="stroke: #000000; stroke-width: 0.8"/>
      </g>
     </g>
     <g id="text_1">
      <!-- Приемное -->
      <g transform="translate(62.16529 188.118438) scale(0.1 -0.1)">
       <defs>
        <path id="DejaVuSans-41f" d="M 4184 4666 
L 4184 0 
L 3553 0 
L 3553 4134 
L 1259 4134 
L 1259 0 
L 628 0 
L 628 4666 
L 4184 4666 
z
" transform="scale(0.015625)"/>
        <path id="DejaVuSans-440" d="M 1159 525 
L 1159 -1331 
L 581 -1331 
L 581 3500 
L 1159 3500 
L 1159 2969 
Q 1341 3281 1617 3432 
Q 1894 3584 2278 3584 
Q 2916 3584 3314 3078 
Q 3713 2572 3713 1747 
Q 3713 922 3314 415 
Q 2916 -91 2278 -91 
Q 1894 -91 1617 61 
Q 1341 213 1159 525 
z
M 3116 1747 
Q 3116 2381 2855 2742 
Q 2594 3103 2138 3103 
Q 1681 3103 1420 2742 
Q 1159 2381 1159 1747 
Q 1159 1113 1420 752 
Q 1681 391 2138 391 
Q 2594 391 2855 752 
Q 3116 1113 3116 1747 
z
" transform="scale(0.015625)"/>
        <path id="DejaVuSans-438" d="M 3578 3500 
L 3578 0 
L 3006 0 
L 3006 2809 
L 1319 0 
L 581 0 
L 581 3500 
L 1153 3500 
L 1153 697 
L 2838 3500 
L 3578 3500 
z
" transform="scale(0.015625)"/>
        <path id="DejaVuSans-435" d="M 3597 1894 
L 3597 1613 
L 953 1613 
Q 991 1019 1311 708 
Q 1631 397 2203 397 
Q 2534 397 2845 478 
Q 3156 559 3463 722 
L 3463 178 
Q 3153 47 2828 -22 
Q 2503 -91 2169 -91 
Q 1331 -91 842 396 
Q 353 884 353 1716 
Q 353 2575 817 3079 
Q 1281 3584 2069 3584 
Q 2775 3584 3186 3129 
Q 3597 2675 3597 1894 
z
M 3022 2063 
Q 3016 2534 2758 2815 
Q 2500 3097 2075 3097 
Q 1594 3097 1305 2825 
Q 1016 2553 972 2059 
L 3022 2063 
z
" transform="scale(0.015625)"/>
        <path id="DejaVuSans-43c" d="M 581 3500 
L 1422 3500 
L 2416 1156 
L 3413 3500 
L 4247 3500 
L 4247 0 
L 3669 0 
L 3669 2950 
L 2703 672 
L 2128 672 
L 1159 2950 
L 1159 0 
L 581 0 
L 581 3500 
z
" transform="scale(0.015625)"/>
        <path id="DejaVuSans-43d" d="M 581 3500 
L 1159 3500 
L 1159 2072 
L 3025 2072 
L 3025 3500 
L 3603 3500 
L 3603 0 
L 3025 0 
L 3025 1613 
L 1159 1613 
L 1159 0 
L 581 0 
L 581 3500 
z
" transform="scale(0.015625)"/>
        <path id="DejaVuSans-43e" d="M 1959 3097 
Q 1497 3097 1228 2736 
Q 959 2375 959 1747 
Q 959 1119 1226 758 
Q 1494 397 1959 397 
Q 2419 397 2687 759 
Q 2956 1122 2956 1747 
Q 2956 2369 2687 2733 
Q 2419 3097 1959 3097 
z
M 1959 3584 
Q 2709 3584 3137 3096 
Q 3566 2609 3566 1747 
Q 3566 888 3137 398 
Q 2709 -91 1959 -91 
Q 1206 -91 779 398 
Q 353 888 353 1747 
Q 353 2609 779 3096 
Q 1206 3584 1959 3584 
z
" transform="scale(0.015625)"/>
       </defs>
       <use xlink:href="#DejaVuSans-41f"/>
       <use xlink:href="#DejaVuSans-440" x="75.195312"/>
       <use xlink:href="#DejaVuSans-438" x="138.671875"/>
       <use xlink:href="#DejaVuSans-435" x="203.662109"/>
       <use xlink:href="#DejaVuSans-43c" x="265.185547"/>
       <use xlink:href="#DejaVuSans-43d" x="340.625"/>
       <use xlink:href="#DejaVuSans-43e" x="406.005859"/>
       <use xlink:href="#DejaVuSans-435" x="467.1875"/>
      </g>
      <!--  отделение -->
      <g transform="translate(58.64029 199.31625) scale(0.1 -0.1)">
       <defs>
        <path id="DejaVuSans-20" transform="scale(0.015625)"/>
        <path id="DejaVuSans-442" d="M 188 3500 
L 3541 3500 
L 3541 3041 
L 2147 3041 
L 2147 0 
L 1581 0 
L 1581 3041 
L 188 3041 
L 188 3500 
z
" transform="scale(0.015625)"/>
        <path id="DejaVuSans-434" d="M 1384 459 
L 3053 459 
L 3053 3041 
L 1844 3041 
L 1844 2603 
Q 1844 1316 1475 628 
L 1384 459 
z
M 550 459 
Q 834 584 959 850 
Q 1266 1509 1266 2838 
L 1266 3500 
L 3631 3500 
L 3631 459 
L 4091 459 
L 4091 -884 
L 3631 -884 
L 3631 0 
L 794 0 
L 794 -884 
L 334 -884 
L 334 459 
L 550 459 
z
" transform="scale(0.015625)"/>
        <path id="DejaVuSans-43b" d="M 238 0 
L 238 478 
Q 806 566 981 959 
Q 1194 1513 1194 2928 
L 1194 3500 
L 3559 3500 
L 3559 0 
L 2984 0 
L 2984 3041 
L 1769 3041 
L 1769 2694 
Q 1769 1344 1494 738 
Q 1200 91 238 0 
z
" transform="scale(0.015625)"/>
       </defs>
       <use xlink:href="#DejaVuSans-20"/>
       <use xlink:href="#DejaVuSans-43e" x="31.787109"/>
       <use xlink:href="#DejaVuSans-442" x="92.96875"/>
       <use xlink:href="#DejaVuSans-434" x="151.220703"/>
       <use xlink:href="#DejaVuSans-435" x="220.361328"/>
       <use xlink:href="#DejaVuSans-43b" x="281.884766"/>
       <use xlink:href="#DejaVuSans-435" x="345.800781"/>
       <use xlink:href="#DejaVuSans-43d" x="407.324219"/>
       <use xlink:href="#DejaVuSans-438" x="472.705078"/>
       <use xlink:href="#DejaVuSans-435" x="537.695312"/>
      </g>
     </g>
    </g>
    <g id="xtick_2">
     <g id="line2d_2">
      <g>
       <use xlink:href="#m983572748e" x="184.259152" y="173.52" style="stroke: #000000; stroke-width: 0.8"/>
      </g>
     </g>
     <g id="text_2">
      <!-- Отделение -->
      <g transform="translate(155.009933 188.118438) scale(0.1 -0.1)">
       <defs>
        <path id="DejaVuSans-41e" d="M 2522 4238 
Q 1834 4238 1429 3725 
Q 1025 3213 1025 2328 
Q 1025 1447 1429 934 
Q 1834 422 2522 422 
Q 3209 422 3611 934 
Q 4013 1447 4013 2328 
Q 4013 3213 3611 3725 
Q 3209 4238 2522 4238 
z
M 2522 4750 
Q 3503 4750 4090 4092 
Q 4678 3434 4678 2328 
Q 4678 1225 4090 567 
Q 3503 -91 2522 -91 
Q 1538 -91 948 565 
Q 359 1222 359 2328 
Q 359 3434 948 4092 
Q 1538 4750 2522 4750 
z
" transform="scale(0.015625)"/>
       </defs>
       <use xlink:href="#DejaVuSans-41e"/>
       <use xlink:href="#DejaVuSans-442" x="78.710938"/>
       <use xlink:href="#DejaVuSans-434" x="136.962891"/>
       <use xlink:href="#DejaVuSans-435" x="206.103516"/>
       <use xlink:href="#DejaVuSans-43b" x="267.626953"/>
       <use xlink:href="#DejaVuSans-435" x="331.542969"/>
       <use xlink:href="#DejaVuSans-43d" x="393.066406"/>
       <use xlink:href="#DejaVuSans-438" x="458.447266"/>
       <use xlink:href="#DejaVuSans-435" x="523.4375"/>
      </g>
      <!--  диагностики -->
      <g transform="translate(148.763839 199.31625) scale(0.1 -0.1)">
       <defs>
        <path id="DejaVuSans-430" d="M 2194 1759 
Q 1497 1759 1228 1600 
Q 959 1441 959 1056 
Q 959 750 1161 570 
Q 1363 391 1709 391 
Q 2188 391 2477 730 
Q 2766 1069 2766 1631 
L 2766 1759 
L 2194 1759 
z
M 3341 1997 
L 3341 0 
L 2766 0 
L 2766 531 
Q 2569 213 2275 61 
Q 1981 -91 1556 -91 
Q 1019 -91 701 211 
Q 384 513 384 1019 
Q 384 1609 779 1909 
Q 1175 2209 1959 2209 
L 2766 2209 
L 2766 2266 
Q 2766 2663 2505 2880 
Q 2244 3097 1772 3097 
Q 1472 3097 1187 3025 
Q 903 2953 641 2809 
L 641 3341 
Q 956 3463 1253 3523 
Q 1550 3584 1831 3584 
Q 2591 3584 2966 3190 
Q 3341 2797 3341 1997 
z
" transform="scale(0.015625)"/>
        <path id="DejaVuSans-433" d="M 581 0 
L 581 3500 
L 3050 3500 
L 3050 3041 
L 1159 3041 
L 1159 0 
L 581 0 
z
" transform="scale(0.015625)"/>
        <path id="DejaVuSans-441" d="M 3122 3366 
L 3122 2828 
Q 2878 2963 2633 3030 
Q 2388 3097 2138 3097 
Q 1578 3097 1268 2742 
Q 959 2388 959 1747 
Q 959 1106 1268 751 
Q 1578 397 2138 397 
Q 2388 397 2633 464 
Q 2878 531 3122 666 
L 3122 134 
Q 2881 22 2623 -34 
Q 2366 -91 2075 -91 
Q 1284 -91 818 406 
Q 353 903 353 1747 
Q 353 2603 823 3093 
Q 1294 3584 2113 3584 
Q 2378 3584 2631 3529 
Q 2884 3475 3122 3366 
z
" transform="scale(0.015625)"/>
        <path id="DejaVuSans-43a" d="M 581 3500 
L 1153 3500 
L 1153 1856 
L 2775 3500 
L 3481 3500 
L 2144 2147 
L 3653 0 
L 3009 0 
L 1769 1766 
L 1153 1141 
L 1153 0 
L 581 0 
L 581 3500 
z
" transform="scale(0.015625)"/>
       </defs>
       <use xlink:href="#DejaVuSans-20"/>
       <use xlink:href="#DejaVuSans-434" x="31.787109"/>
       <use xlink:href="#DejaVuSans-438" x="100.927734"/>
       <use xlink:href="#DejaVuSans-430" x="165.917969"/>
       <use xlink:href="#DejaVuSans-433" x="227.197266"/>
       <use xlink:href="#DejaVuSans-43d" x="279.736328"/>
       <use xlink:href="#DejaVuSans-43e" x="345.117188"/>
       <use xlink:href="#DejaVuSans-441" x="406.298828"/>
       <use xlink:href="#DejaVuSans-442" x="461.279297"/>
       <use xlink:href="#DejaVuSans-438" x="519.53125"/>
       <use xlink:href="#DejaVuSans-43a" x="584.521484"/>
       <use xlink:href="#DejaVuSans-438" x="644.921875"/>
      </g>
     </g>
    </g>
    <g id="xtick_3">
     <g id="line2d_3">
      <g>
       <use xlink:href="#m983572748e" x="279.916295" y="173.52" style="stroke: #000000; stroke-width: 0.8"/>
      </g>
     </g>
     <g id="text_3">
      <!-- Отделение -->
      <g transform="translate(250.667076 188.118438) scale(0.1 -0.1)">
       <use xlink:href="#DejaVuSans-41e"/>
       <use xlink:href="#DejaVuSans-442" x="78.710938"/>
       <use xlink:href="#DejaVuSans-434" x="136.962891"/>
       <use xlink:href="#DejaVuSans-435" x="206.103516"/>
       <use xlink:href="#DejaVuSans-43b" x="267.626953"/>
       <use xlink:href="#DejaVuSans-435" x="331.542969"/>
       <use xlink:href="#DejaVuSans-43d" x="393.066406"/>
       <use xlink:href="#DejaVuSans-438" x="458.447266"/>
       <use xlink:href="#DejaVuSans-435" x="523.4375"/>
      </g>
      <!--  травматологии -->
      <g transform="translate(238.040513 199.31625) scale(0.1 -0.1)">
       <defs>
        <path id="DejaVuSans-432" d="M 1156 1613 
L 1156 459 
L 1975 459 
Q 2369 459 2575 607 
Q 2781 756 2781 1038 
Q 2781 1319 2575 1466 
Q 2369 1613 1975 1613 
L 1156 1613 
z
M 1156 3041 
L 1156 2072 
L 1913 2072 
Q 2238 2072 2444 2201 
Q 2650 2331 2650 2563 
Q 2650 2794 2444 2917 
Q 2238 3041 1913 3041 
L 1156 3041 
z
M 581 3500 
L 1950 3500 
Q 2566 3500 2897 3275 
Q 3228 3050 3228 2634 
Q 3228 2313 3059 2123 
Q 2891 1934 2559 1888 
Q 2956 1813 3175 1575 
Q 3394 1338 3394 981 
Q 3394 513 3033 256 
Q 2672 0 2003 0 
L 581 0 
L 581 3500 
z
" transform="scale(0.015625)"/>
       </defs>
       <use xlink:href="#DejaVuSans-20"/>
       <use xlink:href="#DejaVuSans-442" x="31.787109"/>
       <use xlink:href="#DejaVuSans-440" x="90.039062"/>
       <use xlink:href="#DejaVuSans-430" x="153.515625"/>
       <use xlink:href="#DejaVuSans-432" x="214.794922"/>
       <use xlink:href="#DejaVuSans-43c" x="273.730469"/>
       <use xlink:href="#DejaVuSans-430" x="349.169922"/>
       <use xlink:href="#DejaVuSans-442" x="410.449219"/>
       <use xlink:href="#DejaVuSans-43e" x="468.701172"/>
       <use xlink:href="#DejaVuSans-43b" x="529.882812"/>
       <use xlink:href="#DejaVuSans-43e" x="593.798828"/>
       <use xlink:href="#DejaVuSans-433" x="654.980469"/>
       <use xlink:href="#DejaVuSans-438" x="707.519531"/>
       <use xlink:href="#DejaVuSans-438" x="772.509766"/>
      </g>
     </g>
    </g>
    <g id="xtick_4">
     <g id="line2d_4">
      <g>
       <use xlink:href="#m983572748e" x="375.573438" y="173.52" style="stroke: #000000; stroke-width: 0.8"/>
      </g>
     </g>
     <g id="text_4">
      <!-- Инфекционное -->
      <g transform="translate(335.807031 188.118438) scale(0.1 -0.1)">
       <defs>
        <path id="DejaVuSans-418" d="M 4159 4666 
L 4159 0 
L 3547 0 
L 3547 3903 
L 1478 0 
L 628 0 
L 628 4666 
L 1241 4666 
L 1241 763 
L 3309 4666 
L 4159 4666 
z
" transform="scale(0.015625)"/>
        <path id="DejaVuSans-444" d="M 947 1747 
Q 947 1013 1173 702 
Q 1400 391 1784 391 
Q 2091 391 2447 916 
L 2447 2578 
Q 2091 3103 1784 3103 
Q 1400 3103 1173 2792 
Q 947 2481 947 1747 
z
M 2447 -1331 
L 2447 447 
Q 2269 153 2064 31 
Q 1859 -91 1600 -91 
Q 1078 -91 714 392 
Q 350 875 350 1734 
Q 350 2594 714 3089 
Q 1078 3584 1600 3584 
Q 1859 3584 2064 3465 
Q 2269 3347 2447 3053 
L 2447 4666 
L 3025 4666 
L 3025 3053 
Q 3203 3347 3408 3465 
Q 3613 3584 3872 3584 
Q 4394 3584 4758 3089 
Q 5122 2594 5122 1734 
Q 5122 875 4758 392 
Q 4394 -91 3872 -91 
Q 3613 -91 3408 31 
Q 3203 153 3025 447 
L 3025 -1331 
L 2447 -1331 
z
M 4525 1747 
Q 4525 2481 4298 2792 
Q 4072 3103 3688 3103 
Q 3381 3103 3025 2578 
L 3025 916 
Q 3381 391 3688 391 
Q 4072 391 4298 702 
Q 4525 1013 4525 1747 
z
" transform="scale(0.015625)"/>
        <path id="DejaVuSans-446" d="M 3603 0 
L 581 0 
L 581 3500 
L 1159 3500 
L 1159 459 
L 3025 459 
L 3025 3500 
L 3603 3500 
L 3603 459 
L 4063 459 
L 4063 -884 
L 3603 -884 
L 3603 0 
z
" transform="scale(0.015625)"/>
       </defs>
       <use xlink:href="#DejaVuSans-418"/>
       <use xlink:href="#DejaVuSans-43d" x="74.804688"/>
       <use xlink:href="#DejaVuSans-444" x="140.185547"/>
       <use xlink:href="#DejaVuSans-435" x="225.683594"/>
       <use xlink:href="#DejaVuSans-43a" x="287.207031"/>
       <use xlink:href="#DejaVuSans-446" x="347.607422"/>
       <use xlink:href="#DejaVuSans-438" x="415.673828"/>
       <use xlink:href="#DejaVuSans-43e" x="480.664062"/>
       <use xlink:href="#DejaVuSans-43d" x="541.845703"/>
       <use xlink:href="#DejaVuSans-43d" x="607.226562"/>
       <use xlink:href="#DejaVuSans-43e" x="672.607422"/>
       <use xlink:href="#DejaVuSans-435" x="733.789062"/>
      </g>
      <!--  отделение -->
      <g transform="translate(345.611719 199.31625) scale(0.1 -0.1)">
       <use xlink:href="#DejaVuSans-20"/>
       <use xlink:href="#DejaVuSans-43e" x="31.787109"/>
       <use xlink:href="#DejaVuSans-442" x="92.96875"/>
       <use xlink:href="#DejaVuSans-434" x="151.220703"/>
       <use xlink:href="#DejaVuSans-435" x="220.361328"/>
       <use xlink:href="#DejaVuSans-43b" x="281.884766"/>
       <use xlink:href="#DejaVuSans-435" x="345.800781"/>
       <use xlink:href="#DejaVuSans-43d" x="407.324219"/>
       <use xlink:href="#DejaVuSans-438" x="472.705078"/>
       <use xlink:href="#DejaVuSans-435" x="537.695312"/>
      </g>
     </g>
    </g>
    <g id="xtick_5">
     <g id="line2d_5">
      <g>
       <use xlink:href="#m983572748e" x="471.23058" y="173.52" style="stroke: #000000; stroke-width: 0.8"/>
      </g>
     </g>
     <g id="text_5">
      <!-- Хирургическое -->
      <g transform="translate(431.436049 188.118438) scale(0.1 -0.1)">
       <defs>
        <path id="DejaVuSans-425" d="M 403 4666 
L 1081 4666 
L 2241 2931 
L 3406 4666 
L 4084 4666 
L 2584 2425 
L 4184 0 
L 3506 0 
L 2194 1984 
L 872 0 
L 191 0 
L 1856 2491 
L 403 4666 
z
" transform="scale(0.015625)"/>
        <path id="DejaVuSans-443" d="M 2059 -325 
Q 1816 -950 1584 -1140 
Q 1353 -1331 966 -1331 
L 506 -1331 
L 506 -850 
L 844 -850 
Q 1081 -850 1212 -737 
Q 1344 -625 1503 -206 
L 1606 56 
L 191 3500 
L 800 3500 
L 1894 763 
L 2988 3500 
L 3597 3500 
L 2059 -325 
z
" transform="scale(0.015625)"/>
        <path id="DejaVuSans-447" d="M 2625 0 
L 2625 1472 
L 1553 1472 
Q 1075 1472 756 1769 
Q 469 2038 469 2613 
L 469 3500 
L 1044 3500 
L 1044 2666 
Q 1044 2300 1206 2116 
Q 1372 1931 1697 1931 
L 2625 1931 
L 2625 3500 
L 3200 3500 
L 3200 0 
L 2625 0 
z
" transform="scale(0.015625)"/>
       </defs>
       <use xlink:href="#DejaVuSans-425"/>
       <use xlink:href="#DejaVuSans-438" x="68.505859"/>
       <use xlink:href="#DejaVuSans-440" x="133.496094"/>
       <use xlink:href="#DejaVuSans-443" x="196.972656"/>
       <use xlink:href="#DejaVuSans-440" x="256.152344"/>
       <use xlink:href="#DejaVuSans-433" x="319.628906"/>
       <use xlink:href="#DejaVuSans-438" x="372.167969"/>
       <use xlink:href="#DejaVuSans-447" x="437.158203"/>
       <use xlink:href="#DejaVuSans-435" x="496.240234"/>
       <use xlink:href="#DejaVuSans-441" x="557.763672"/>
       <use xlink:href="#DejaVuSans-43a" x="612.744141"/>
       <use xlink:href="#DejaVuSans-43e" x="673.144531"/>
       <use xlink:href="#DejaVuSans-435" x="734.326172"/>
      </g>
      <!--  отделение -->
      <g transform="translate(441.268862 199.31625) scale(0.1 -0.1)">
       <use xlink:href="#DejaVuSans-20"/>
       <use xlink:href="#DejaVuSans-43e" x="31.787109"/>
       <use xlink:href="#DejaVuSans-442" x="92.96875"/>
       <use xlink:href="#DejaVuSans-434" x="151.220703"/>
       <use xlink:href="#DejaVuSans-435" x="220.361328"/>
       <use xlink:href="#DejaVuSans-43b" x="281.884766"/>
       <use xlink:href="#DejaVuSans-435" x="345.800781"/>
       <use xlink:href="#DejaVuSans-43d" x="407.324219"/>
       <use xlink:href="#DejaVuSans-438" x="472.705078"/>
       <use xlink:href="#DejaVuSans-435" x="537.695312"/>
      </g>
     </g>
    </g>
    <g id="xtick_6">
     <g id="line2d_6">
      <g>
       <use xlink:href="#m983572748e" x="566.887723" y="173.52" style="stroke: #000000; stroke-width: 0.8"/>
      </g>
     </g>
     <g id="text_6">
      <!-- Отделение -->
      <g transform="translate(537.638504 188.118438) scale(0.1 -0.1)">
       <use xlink:href="#DejaVuSans-41e"/>
       <use xlink:href="#DejaVuSans-442" x="78.710938"/>
       <use xlink:href="#DejaVuSans-434" x="136.962891"/>
       <use xlink:href="#DejaVuSans-435" x="206.103516"/>
       <use xlink:href="#DejaVuSans-43b" x="267.626953"/>
       <use xlink:href="#DejaVuSans-435" x="331.542969"/>
       <use xlink:href="#DejaVuSans-43d" x="393.066406"/>
       <use xlink:href="#DejaVuSans-438" x="458.447266"/>
       <use xlink:href="#DejaVuSans-435" x="523.4375"/>
      </g>
      <!--  физиотерапии -->
      <g transform="translate(526.812723 199.31625) scale(0.1 -0.1)">
       <defs>
        <path id="DejaVuSans-437" d="M 2206 1888 
Q 2594 1813 2809 1584 
Q 3025 1356 3025 1019 
Q 3025 478 2622 193 
Q 2219 -91 1475 -91 
Q 1225 -91 961 -47 
Q 697 -3 416 84 
L 416 619 
Q 638 503 903 445 
Q 1169 388 1459 388 
Q 1931 388 2195 563 
Q 2459 738 2459 1019 
Q 2459 1294 2225 1461 
Q 1991 1628 1563 1628 
L 1100 1628 
L 1100 2103 
L 1584 2103 
Q 1947 2103 2158 2242 
Q 2369 2381 2369 2600 
Q 2369 2800 2151 2944 
Q 1934 3088 1563 3088 
Q 1341 3088 1089 3047 
Q 838 3006 534 2916 
L 534 3438 
Q 841 3513 1106 3550 
Q 1372 3588 1609 3588 
Q 2222 3588 2576 3342 
Q 2931 3097 2931 2656 
Q 2931 2366 2743 2164 
Q 2556 1963 2206 1888 
z
" transform="scale(0.015625)"/>
        <path id="DejaVuSans-43f" d="M 3603 3500 
L 3603 0 
L 3025 0 
L 3025 3041 
L 1159 3041 
L 1159 0 
L 581 0 
L 581 3500 
L 3603 3500 
z
" transform="scale(0.015625)"/>
       </defs>
       <use xlink:href="#DejaVuSans-20"/>
       <use xlink:href="#DejaVuSans-444" x="31.787109"/>
       <use xlink:href="#DejaVuSans-438" x="117.285156"/>
       <use xlink:href="#DejaVuSans-437" x="182.275391"/>
       <use xlink:href="#DejaVuSans-438" x="235.449219"/>
       <use xlink:href="#DejaVuSans-43e" x="300.439453"/>
       <use xlink:href="#DejaVuSans-442" x="361.621094"/>
       <use xlink:href="#DejaVuSans-435" x="419.873047"/>
       <use xlink:href="#DejaVuSans-440" x="481.396484"/>
       <use xlink:href="#DejaVuSans-430" x="544.873047"/>
       <use xlink:href="#DejaVuSans-43f" x="606.152344"/>
       <use xlink:href="#DejaVuSans-438" x="671.533203"/>
       <use xlink:href="#DejaVuSans-438" x="736.523438"/>
      </g>
     </g>
    </g>
    <g id="xtick_7">
     <g id="line2d_7">
      <g>
       <use xlink:href="#m983572748e" x="662.544866" y="173.52" style="stroke: #000000; stroke-width: 0.8"/>
      </g>
     </g>
     <g id="text_7">
      <!-- Отделение -->
      <g transform="translate(633.295647 188.118438) scale(0.1 -0.1)">
       <use xlink:href="#DejaVuSans-41e"/>
       <use xlink:href="#DejaVuSans-442" x="78.710938"/>
       <use xlink:href="#DejaVuSans-434" x="136.962891"/>
       <use xlink:href="#DejaVuSans-435" x="206.103516"/>
       <use xlink:href="#DejaVuSans-43b" x="267.626953"/>
       <use xlink:href="#DejaVuSans-435" x="331.542969"/>
       <use xlink:href="#DejaVuSans-43d" x="393.066406"/>
       <use xlink:href="#DejaVuSans-438" x="458.447266"/>
       <use xlink:href="#DejaVuSans-435" x="523.4375"/>
      </g>
      <!--  реабилитации -->
      <g transform="translate(622.98471 199.520625) scale(0.1 -0.1)">
       <defs>
        <path id="DejaVuSans-431" d="M 1991 3584 
Q 2741 3584 3169 3096 
Q 3597 2609 3597 1747 
Q 3597 888 3169 398 
Q 2741 -91 1991 -91 
Q 1238 -91 822 384 
Q 406 859 384 1747 
L 366 2463 
Q 350 2834 350 2963 
Q 350 3463 531 3831 
Q 816 4409 1308 4659 
Q 1800 4909 2625 4916 
Q 3006 4919 3175 4972 
L 3334 4516 
Q 3181 4453 3041 4450 
L 2259 4397 
Q 1866 4369 1628 4231 
Q 1006 3866 947 3388 
L 925 3213 
Q 1331 3584 1991 3584 
z
M 1991 3097 
Q 1528 3097 1259 2736 
Q 991 2375 991 1747 
Q 991 1119 1258 758 
Q 1525 397 1991 397 
Q 2450 397 2719 759 
Q 2988 1122 2988 1747 
Q 2988 2369 2719 2733 
Q 2450 3097 1991 3097 
z
" transform="scale(0.015625)"/>
       </defs>
       <use xlink:href="#DejaVuSans-20"/>
       <use xlink:href="#DejaVuSans-440" x="31.787109"/>
       <use xlink:href="#DejaVuSans-435" x="95.263672"/>
       <use xlink:href="#DejaVuSans-430" x="156.787109"/>
       <use xlink:href="#DejaVuSans-431" x="218.066406"/>
       <use xlink:href="#DejaVuSans-438" x="279.736328"/>
       <use xlink:href="#DejaVuSans-43b" x="344.726562"/>
       <use xlink:href="#DejaVuSans-438" x="408.642578"/>
       <use xlink:href="#DejaVuSans-442" x="473.632812"/>
       <use xlink:href="#DejaVuSans-430" x="531.884766"/>
       <use xlink:href="#DejaVuSans-446" x="593.164062"/>
       <use xlink:href="#DejaVuSans-438" x="661.230469"/>
       <use xlink:href="#DejaVuSans-438" x="726.220703"/>
      </g>
     </g>
    </g>
   </g>
   <g id="matplotlib.axis_2">
    <g id="ytick_1">
     <g id="line2d_8">
      <defs>
       <path id="m1c519769f9" d="M 0 0 
L -3.5 0 
" style="stroke: #000000; stroke-width: 0.8"/>
      </defs>
      <g>
       <use xlink:href="#m1c519769f9" x="40.773438" y="163.125" style="stroke: #000000; stroke-width: 0.8"/>
      </g>
     </g>
     <g id="text_8">
      <!-- 35 -->
      <g transform="translate(21.048437 166.924219) scale(0.1 -0.1)">
       <defs>
        <path id="DejaVuSans-33" d="M 2597 2516 
Q 3050 2419 3304 2112 
Q 3559 1806 3559 1356 
Q 3559 666 3084 287 
Q 2609 -91 1734 -91 
Q 1441 -91 1130 -33 
Q 819 25 488 141 
L 488 750 
Q 750 597 1062 519 
Q 1375 441 1716 441 
Q 2309 441 2620 675 
Q 2931 909 2931 1356 
Q 2931 1769 2642 2001 
Q 2353 2234 1838 2234 
L 1294 2234 
L 1294 2753 
L 1863 2753 
Q 2328 2753 2575 2939 
Q 2822 3125 2822 3475 
Q 2822 3834 2567 4026 
Q 2313 4219 1838 4219 
Q 1578 4219 1281 4162 
Q 984 4106 628 3988 
L 628 4550 
Q 988 4650 1302 4700 
Q 1616 4750 1894 4750 
Q 2613 4750 3031 4423 
Q 3450 4097 3450 3541 
Q 3450 3153 3228 2886 
Q 3006 2619 2597 2516 
z
" transform="scale(0.015625)"/>
        <path id="DejaVuSans-35" d="M 691 4666 
L 3169 4666 
L 3169 4134 
L 1269 4134 
L 1269 2991 
Q 1406 3038 1543 3061 
Q 1681 3084 1819 3084 
Q 2600 3084 3056 2656 
Q 3513 2228 3513 1497 
Q 3513 744 3044 326 
Q 2575 -91 1722 -91 
Q 1428 -91 1123 -41 
Q 819 9 494 109 
L 494 744 
Q 775 591 1075 516 
Q 1375 441 1709 441 
Q 2250 441 2565 725 
Q 2881 1009 2881 1497 
Q 2881 1984 2565 2268 
Q 2250 2553 1709 2553 
Q 1456 2553 1204 2497 
Q 953 2441 691 2322 
L 691 4666 
z
" transform="scale(0.015625)"/>
       </defs>
       <use xlink:href="#DejaVuSans-33"/>
       <use xlink:href="#DejaVuSans-35" x="63.623047"/>
      </g>
     </g>
    </g>
    <g id="ytick_2">
     <g id="line2d_9">
      <g>
       <use xlink:href="#m1c519769f9" x="40.773438" y="142.335" style="stroke: #000000; stroke-width: 0.8"/>
      </g>
     </g>
     <g id="text_9">
      <!-- 36 -->
      <g transform="translate(21.048437 146.134219) scale(0.1 -0.1)">
       <defs>
        <path id="DejaVuSans-36" d="M 2113 2584 
Q 1688 2584 1439 2293 
Q 1191 2003 1191 1497 
Q 1191 994 1439 701 
Q 1688 409 2113 409 
Q 2538 409 2786 701 
Q 3034 994 3034 1497 
Q 3034 2003 2786 2293 
Q 2538 2584 2113 2584 
z
M 3366 4563 
L 3366 3988 
Q 3128 4100 2886 4159 
Q 2644 4219 2406 4219 
Q 1781 4219 1451 3797 
Q 1122 3375 1075 2522 
Q 1259 2794 1537 2939 
Q 1816 3084 2150 3084 
Q 2853 3084 3261 2657 
Q 3669 2231 3669 1497 
Q 3669 778 3244 343 
Q 2819 -91 2113 -91 
Q 1303 -91 875 529 
Q 447 1150 447 2328 
Q 447 3434 972 4092 
Q 1497 4750 2381 4750 
Q 2619 4750 2861 4703 
Q 3103 4656 3366 4563 
z
" transform="scale(0.015625)"/>
       </defs>
       <use xlink:href="#DejaVuSans-33"/>
       <use xlink:href="#DejaVuSans-36" x="63.623047"/>
      </g>
     </g>
    </g>
    <g id="ytick_3">
     <g id="line2d_10">
      <g>
       <use xlink:href="#m1c519769f9" x="40.773438" y="121.545" style="stroke: #000000; stroke-width: 0.8"/>
      </g>
     </g>
     <g id="text_10">
      <!-- 37 -->
      <g transform="translate(21.048437 125.344219) scale(0.1 -0.1)">
       <defs>
        <path id="DejaVuSans-37" d="M 525 4666 
L 3525 4666 
L 3525 4397 
L 1831 0 
L 1172 0 
L 2766 4134 
L 525 4134 
L 525 4666 
z
" transform="scale(0.015625)"/>
       </defs>
       <use xlink:href="#DejaVuSans-33"/>
       <use xlink:href="#DejaVuSans-37" x="63.623047"/>
      </g>
     </g>
    </g>
    <g id="ytick_4">
     <g id="line2d_11">
      <g>
       <use xlink:href="#m1c519769f9" x="40.773438" y="100.755" style="stroke: #000000; stroke-width: 0.8"/>
      </g>
     </g>
     <g id="text_11">
      <!-- 38 -->
      <g transform="translate(21.048437 104.554219) scale(0.1 -0.1)">
       <defs>
        <path id="DejaVuSans-38" d="M 2034 2216 
Q 1584 2216 1326 1975 
Q 1069 1734 1069 1313 
Q 1069 891 1326 650 
Q 1584 409 2034 409 
Q 2484 409 2743 651 
Q 3003 894 3003 1313 
Q 3003 1734 2745 1975 
Q 2488 2216 2034 2216 
z
M 1403 2484 
Q 997 2584 770 2862 
Q 544 3141 544 3541 
Q 544 4100 942 4425 
Q 1341 4750 2034 4750 
Q 2731 4750 3128 4425 
Q 3525 4100 3525 3541 
Q 3525 3141 3298 2862 
Q 3072 2584 2669 2484 
Q 3125 2378 3379 2068 
Q 3634 1759 3634 1313 
Q 3634 634 3220 271 
Q 2806 -91 2034 -91 
Q 1263 -91 848 271 
Q 434 634 434 1313 
Q 434 1759 690 2068 
Q 947 2378 1403 2484 
z
M 1172 3481 
Q 1172 3119 1398 2916 
Q 1625 2713 2034 2713 
Q 2441 2713 2670 2916 
Q 2900 3119 2900 3481 
Q 2900 3844 2670 4047 
Q 2441 4250 2034 4250 
Q 1625 4250 1398 4047 
Q 1172 3844 1172 3481 
z
" transform="scale(0.015625)"/>
       </defs>
       <use xlink:href="#DejaVuSans-33"/>
       <use xlink:href="#DejaVuSans-38" x="63.623047"/>
      </g>
     </g>
    </g>
    <g id="ytick_5">
     <g id="line2d_12">
      <g>
       <use xlink:href="#m1c519769f9" x="40.773438" y="79.965" style="stroke: #000000; stroke-width: 0.8"/>
      </g>
     </g>
     <g id="text_12">
      <!-- 39 -->
      <g transform="translate(21.048437 83.764219) scale(0.1 -0.1)">
       <defs>
        <path id="DejaVuSans-39" d="M 703 97 
L 703 672 
Q 941 559 1184 500 
Q 1428 441 1663 441 
Q 2288 441 2617 861 
Q 2947 1281 2994 2138 
Q 2813 1869 2534 1725 
Q 2256 1581 1919 1581 
Q 1219 1581 811 2004 
Q 403 2428 403 3163 
Q 403 3881 828 4315 
Q 1253 4750 1959 4750 
Q 2769 4750 3195 4129 
Q 3622 3509 3622 2328 
Q 3622 1225 3098 567 
Q 2575 -91 1691 -91 
Q 1453 -91 1209 -44 
Q 966 3 703 97 
z
M 1959 2075 
Q 2384 2075 2632 2365 
Q 2881 2656 2881 3163 
Q 2881 3666 2632 3958 
Q 2384 4250 1959 4250 
Q 1534 4250 1286 3958 
Q 1038 3666 1038 3163 
Q 1038 2656 1286 2365 
Q 1534 2075 1959 2075 
z
" transform="scale(0.015625)"/>
       </defs>
       <use xlink:href="#DejaVuSans-33"/>
       <use xlink:href="#DejaVuSans-39" x="63.623047"/>
      </g>
     </g>
    </g>
    <g id="ytick_6">
     <g id="line2d_13">
      <g>
       <use xlink:href="#m1c519769f9" x="40.773438" y="59.175" style="stroke: #000000; stroke-width: 0.8"/>
      </g>
     </g>
     <g id="text_13">
      <!-- 40 -->
      <g transform="translate(21.048437 62.974219) scale(0.1 -0.1)">
       <defs>
        <path id="DejaVuSans-34" d="M 2419 4116 
L 825 1625 
L 2419 1625 
L 2419 4116 
z
M 2253 4666 
L 3047 4666 
L 3047 1625 
L 3713 1625 
L 3713 1100 
L 3047 1100 
L 3047 0 
L 2419 0 
L 2419 1100 
L 313 1100 
L 313 1709 
L 2253 4666 
z
" transform="scale(0.015625)"/>
        <path id="DejaVuSans-30" d="M 2034 4250 
Q 1547 4250 1301 3770 
Q 1056 3291 1056 2328 
Q 1056 1369 1301 889 
Q 1547 409 2034 409 
Q 2525 409 2770 889 
Q 3016 1369 3016 2328 
Q 3016 3291 2770 3770 
Q 2525 4250 2034 4250 
z
M 2034 4750 
Q 2819 4750 3233 4129 
Q 3647 3509 3647 2328 
Q 3647 1150 3233 529 
Q 2819 -91 2034 -91 
Q 1250 -91 836 529 
Q 422 1150 422 2328 
Q 422 3509 836 4129 
Q 1250 4750 2034 4750 
z
" transform="scale(0.015625)"/>
       </defs>
       <use xlink:href="#DejaVuSans-34"/>
       <use xlink:href="#DejaVuSans-30" x="63.623047"/>
      </g>
     </g>
    </g>
    <g id="ytick_7">
     <g id="line2d_14">
      <g>
       <use xlink:href="#m1c519769f9" x="40.773438" y="38.385" style="stroke: #000000; stroke-width: 0.8"/>
      </g>
     </g>
     <g id="text_14">
      <!-- 41 -->
      <g transform="translate(21.048437 42.184219) scale(0.1 -0.1)">
       <defs>
        <path id="DejaVuSans-31" d="M 794 531 
L 1825 531 
L 1825 4091 
L 703 3866 
L 703 4441 
L 1819 4666 
L 2450 4666 
L 2450 531 
L 3481 531 
L 3481 0 
L 794 0 
L 794 531 
z
" transform="scale(0.015625)"/>
       </defs>
       <use xlink:href="#DejaVuSans-34"/>
       <use xlink:href="#DejaVuSans-31" x="63.623047"/>
      </g>
     </g>
    </g>
    <g id="ytick_8">
     <g id="line2d_15">
      <g>
       <use xlink:href="#m1c519769f9" x="40.773438" y="17.595" style="stroke: #000000; stroke-width: 0.8"/>
      </g>
     </g>
     <g id="text_15">
      <!-- 42 -->
      <g transform="translate(21.048437 21.394219) scale(0.1 -0.1)">
       <defs>
        <path id="DejaVuSans-32" d="M 1228 531 
L 3431 531 
L 3431 0 
L 469 0 
L 469 531 
Q 828 903 1448 1529 
Q 2069 2156 2228 2338 
Q 2531 2678 2651 2914 
Q 2772 3150 2772 3378 
Q 2772 3750 2511 3984 
Q 2250 4219 1831 4219 
Q 1534 4219 1204 4116 
Q 875 4013 500 3803 
L 500 4441 
Q 881 4594 1212 4672 
Q 1544 4750 1819 4750 
Q 2544 4750 2975 4387 
Q 3406 4025 3406 3419 
Q 3406 3131 3298 2873 
Q 3191 2616 2906 2266 
Q 2828 2175 2409 1742 
Q 1991 1309 1228 531 
z
" transform="scale(0.015625)"/>
       </defs>
       <use xlink:href="#DejaVuSans-34"/>
       <use xlink:href="#DejaVuSans-32" x="63.623047"/>
      </g>
     </g>
    </g>
    <g id="text_16">
     <!-- Температура больного, ℃ -->
     <g transform="translate(14.96875 159.639688) rotate(-90) scale(0.1 -0.1)">
      <defs>
       <path id="DejaVuSans-422" d="M -19 4666 
L 3928 4666 
L 3928 4134 
L 2272 4134 
L 2272 0 
L 1638 0 
L 1638 4134 
L -19 4134 
L -19 4666 
z
" transform="scale(0.015625)"/>
       <path id="DejaVuSans-44c" d="M 2781 1038 
Q 2781 1319 2576 1466 
Q 2372 1613 1978 1613 
L 1159 1613 
L 1159 459 
L 1978 459 
Q 2372 459 2576 607 
Q 2781 756 2781 1038 
z
M 581 3500 
L 1159 3500 
L 1159 2072 
L 2003 2072 
Q 2672 2072 3033 1817 
Q 3394 1563 3394 1038 
Q 3394 513 3033 256 
Q 2672 0 2003 0 
L 581 0 
L 581 3500 
z
" transform="scale(0.015625)"/>
       <path id="DejaVuSans-2c" d="M 750 794 
L 1409 794 
L 1409 256 
L 897 -744 
L 494 -744 
L 750 256 
L 750 794 
z
" transform="scale(0.015625)"/>
       <path id="DejaVuSans-2103" d="M 1600 4347 
Q 1350 4347 1178 4173 
Q 1006 4000 1006 3750 
Q 1006 3503 1178 3333 
Q 1350 3163 1600 3163 
Q 1850 3163 2022 3333 
Q 2194 3503 2194 3750 
Q 2194 3997 2020 4172 
Q 1847 4347 1600 4347 
z
M 1600 4750 
Q 1800 4750 1984 4673 
Q 2169 4597 2303 4453 
Q 2447 4313 2519 4134 
Q 2591 3956 2591 3750 
Q 2591 3338 2302 3052 
Q 2013 2766 1594 2766 
Q 1172 2766 890 3047 
Q 609 3328 609 3750 
Q 609 4169 896 4459 
Q 1184 4750 1600 4750 
z
M 6738 4306 
L 6738 3641 
Q 6419 3938 6058 4084 
Q 5697 4231 5291 4231 
Q 4491 4231 4066 3742 
Q 3641 3253 3641 2328 
Q 3641 1406 4066 917 
Q 4491 428 5291 428 
Q 5697 428 6058 575 
Q 6419 722 6738 1019 
L 6738 359 
Q 6407 134 6036 21 
Q 5666 -91 5254 -91 
Q 4194 -91 3584 557 
Q 2975 1206 2975 2328 
Q 2975 3453 3584 4101 
Q 4194 4750 5254 4750 
Q 5672 4750 6042 4639 
Q 6413 4528 6738 4306 
z
" transform="scale(0.015625)"/>
      </defs>
      <use xlink:href="#DejaVuSans-422"/>
      <use xlink:href="#DejaVuSans-435" x="61.083984"/>
      <use xlink:href="#DejaVuSans-43c" x="122.607422"/>
      <use xlink:href="#DejaVuSans-43f" x="198.046875"/>
      <use xlink:href="#DejaVuSans-435" x="263.427734"/>
      <use xlink:href="#DejaVuSans-440" x="324.951172"/>
      <use xlink:href="#DejaVuSans-430" x="388.427734"/>
      <use xlink:href="#DejaVuSans-442" x="449.707031"/>
      <use xlink:href="#DejaVuSans-443" x="507.958984"/>
      <use xlink:href="#DejaVuSans-440" x="567.138672"/>
      <use xlink:href="#DejaVuSans-430" x="630.615234"/>
      <use xlink:href="#DejaVuSans-20" x="691.894531"/>
      <use xlink:href="#DejaVuSans-431" x="723.681641"/>
      <use xlink:href="#DejaVuSans-43e" x="785.351562"/>
      <use xlink:href="#DejaVuSans-43b" x="846.533203"/>
      <use xlink:href="#DejaVuSans-44c" x="910.449219"/>
      <use xlink:href="#DejaVuSans-43d" x="969.384766"/>
      <use xlink:href="#DejaVuSans-43e" x="1034.765625"/>
      <use xlink:href="#DejaVuSans-433" x="1095.947266"/>
      <use xlink:href="#DejaVuSans-43e" x="1148.486328"/>
      <use xlink:href="#DejaVuSans-2c" x="1209.667969"/>
      <use xlink:href="#DejaVuSans-20" x="1241.455078"/>
      <use xlink:href="#DejaVuSans-2103" x="1273.242188"/>
     </g>
    </g>
   </g>
   <g id="LineCollection_1">
    <path d="M 76.644866 94.485987 
L 100.559152 94.485987 
" clip-path="url(#p09730ce46d)" style="fill: none; stroke: #1f77b4; stroke-width: 1.5"/>
    <path d="M 172.302009 80.098229 
L 196.216295 80.098229 
" clip-path="url(#p09730ce46d)" style="fill: none; stroke: #1f77b4; stroke-width: 1.5"/>
    <path d="M 267.959152 49.323892 
L 291.873438 49.323892 
" clip-path="url(#p09730ce46d)" style="fill: none; stroke: #1f77b4; stroke-width: 1.5"/>
    <path d="M 363.616295 28.153092 
L 387.53058 28.153092 
" clip-path="url(#p09730ce46d)" style="fill: none; stroke: #1f77b4; stroke-width: 1.5"/>
    <path d="M 459.273438 31.895856 
L 483.187723 31.895856 
" clip-path="url(#p09730ce46d)" style="fill: none; stroke: #1f77b4; stroke-width: 1.5"/>
    <path d="M 554.93058 92.959679 
L 578.844866 92.959679 
" clip-path="url(#p09730ce46d)" style="fill: none; stroke: #1f77b4; stroke-width: 1.5"/>
    <path d="M 650.587723 116.834934 
L 674.502009 116.834934 
" clip-path="url(#p09730ce46d)" style="fill: none; stroke: #1f77b4; stroke-width: 1.5"/>
   </g>
   <g id="LineCollection_2">
    <path d="M 76.644866 154.088667 
L 100.559152 154.088667 
" clip-path="url(#p09730ce46d)" style="fill: none; stroke: #1f77b4; stroke-width: 1.5"/>
    <path d="M 172.302009 154.083308 
L 196.216295 154.083308 
" clip-path="url(#p09730ce46d)" style="fill: none; stroke: #1f77b4; stroke-width: 1.5"/>
    <path d="M 267.959152 100.199443 
L 291.873438 100.199443 
" clip-path="url(#p09730ce46d)" style="fill: none; stroke: #1f77b4; stroke-width: 1.5"/>
    <path d="M 363.616295 164.078336 
L 387.53058 164.078336 
" clip-path="url(#p09730ce46d)" style="fill: none; stroke: #1f77b4; stroke-width: 1.5"/>
    <path d="M 459.273438 108.841232 
L 483.187723 108.841232 
" clip-path="url(#p09730ce46d)" style="fill: none; stroke: #1f77b4; stroke-width: 1.5"/>
    <path d="M 554.93058 161.083039 
L 578.844866 161.083039 
" clip-path="url(#p09730ce46d)" style="fill: none; stroke: #1f77b4; stroke-width: 1.5"/>
    <path d="M 650.587723 138.574551 
L 674.502009 138.574551 
" clip-path="url(#p09730ce46d)" style="fill: none; stroke: #1f77b4; stroke-width: 1.5"/>
   </g>
   <g id="LineCollection_3">
    <path d="M 88.602009 154.088667 
L 88.602009 94.485987 
" clip-path="url(#p09730ce46d)" style="fill: none; stroke: #1f77b4; stroke-width: 1.5"/>
    <path d="M 184.259152 154.083308 
L 184.259152 80.098229 
" clip-path="url(#p09730ce46d)" style="fill: none; stroke: #1f77b4; stroke-width: 1.5"/>
    <path d="M 279.916295 100.199443 
L 279.916295 49.323892 
" clip-path="url(#p09730ce46d)" style="fill: none; stroke: #1f77b4; stroke-width: 1.5"/>
    <path d="M 375.573438 164.078336 
L 375.573438 28.153092 
" clip-path="url(#p09730ce46d)" style="fill: none; stroke: #1f77b4; stroke-width: 1.5"/>
    <path d="M 471.23058 108.841232 
L 471.23058 31.895856 
" clip-path="url(#p09730ce46d)" style="fill: none; stroke: #1f77b4; stroke-width: 1.5"/>
    <path d="M 566.887723 161.083039 
L 566.887723 92.959679 
" clip-path="url(#p09730ce46d)" style="fill: none; stroke: #1f77b4; stroke-width: 1.5"/>
    <path d="M 662.544866 138.574551 
L 662.544866 116.834934 
" clip-path="url(#p09730ce46d)" style="fill: none; stroke: #1f77b4; stroke-width: 1.5"/>
   </g>
   <g id="line2d_16">
    <path d="M 40.773438 106.846204 
L 710.373438 106.846204 
" clip-path="url(#p09730ce46d)" style="fill: none; stroke-dasharray: 5.55,2.4; stroke-dashoffset: 0; stroke: #808080; stroke-width: 1.5"/>
   </g>
   <g id="line2d_17">
    <path d="M 40.773438 129.861 
L 710.373438 129.861 
" clip-path="url(#p09730ce46d)" style="fill: none; stroke-dasharray: 5.55,2.4; stroke-dashoffset: 0; stroke: #008000; stroke-width: 1.5"/>
   </g>
   <g id="patch_3">
    <path d="M 40.773438 173.52 
L 40.773438 7.2 
" style="fill: none; stroke: #000000; stroke-width: 0.8; stroke-linejoin: miter; stroke-linecap: square"/>
   </g>
   <g id="patch_4">
    <path d="M 710.373438 173.52 
L 710.373438 7.2 
" style="fill: none; stroke: #000000; stroke-width: 0.8; stroke-linejoin: miter; stroke-linecap: square"/>
   </g>
   <g id="patch_5">
    <path d="M 40.773438 173.52 
L 710.373438 173.52 
" style="fill: none; stroke: #000000; stroke-width: 0.8; stroke-linejoin: miter; stroke-linecap: square"/>
   </g>
   <g id="patch_6">
    <path d="M 40.773438 7.2 
L 710.373438 7.2 
" style="fill: none; stroke: #000000; stroke-width: 0.8; stroke-linejoin: miter; stroke-linecap: square"/>
   </g>
   <g id="legend_1">
    <g id="patch_7">
     <path d="M 601.79375 55.754063 
L 703.373438 55.754063 
Q 705.373438 55.754063 705.373438 53.754063 
L 705.373438 14.2 
Q 705.373438 12.2 703.373438 12.2 
L 601.79375 12.2 
Q 599.79375 12.2 599.79375 14.2 
L 599.79375 53.754063 
Q 599.79375 55.754063 601.79375 55.754063 
z
" style="fill: #ffffff; opacity: 0.8; stroke: #cccccc; stroke-linejoin: miter"/>
    </g>
    <g id="line2d_18">
     <path d="M 603.79375 26.937188 
L 613.79375 26.937188 
L 623.79375 26.937188 
" style="fill: none; stroke-dasharray: 5.55,2.4; stroke-dashoffset: 0; stroke: #808080; stroke-width: 1.5"/>
    </g>
    <g id="text_17">
     <!-- Средняя t -->
     <g transform="translate(631.79375 23.798438) scale(0.1 -0.1)">
      <defs>
       <path id="DejaVuSans-421" d="M 4122 4306 
L 4122 3641 
Q 3803 3938 3442 4084 
Q 3081 4231 2675 4231 
Q 1875 4231 1450 3742 
Q 1025 3253 1025 2328 
Q 1025 1406 1450 917 
Q 1875 428 2675 428 
Q 3081 428 3442 575 
Q 3803 722 4122 1019 
L 4122 359 
Q 3791 134 3420 21 
Q 3050 -91 2638 -91 
Q 1578 -91 968 557 
Q 359 1206 359 2328 
Q 359 3453 968 4101 
Q 1578 4750 2638 4750 
Q 3056 4750 3426 4639 
Q 3797 4528 4122 4306 
z
" transform="scale(0.015625)"/>
       <path id="DejaVuSans-44f" d="M 1181 2491 
Q 1181 2231 1381 2084 
Q 1581 1938 1953 1938 
L 2728 1938 
L 2728 3041 
L 1953 3041 
Q 1581 3041 1381 2897 
Q 1181 2753 1181 2491 
z
M 363 0 
L 1431 1534 
Q 1069 1616 828 1830 
Q 588 2044 588 2491 
Q 588 2997 923 3248 
Q 1259 3500 1938 3500 
L 3306 3500 
L 3306 0 
L 2728 0 
L 2728 1478 
L 2013 1478 
L 981 0 
L 363 0 
z
" transform="scale(0.015625)"/>
       <path id="DejaVuSans-74" d="M 1172 4494 
L 1172 3500 
L 2356 3500 
L 2356 3053 
L 1172 3053 
L 1172 1153 
Q 1172 725 1289 603 
Q 1406 481 1766 481 
L 2356 481 
L 2356 0 
L 1766 0 
Q 1100 0 847 248 
Q 594 497 594 1153 
L 594 3053 
L 172 3053 
L 172 3500 
L 594 3500 
L 594 4494 
L 1172 4494 
z
" transform="scale(0.015625)"/>
      </defs>
      <use xlink:href="#DejaVuSans-421"/>
      <use xlink:href="#DejaVuSans-440" x="69.824219"/>
      <use xlink:href="#DejaVuSans-435" x="133.300781"/>
      <use xlink:href="#DejaVuSans-434" x="194.824219"/>
      <use xlink:href="#DejaVuSans-43d" x="263.964844"/>
      <use xlink:href="#DejaVuSans-44f" x="329.345703"/>
      <use xlink:href="#DejaVuSans-44f" x="389.501953"/>
      <use xlink:href="#DejaVuSans-20" x="449.658203"/>
      <use xlink:href="#DejaVuSans-74" x="481.445312"/>
     </g>
     <!--  по больнице -->
     <g transform="translate(631.79375 34.99625) scale(0.1 -0.1)">
      <use xlink:href="#DejaVuSans-20"/>
      <use xlink:href="#DejaVuSans-43f" x="31.787109"/>
      <use xlink:href="#DejaVuSans-43e" x="97.167969"/>
      <use xlink:href="#DejaVuSans-20" x="158.349609"/>
      <use xlink:href="#DejaVuSans-431" x="190.136719"/>
      <use xlink:href="#DejaVuSans-43e" x="251.806641"/>
      <use xlink:href="#DejaVuSans-43b" x="312.988281"/>
      <use xlink:href="#DejaVuSans-44c" x="376.904297"/>
      <use xlink:href="#DejaVuSans-43d" x="435.839844"/>
      <use xlink:href="#DejaVuSans-438" x="501.220703"/>
      <use xlink:href="#DejaVuSans-446" x="566.210938"/>
      <use xlink:href="#DejaVuSans-435" x="634.277344"/>
     </g>
    </g>
    <g id="line2d_19">
     <path d="M 603.79375 46.174375 
L 613.79375 46.174375 
L 623.79375 46.174375 
" style="fill: none; stroke-dasharray: 5.55,2.4; stroke-dashoffset: 0; stroke: #008000; stroke-width: 1.5"/>
    </g>
    <g id="text_18">
     <!-- 36.6 ℃ -->
     <g transform="translate(631.79375 49.674375) scale(0.1 -0.1)">
      <defs>
       <path id="DejaVuSans-2e" d="M 684 794 
L 1344 794 
L 1344 0 
L 684 0 
L 684 794 
z
" transform="scale(0.015625)"/>
      </defs>
      <use xlink:href="#DejaVuSans-33"/>
      <use xlink:href="#DejaVuSans-36" x="63.623047"/>
      <use xlink:href="#DejaVuSans-2e" x="127.246094"/>
      <use xlink:href="#DejaVuSans-36" x="159.033203"/>
      <use xlink:href="#DejaVuSans-20" x="222.65625"/>
      <use xlink:href="#DejaVuSans-2103" x="254.443359"/>
     </g>
    </g>
   </g>
  </g>
 </g>
 <defs>
  <clipPath id="p09730ce46d">
   <rect x="40.773438" y="7.2" width="669.6" height="166.32"/>
  </clipPath>
 </defs>
</svg>
