<?xml version="1.0" encoding="utf-8" standalone="no"?>
<!DOCTYPE svg PUBLIC "-//W3C//DTD SVG 1.1//EN"
  "http://www.w3.org/Graphics/SVG/1.1/DTD/svg11.dtd">
<svg xmlns:xlink="http://www.w3.org/1999/xlink" width="740.329062pt" height="212.599531pt" viewBox="0 0 740.329062 212.599531" xmlns="http://www.w3.org/2000/svg" version="1.1">
 <metadata>
  <rdf:RDF xmlns:dc="http://purl.org/dc/elements/1.1/" xmlns:cc="http://creativecommons.org/ns#" xmlns:rdf="http://www.w3.org/1999/02/22-rdf-syntax-ns#">
   <cc:Work>
    <dc:type rdf:resource="http://purl.org/dc/dcmitype/StillImage"/>
    <dc:date>2024-12-11T09:59:55.718452</dc:date>
    <dc:format>image/svg+xml</dc:format>
    <dc:creator>
     <cc:Agent>
      <dc:title>Matplotlib v3.8.0, https://matplotlib.org/</dc:title>
     </cc:Agent>
    </dc:creator>
   </cc:Work>
  </rdf:RDF>
 </metadata>
 <defs>
  <style type="text/css">*{stroke-linejoin: round; stroke-linecap: butt}</style>
 </defs>
 <g id="figure_1">
  <g id="patch_1">
   <path d="M 0 212.599531 
L 740.329062 212.599531 
L 740.329062 0 
L 0 0 
z
" style="fill: #ffffff"/>
  </g>
  <g id="axes_1">
   <g id="patch_2">
    <path d="M 63.529063 177.319219 
L 733.129063 177.319219 
L 733.129063 10.999219 
L 63.529063 10.999219 
z
" style="fill: #ffffff"/>
   </g>
   <g id="patch_3">
    <path d="M 93.965426 94.159219 
L 165.580399 94.159219 
L 165.580399 146.881935 
L 93.965426 146.881935 
z
" clip-path="url(#p8acecf907d)" style="fill: #998ec3"/>
   </g>
   <g id="patch_4">
    <path d="M 183.484143 94.159219 
L 255.099116 94.159219 
L 255.099116 127.645955 
L 183.484143 127.645955 
z
" clip-path="url(#p8acecf907d)" style="fill: #998ec3"/>
   </g>
   <g id="patch_5">
    <path d="M 273.002859 94.159219 
L 344.617833 94.159219 
L 344.617833 16.589842 
L 273.002859 16.589842 
z
" clip-path="url(#p8acecf907d)" style="fill: #f1a340"/>
   </g>
   <g id="patch_6">
    <path d="M 362.521576 94.159219 
L 434.136549 94.159219 
L 434.136549 34.201349 
L 362.521576 34.201349 
z
" clip-path="url(#p8acecf907d)" style="fill: #f1a340"/>
   </g>
   <g id="patch_7">
    <path d="M 452.040292 94.159219 
L 523.655266 94.159219 
L 523.655266 18.123938 
L 452.040292 18.123938 
z
" clip-path="url(#p8acecf907d)" style="fill: #f1a340"/>
   </g>
   <g id="patch_8">
    <path d="M 541.559009 94.159219 
L 613.173982 94.159219 
L 613.173982 118.104803 
L 541.559009 118.104803 
z
" clip-path="url(#p8acecf907d)" style="fill: #998ec3"/>
   </g>
   <g id="patch_9">
    <path d="M 631.077726 94.159219 
L 702.692699 94.159219 
L 702.692699 150.088497 
L 631.077726 150.088497 
z
" clip-path="url(#p8acecf907d)" style="fill: #998ec3"/>
   </g>
   <g id="patch_10">
    <path d="M 93.965426 94.159219 
L 165.580399 94.159219 
L 165.580399 146.881935 
L 93.965426 146.881935 
z
" clip-path="url(#p8acecf907d)" style="fill: #998ec3"/>
   </g>
   <g id="patch_11">
    <path d="M 183.484143 94.159219 
L 255.099116 94.159219 
L 255.099116 127.645955 
L 183.484143 127.645955 
z
" clip-path="url(#p8acecf907d)" style="fill: #998ec3"/>
   </g>
   <g id="patch_12">
    <path d="M 273.002859 94.159219 
L 344.617833 94.159219 
L 344.617833 16.589842 
L 273.002859 16.589842 
z
" clip-path="url(#p8acecf907d)" style="fill: #f1a340"/>
   </g>
   <g id="patch_13">
    <path d="M 362.521576 94.159219 
L 434.136549 94.159219 
L 434.136549 34.201349 
L 362.521576 34.201349 
z
" clip-path="url(#p8acecf907d)" style="fill: #f1a340"/>
   </g>
   <g id="patch_14">
    <path d="M 452.040292 94.159219 
L 523.655266 94.159219 
L 523.655266 18.123938 
L 452.040292 18.123938 
z
" clip-path="url(#p8acecf907d)" style="fill: #f1a340"/>
   </g>
   <g id="patch_15">
    <path d="M 541.559009 94.159219 
L 613.173982 94.159219 
L 613.173982 118.104803 
L 541.559009 118.104803 
z
" clip-path="url(#p8acecf907d)" style="fill: #998ec3"/>
   </g>
   <g id="patch_16">
    <path d="M 631.077726 94.159219 
L 702.692699 94.159219 
L 702.692699 150.088497 
L 631.077726 150.088497 
z
" clip-path="url(#p8acecf907d)" style="fill: #998ec3"/>
   </g>
   <g id="matplotlib.axis_1">
    <g id="xtick_1">
     <g id="line2d_1">
      <defs>
       <path id="m11a4d89c4a" d="M 0 0 
L 0 3.5 
" style="stroke: #000000; stroke-width: 0.8"/>
      </defs>
      <g>
       <use xlink:href="#m11a4d89c4a" x="129.772913" y="177.319219" style="stroke: #000000; stroke-width: 0.8"/>
      </g>
     </g>
     <g id="text_1">
      <!-- Приемное -->
      <g transform="translate(103.336194 191.917656) scale(0.1 -0.1)">
       <defs>
        <path id="DejaVuSans-41f" d="M 4184 4666 
L 4184 0 
L 3553 0 
L 3553 4134 
L 1259 4134 
L 1259 0 
L 628 0 
L 628 4666 
L 4184 4666 
z
" transform="scale(0.015625)"/>
        <path id="DejaVuSans-440" d="M 1159 525 
L 1159 -1331 
L 581 -1331 
L 581 3500 
L 1159 3500 
L 1159 2969 
Q 1341 3281 1617 3432 
Q 1894 3584 2278 3584 
Q 2916 3584 3314 3078 
Q 3713 2572 3713 1747 
Q 3713 922 3314 415 
Q 2916 -91 2278 -91 
Q 1894 -91 1617 61 
Q 1341 213 1159 525 
z
M 3116 1747 
Q 3116 2381 2855 2742 
Q 2594 3103 2138 3103 
Q 1681 3103 1420 2742 
Q 1159 2381 1159 1747 
Q 1159 1113 1420 752 
Q 1681 391 2138 391 
Q 2594 391 2855 752 
Q 3116 1113 3116 1747 
z
" transform="scale(0.015625)"/>
        <path id="DejaVuSans-438" d="M 3578 3500 
L 3578 0 
L 3006 0 
L 3006 2809 
L 1319 0 
L 581 0 
L 581 3500 
L 1153 3500 
L 1153 697 
L 2838 3500 
L 3578 3500 
z
" transform="scale(0.015625)"/>
        <path id="DejaVuSans-435" d="M 3597 1894 
L 3597 1613 
L 953 1613 
Q 991 1019 1311 708 
Q 1631 397 2203 397 
Q 2534 397 2845 478 
Q 3156 559 3463 722 
L 3463 178 
Q 3153 47 2828 -22 
Q 2503 -91 2169 -91 
Q 1331 -91 842 396 
Q 353 884 353 1716 
Q 353 2575 817 3079 
Q 1281 3584 2069 3584 
Q 2775 3584 3186 3129 
Q 3597 2675 3597 1894 
z
M 3022 2063 
Q 3016 2534 2758 2815 
Q 2500 3097 2075 3097 
Q 1594 3097 1305 2825 
Q 1016 2553 972 2059 
L 3022 2063 
z
" transform="scale(0.015625)"/>
        <path id="DejaVuSans-43c" d="M 581 3500 
L 1422 3500 
L 2416 1156 
L 3413 3500 
L 4247 3500 
L 4247 0 
L 3669 0 
L 3669 2950 
L 2703 672 
L 2128 672 
L 1159 2950 
L 1159 0 
L 581 0 
L 581 3500 
z
" transform="scale(0.015625)"/>
        <path id="DejaVuSans-43d" d="M 581 3500 
L 1159 3500 
L 1159 2072 
L 3025 2072 
L 3025 3500 
L 3603 3500 
L 3603 0 
L 3025 0 
L 3025 1613 
L 1159 1613 
L 1159 0 
L 581 0 
L 581 3500 
z
" transform="scale(0.015625)"/>
        <path id="DejaVuSans-43e" d="M 1959 3097 
Q 1497 3097 1228 2736 
Q 959 2375 959 1747 
Q 959 1119 1226 758 
Q 1494 397 1959 397 
Q 2419 397 2687 759 
Q 2956 1122 2956 1747 
Q 2956 2369 2687 2733 
Q 2419 3097 1959 3097 
z
M 1959 3584 
Q 2709 3584 3137 3096 
Q 3566 2609 3566 1747 
Q 3566 888 3137 398 
Q 2709 -91 1959 -91 
Q 1206 -91 779 398 
Q 353 888 353 1747 
Q 353 2609 779 3096 
Q 1206 3584 1959 3584 
z
" transform="scale(0.015625)"/>
       </defs>
       <use xlink:href="#DejaVuSans-41f"/>
       <use xlink:href="#DejaVuSans-440" x="75.195312"/>
       <use xlink:href="#DejaVuSans-438" x="138.671875"/>
       <use xlink:href="#DejaVuSans-435" x="203.662109"/>
       <use xlink:href="#DejaVuSans-43c" x="265.185547"/>
       <use xlink:href="#DejaVuSans-43d" x="340.625"/>
       <use xlink:href="#DejaVuSans-43e" x="406.005859"/>
       <use xlink:href="#DejaVuSans-435" x="467.1875"/>
      </g>
      <!--  отделение -->
      <g transform="translate(99.811194 203.115469) scale(0.1 -0.1)">
       <defs>
        <path id="DejaVuSans-20" transform="scale(0.015625)"/>
        <path id="DejaVuSans-442" d="M 188 3500 
L 3541 3500 
L 3541 3041 
L 2147 3041 
L 2147 0 
L 1581 0 
L 1581 3041 
L 188 3041 
L 188 3500 
z
" transform="scale(0.015625)"/>
        <path id="DejaVuSans-434" d="M 1384 459 
L 3053 459 
L 3053 3041 
L 1844 3041 
L 1844 2603 
Q 1844 1316 1475 628 
L 1384 459 
z
M 550 459 
Q 834 584 959 850 
Q 1266 1509 1266 2838 
L 1266 3500 
L 3631 3500 
L 3631 459 
L 4091 459 
L 4091 -884 
L 3631 -884 
L 3631 0 
L 794 0 
L 794 -884 
L 334 -884 
L 334 459 
L 550 459 
z
" transform="scale(0.015625)"/>
        <path id="DejaVuSans-43b" d="M 238 0 
L 238 478 
Q 806 566 981 959 
Q 1194 1513 1194 2928 
L 1194 3500 
L 3559 3500 
L 3559 0 
L 2984 0 
L 2984 3041 
L 1769 3041 
L 1769 2694 
Q 1769 1344 1494 738 
Q 1200 91 238 0 
z
" transform="scale(0.015625)"/>
       </defs>
       <use xlink:href="#DejaVuSans-20"/>
       <use xlink:href="#DejaVuSans-43e" x="31.787109"/>
       <use xlink:href="#DejaVuSans-442" x="92.96875"/>
       <use xlink:href="#DejaVuSans-434" x="151.220703"/>
       <use xlink:href="#DejaVuSans-435" x="220.361328"/>
       <use xlink:href="#DejaVuSans-43b" x="281.884766"/>
       <use xlink:href="#DejaVuSans-435" x="345.800781"/>
       <use xlink:href="#DejaVuSans-43d" x="407.324219"/>
       <use xlink:href="#DejaVuSans-438" x="472.705078"/>
       <use xlink:href="#DejaVuSans-435" x="537.695312"/>
      </g>
     </g>
    </g>
    <g id="xtick_2">
     <g id="line2d_2">
      <g>
       <use xlink:href="#m11a4d89c4a" x="219.291629" y="177.319219" style="stroke: #000000; stroke-width: 0.8"/>
      </g>
     </g>
     <g id="text_2">
      <!-- Отделение -->
      <g transform="translate(190.042411 191.917656) scale(0.1 -0.1)">
       <defs>
        <path id="DejaVuSans-41e" d="M 2522 4238 
Q 1834 4238 1429 3725 
Q 1025 3213 1025 2328 
Q 1025 1447 1429 934 
Q 1834 422 2522 422 
Q 3209 422 3611 934 
Q 4013 1447 4013 2328 
Q 4013 3213 3611 3725 
Q 3209 4238 2522 4238 
z
M 2522 4750 
Q 3503 4750 4090 4092 
Q 4678 3434 4678 2328 
Q 4678 1225 4090 567 
Q 3503 -91 2522 -91 
Q 1538 -91 948 565 
Q 359 1222 359 2328 
Q 359 3434 948 4092 
Q 1538 4750 2522 4750 
z
" transform="scale(0.015625)"/>
       </defs>
       <use xlink:href="#DejaVuSans-41e"/>
       <use xlink:href="#DejaVuSans-442" x="78.710938"/>
       <use xlink:href="#DejaVuSans-434" x="136.962891"/>
       <use xlink:href="#DejaVuSans-435" x="206.103516"/>
       <use xlink:href="#DejaVuSans-43b" x="267.626953"/>
       <use xlink:href="#DejaVuSans-435" x="331.542969"/>
       <use xlink:href="#DejaVuSans-43d" x="393.066406"/>
       <use xlink:href="#DejaVuSans-438" x="458.447266"/>
       <use xlink:href="#DejaVuSans-435" x="523.4375"/>
      </g>
      <!--  диагностики -->
      <g transform="translate(183.796317 203.115469) scale(0.1 -0.1)">
       <defs>
        <path id="DejaVuSans-430" d="M 2194 1759 
Q 1497 1759 1228 1600 
Q 959 1441 959 1056 
Q 959 750 1161 570 
Q 1363 391 1709 391 
Q 2188 391 2477 730 
Q 2766 1069 2766 1631 
L 2766 1759 
L 2194 1759 
z
M 3341 1997 
L 3341 0 
L 2766 0 
L 2766 531 
Q 2569 213 2275 61 
Q 1981 -91 1556 -91 
Q 1019 -91 701 211 
Q 384 513 384 1019 
Q 384 1609 779 1909 
Q 1175 2209 1959 2209 
L 2766 2209 
L 2766 2266 
Q 2766 2663 2505 2880 
Q 2244 3097 1772 3097 
Q 1472 3097 1187 3025 
Q 903 2953 641 2809 
L 641 3341 
Q 956 3463 1253 3523 
Q 1550 3584 1831 3584 
Q 2591 3584 2966 3190 
Q 3341 2797 3341 1997 
z
" transform="scale(0.015625)"/>
        <path id="DejaVuSans-433" d="M 581 0 
L 581 3500 
L 3050 3500 
L 3050 3041 
L 1159 3041 
L 1159 0 
L 581 0 
z
" transform="scale(0.015625)"/>
        <path id="DejaVuSans-441" d="M 3122 3366 
L 3122 2828 
Q 2878 2963 2633 3030 
Q 2388 3097 2138 3097 
Q 1578 3097 1268 2742 
Q 959 2388 959 1747 
Q 959 1106 1268 751 
Q 1578 397 2138 397 
Q 2388 397 2633 464 
Q 2878 531 3122 666 
L 3122 134 
Q 2881 22 2623 -34 
Q 2366 -91 2075 -91 
Q 1284 -91 818 406 
Q 353 903 353 1747 
Q 353 2603 823 3093 
Q 1294 3584 2113 3584 
Q 2378 3584 2631 3529 
Q 2884 3475 3122 3366 
z
" transform="scale(0.015625)"/>
        <path id="DejaVuSans-43a" d="M 581 3500 
L 1153 3500 
L 1153 1856 
L 2775 3500 
L 3481 3500 
L 2144 2147 
L 3653 0 
L 3009 0 
L 1769 1766 
L 1153 1141 
L 1153 0 
L 581 0 
L 581 3500 
z
" transform="scale(0.015625)"/>
       </defs>
       <use xlink:href="#DejaVuSans-20"/>
       <use xlink:href="#DejaVuSans-434" x="31.787109"/>
       <use xlink:href="#DejaVuSans-438" x="100.927734"/>
       <use xlink:href="#DejaVuSans-430" x="165.917969"/>
       <use xlink:href="#DejaVuSans-433" x="227.197266"/>
       <use xlink:href="#DejaVuSans-43d" x="279.736328"/>
       <use xlink:href="#DejaVuSans-43e" x="345.117188"/>
       <use xlink:href="#DejaVuSans-441" x="406.298828"/>
       <use xlink:href="#DejaVuSans-442" x="461.279297"/>
       <use xlink:href="#DejaVuSans-438" x="519.53125"/>
       <use xlink:href="#DejaVuSans-43a" x="584.521484"/>
       <use xlink:href="#DejaVuSans-438" x="644.921875"/>
      </g>
     </g>
    </g>
    <g id="xtick_3">
     <g id="line2d_3">
      <g>
       <use xlink:href="#m11a4d89c4a" x="308.810346" y="177.319219" style="stroke: #000000; stroke-width: 0.8"/>
      </g>
     </g>
     <g id="text_3">
      <!-- Отделение -->
      <g transform="translate(279.561127 191.917656) scale(0.1 -0.1)">
       <use xlink:href="#DejaVuSans-41e"/>
       <use xlink:href="#DejaVuSans-442" x="78.710938"/>
       <use xlink:href="#DejaVuSans-434" x="136.962891"/>
       <use xlink:href="#DejaVuSans-435" x="206.103516"/>
       <use xlink:href="#DejaVuSans-43b" x="267.626953"/>
       <use xlink:href="#DejaVuSans-435" x="331.542969"/>
       <use xlink:href="#DejaVuSans-43d" x="393.066406"/>
       <use xlink:href="#DejaVuSans-438" x="458.447266"/>
       <use xlink:href="#DejaVuSans-435" x="523.4375"/>
      </g>
      <!--  травматологии -->
      <g transform="translate(266.934565 203.115469) scale(0.1 -0.1)">
       <defs>
        <path id="DejaVuSans-432" d="M 1156 1613 
L 1156 459 
L 1975 459 
Q 2369 459 2575 607 
Q 2781 756 2781 1038 
Q 2781 1319 2575 1466 
Q 2369 1613 1975 1613 
L 1156 1613 
z
M 1156 3041 
L 1156 2072 
L 1913 2072 
Q 2238 2072 2444 2201 
Q 2650 2331 2650 2563 
Q 2650 2794 2444 2917 
Q 2238 3041 1913 3041 
L 1156 3041 
z
M 581 3500 
L 1950 3500 
Q 2566 3500 2897 3275 
Q 3228 3050 3228 2634 
Q 3228 2313 3059 2123 
Q 2891 1934 2559 1888 
Q 2956 1813 3175 1575 
Q 3394 1338 3394 981 
Q 3394 513 3033 256 
Q 2672 0 2003 0 
L 581 0 
L 581 3500 
z
" transform="scale(0.015625)"/>
       </defs>
       <use xlink:href="#DejaVuSans-20"/>
       <use xlink:href="#DejaVuSans-442" x="31.787109"/>
       <use xlink:href="#DejaVuSans-440" x="90.039062"/>
       <use xlink:href="#DejaVuSans-430" x="153.515625"/>
       <use xlink:href="#DejaVuSans-432" x="214.794922"/>
       <use xlink:href="#DejaVuSans-43c" x="273.730469"/>
       <use xlink:href="#DejaVuSans-430" x="349.169922"/>
       <use xlink:href="#DejaVuSans-442" x="410.449219"/>
       <use xlink:href="#DejaVuSans-43e" x="468.701172"/>
       <use xlink:href="#DejaVuSans-43b" x="529.882812"/>
       <use xlink:href="#DejaVuSans-43e" x="593.798828"/>
       <use xlink:href="#DejaVuSans-433" x="654.980469"/>
       <use xlink:href="#DejaVuSans-438" x="707.519531"/>
       <use xlink:href="#DejaVuSans-438" x="772.509766"/>
      </g>
     </g>
    </g>
    <g id="xtick_4">
     <g id="line2d_4">
      <g>
       <use xlink:href="#m11a4d89c4a" x="398.329063" y="177.319219" style="stroke: #000000; stroke-width: 0.8"/>
      </g>
     </g>
     <g id="text_4">
      <!-- Инфекционное -->
      <g transform="translate(358.562656 191.917656) scale(0.1 -0.1)">
       <defs>
        <path id="DejaVuSans-418" d="M 4159 4666 
L 4159 0 
L 3547 0 
L 3547 3903 
L 1478 0 
L 628 0 
L 628 4666 
L 1241 4666 
L 1241 763 
L 3309 4666 
L 4159 4666 
z
" transform="scale(0.015625)"/>
        <path id="DejaVuSans-444" d="M 947 1747 
Q 947 1013 1173 702 
Q 1400 391 1784 391 
Q 2091 391 2447 916 
L 2447 2578 
Q 2091 3103 1784 3103 
Q 1400 3103 1173 2792 
Q 947 2481 947 1747 
z
M 2447 -1331 
L 2447 447 
Q 2269 153 2064 31 
Q 1859 -91 1600 -91 
Q 1078 -91 714 392 
Q 350 875 350 1734 
Q 350 2594 714 3089 
Q 1078 3584 1600 3584 
Q 1859 3584 2064 3465 
Q 2269 3347 2447 3053 
L 2447 4666 
L 3025 4666 
L 3025 3053 
Q 3203 3347 3408 3465 
Q 3613 3584 3872 3584 
Q 4394 3584 4758 3089 
Q 5122 2594 5122 1734 
Q 5122 875 4758 392 
Q 4394 -91 3872 -91 
Q 3613 -91 3408 31 
Q 3203 153 3025 447 
L 3025 -1331 
L 2447 -1331 
z
M 4525 1747 
Q 4525 2481 4298 2792 
Q 4072 3103 3688 3103 
Q 3381 3103 3025 2578 
L 3025 916 
Q 3381 391 3688 391 
Q 4072 391 4298 702 
Q 4525 1013 4525 1747 
z
" transform="scale(0.015625)"/>
        <path id="DejaVuSans-446" d="M 3603 0 
L 581 0 
L 581 3500 
L 1159 3500 
L 1159 459 
L 3025 459 
L 3025 3500 
L 3603 3500 
L 3603 459 
L 4063 459 
L 4063 -884 
L 3603 -884 
L 3603 0 
z
" transform="scale(0.015625)"/>
       </defs>
       <use xlink:href="#DejaVuSans-418"/>
       <use xlink:href="#DejaVuSans-43d" x="74.804688"/>
       <use xlink:href="#DejaVuSans-444" x="140.185547"/>
       <use xlink:href="#DejaVuSans-435" x="225.683594"/>
       <use xlink:href="#DejaVuSans-43a" x="287.207031"/>
       <use xlink:href="#DejaVuSans-446" x="347.607422"/>
       <use xlink:href="#DejaVuSans-438" x="415.673828"/>
       <use xlink:href="#DejaVuSans-43e" x="480.664062"/>
       <use xlink:href="#DejaVuSans-43d" x="541.845703"/>
       <use xlink:href="#DejaVuSans-43d" x="607.226562"/>
       <use xlink:href="#DejaVuSans-43e" x="672.607422"/>
       <use xlink:href="#DejaVuSans-435" x="733.789062"/>
      </g>
      <!--  отделение -->
      <g transform="translate(368.367344 203.115469) scale(0.1 -0.1)">
       <use xlink:href="#DejaVuSans-20"/>
       <use xlink:href="#DejaVuSans-43e" x="31.787109"/>
       <use xlink:href="#DejaVuSans-442" x="92.96875"/>
       <use xlink:href="#DejaVuSans-434" x="151.220703"/>
       <use xlink:href="#DejaVuSans-435" x="220.361328"/>
       <use xlink:href="#DejaVuSans-43b" x="281.884766"/>
       <use xlink:href="#DejaVuSans-435" x="345.800781"/>
       <use xlink:href="#DejaVuSans-43d" x="407.324219"/>
       <use xlink:href="#DejaVuSans-438" x="472.705078"/>
       <use xlink:href="#DejaVuSans-435" x="537.695312"/>
      </g>
     </g>
    </g>
    <g id="xtick_5">
     <g id="line2d_5">
      <g>
       <use xlink:href="#m11a4d89c4a" x="487.847779" y="177.319219" style="stroke: #000000; stroke-width: 0.8"/>
      </g>
     </g>
     <g id="text_5">
      <!-- Хирургическое -->
      <g transform="translate(448.053248 191.917656) scale(0.1 -0.1)">
       <defs>
        <path id="DejaVuSans-425" d="M 403 4666 
L 1081 4666 
L 2241 2931 
L 3406 4666 
L 4084 4666 
L 2584 2425 
L 4184 0 
L 3506 0 
L 2194 1984 
L 872 0 
L 191 0 
L 1856 2491 
L 403 4666 
z
" transform="scale(0.015625)"/>
        <path id="DejaVuSans-443" d="M 2059 -325 
Q 1816 -950 1584 -1140 
Q 1353 -1331 966 -1331 
L 506 -1331 
L 506 -850 
L 844 -850 
Q 1081 -850 1212 -737 
Q 1344 -625 1503 -206 
L 1606 56 
L 191 3500 
L 800 3500 
L 1894 763 
L 2988 3500 
L 3597 3500 
L 2059 -325 
z
" transform="scale(0.015625)"/>
        <path id="DejaVuSans-447" d="M 2625 0 
L 2625 1472 
L 1553 1472 
Q 1075 1472 756 1769 
Q 469 2038 469 2613 
L 469 3500 
L 1044 3500 
L 1044 2666 
Q 1044 2300 1206 2116 
Q 1372 1931 1697 1931 
L 2625 1931 
L 2625 3500 
L 3200 3500 
L 3200 0 
L 2625 0 
z
" transform="scale(0.015625)"/>
       </defs>
       <use xlink:href="#DejaVuSans-425"/>
       <use xlink:href="#DejaVuSans-438" x="68.505859"/>
       <use xlink:href="#DejaVuSans-440" x="133.496094"/>
       <use xlink:href="#DejaVuSans-443" x="196.972656"/>
       <use xlink:href="#DejaVuSans-440" x="256.152344"/>
       <use xlink:href="#DejaVuSans-433" x="319.628906"/>
       <use xlink:href="#DejaVuSans-438" x="372.167969"/>
       <use xlink:href="#DejaVuSans-447" x="437.158203"/>
       <use xlink:href="#DejaVuSans-435" x="496.240234"/>
       <use xlink:href="#DejaVuSans-441" x="557.763672"/>
       <use xlink:href="#DejaVuSans-43a" x="612.744141"/>
       <use xlink:href="#DejaVuSans-43e" x="673.144531"/>
       <use xlink:href="#DejaVuSans-435" x="734.326172"/>
      </g>
      <!--  отделение -->
      <g transform="translate(457.88606 203.115469) scale(0.1 -0.1)">
       <use xlink:href="#DejaVuSans-20"/>
       <use xlink:href="#DejaVuSans-43e" x="31.787109"/>
       <use xlink:href="#DejaVuSans-442" x="92.96875"/>
       <use xlink:href="#DejaVuSans-434" x="151.220703"/>
       <use xlink:href="#DejaVuSans-435" x="220.361328"/>
       <use xlink:href="#DejaVuSans-43b" x="281.884766"/>
       <use xlink:href="#DejaVuSans-435" x="345.800781"/>
       <use xlink:href="#DejaVuSans-43d" x="407.324219"/>
       <use xlink:href="#DejaVuSans-438" x="472.705078"/>
       <use xlink:href="#DejaVuSans-435" x="537.695312"/>
      </g>
     </g>
    </g>
    <g id="xtick_6">
     <g id="line2d_6">
      <g>
       <use xlink:href="#m11a4d89c4a" x="577.366496" y="177.319219" style="stroke: #000000; stroke-width: 0.8"/>
      </g>
     </g>
     <g id="text_6">
      <!-- Отделение -->
      <g transform="translate(548.117277 191.917656) scale(0.1 -0.1)">
       <use xlink:href="#DejaVuSans-41e"/>
       <use xlink:href="#DejaVuSans-442" x="78.710938"/>
       <use xlink:href="#DejaVuSans-434" x="136.962891"/>
       <use xlink:href="#DejaVuSans-435" x="206.103516"/>
       <use xlink:href="#DejaVuSans-43b" x="267.626953"/>
       <use xlink:href="#DejaVuSans-435" x="331.542969"/>
       <use xlink:href="#DejaVuSans-43d" x="393.066406"/>
       <use xlink:href="#DejaVuSans-438" x="458.447266"/>
       <use xlink:href="#DejaVuSans-435" x="523.4375"/>
      </g>
      <!--  физиотерапии -->
      <g transform="translate(537.291496 203.115469) scale(0.1 -0.1)">
       <defs>
        <path id="DejaVuSans-437" d="M 2206 1888 
Q 2594 1813 2809 1584 
Q 3025 1356 3025 1019 
Q 3025 478 2622 193 
Q 2219 -91 1475 -91 
Q 1225 -91 961 -47 
Q 697 -3 416 84 
L 416 619 
Q 638 503 903 445 
Q 1169 388 1459 388 
Q 1931 388 2195 563 
Q 2459 738 2459 1019 
Q 2459 1294 2225 1461 
Q 1991 1628 1563 1628 
L 1100 1628 
L 1100 2103 
L 1584 2103 
Q 1947 2103 2158 2242 
Q 2369 2381 2369 2600 
Q 2369 2800 2151 2944 
Q 1934 3088 1563 3088 
Q 1341 3088 1089 3047 
Q 838 3006 534 2916 
L 534 3438 
Q 841 3513 1106 3550 
Q 1372 3588 1609 3588 
Q 2222 3588 2576 3342 
Q 2931 3097 2931 2656 
Q 2931 2366 2743 2164 
Q 2556 1963 2206 1888 
z
" transform="scale(0.015625)"/>
        <path id="DejaVuSans-43f" d="M 3603 3500 
L 3603 0 
L 3025 0 
L 3025 3041 
L 1159 3041 
L 1159 0 
L 581 0 
L 581 3500 
L 3603 3500 
z
" transform="scale(0.015625)"/>
       </defs>
       <use xlink:href="#DejaVuSans-20"/>
       <use xlink:href="#DejaVuSans-444" x="31.787109"/>
       <use xlink:href="#DejaVuSans-438" x="117.285156"/>
       <use xlink:href="#DejaVuSans-437" x="182.275391"/>
       <use xlink:href="#DejaVuSans-438" x="235.449219"/>
       <use xlink:href="#DejaVuSans-43e" x="300.439453"/>
       <use xlink:href="#DejaVuSans-442" x="361.621094"/>
       <use xlink:href="#DejaVuSans-435" x="419.873047"/>
       <use xlink:href="#DejaVuSans-440" x="481.396484"/>
       <use xlink:href="#DejaVuSans-430" x="544.873047"/>
       <use xlink:href="#DejaVuSans-43f" x="606.152344"/>
       <use xlink:href="#DejaVuSans-438" x="671.533203"/>
       <use xlink:href="#DejaVuSans-438" x="736.523438"/>
      </g>
     </g>
    </g>
    <g id="xtick_7">
     <g id="line2d_7">
      <g>
       <use xlink:href="#m11a4d89c4a" x="666.885212" y="177.319219" style="stroke: #000000; stroke-width: 0.8"/>
      </g>
     </g>
     <g id="text_7">
      <!-- Отделение -->
      <g transform="translate(637.635993 191.917656) scale(0.1 -0.1)">
       <use xlink:href="#DejaVuSans-41e"/>
       <use xlink:href="#DejaVuSans-442" x="78.710938"/>
       <use xlink:href="#DejaVuSans-434" x="136.962891"/>
       <use xlink:href="#DejaVuSans-435" x="206.103516"/>
       <use xlink:href="#DejaVuSans-43b" x="267.626953"/>
       <use xlink:href="#DejaVuSans-435" x="331.542969"/>
       <use xlink:href="#DejaVuSans-43d" x="393.066406"/>
       <use xlink:href="#DejaVuSans-438" x="458.447266"/>
       <use xlink:href="#DejaVuSans-435" x="523.4375"/>
      </g>
      <!--  реабилитации -->
      <g transform="translate(627.325056 203.319844) scale(0.1 -0.1)">
       <defs>
        <path id="DejaVuSans-431" d="M 1991 3584 
Q 2741 3584 3169 3096 
Q 3597 2609 3597 1747 
Q 3597 888 3169 398 
Q 2741 -91 1991 -91 
Q 1238 -91 822 384 
Q 406 859 384 1747 
L 366 2463 
Q 350 2834 350 2963 
Q 350 3463 531 3831 
Q 816 4409 1308 4659 
Q 1800 4909 2625 4916 
Q 3006 4919 3175 4972 
L 3334 4516 
Q 3181 4453 3041 4450 
L 2259 4397 
Q 1866 4369 1628 4231 
Q 1006 3866 947 3388 
L 925 3213 
Q 1331 3584 1991 3584 
z
M 1991 3097 
Q 1528 3097 1259 2736 
Q 991 2375 991 1747 
Q 991 1119 1258 758 
Q 1525 397 1991 397 
Q 2450 397 2719 759 
Q 2988 1122 2988 1747 
Q 2988 2369 2719 2733 
Q 2450 3097 1991 3097 
z
" transform="scale(0.015625)"/>
       </defs>
       <use xlink:href="#DejaVuSans-20"/>
       <use xlink:href="#DejaVuSans-440" x="31.787109"/>
       <use xlink:href="#DejaVuSans-435" x="95.263672"/>
       <use xlink:href="#DejaVuSans-430" x="156.787109"/>
       <use xlink:href="#DejaVuSans-431" x="218.066406"/>
       <use xlink:href="#DejaVuSans-438" x="279.736328"/>
       <use xlink:href="#DejaVuSans-43b" x="344.726562"/>
       <use xlink:href="#DejaVuSans-438" x="408.642578"/>
       <use xlink:href="#DejaVuSans-442" x="473.632812"/>
       <use xlink:href="#DejaVuSans-430" x="531.884766"/>
       <use xlink:href="#DejaVuSans-446" x="593.164062"/>
       <use xlink:href="#DejaVuSans-438" x="661.230469"/>
       <use xlink:href="#DejaVuSans-438" x="726.220703"/>
      </g>
     </g>
    </g>
   </g>
   <g id="matplotlib.axis_2">
    <g id="ytick_1">
     <g id="line2d_8">
      <defs>
       <path id="m09038211ca" d="M 0 0 
L -3.5 0 
" style="stroke: #000000; stroke-width: 0.8"/>
      </defs>
      <g>
       <use xlink:href="#m09038211ca" x="63.529063" y="177.319219" style="stroke: #000000; stroke-width: 0.8"/>
      </g>
     </g>
     <g id="text_8">
      <!-- −1.5 -->
      <g transform="translate(32.24625 181.118438) scale(0.1 -0.1)">
       <defs>
        <path id="DejaVuSans-2212" d="M 678 2272 
L 4684 2272 
L 4684 1741 
L 678 1741 
L 678 2272 
z
" transform="scale(0.015625)"/>
        <path id="DejaVuSans-31" d="M 794 531 
L 1825 531 
L 1825 4091 
L 703 3866 
L 703 4441 
L 1819 4666 
L 2450 4666 
L 2450 531 
L 3481 531 
L 3481 0 
L 794 0 
L 794 531 
z
" transform="scale(0.015625)"/>
        <path id="DejaVuSans-2e" d="M 684 794 
L 1344 794 
L 1344 0 
L 684 0 
L 684 794 
z
" transform="scale(0.015625)"/>
        <path id="DejaVuSans-35" d="M 691 4666 
L 3169 4666 
L 3169 4134 
L 1269 4134 
L 1269 2991 
Q 1406 3038 1543 3061 
Q 1681 3084 1819 3084 
Q 2600 3084 3056 2656 
Q 3513 2228 3513 1497 
Q 3513 744 3044 326 
Q 2575 -91 1722 -91 
Q 1428 -91 1123 -41 
Q 819 9 494 109 
L 494 744 
Q 775 591 1075 516 
Q 1375 441 1709 441 
Q 2250 441 2565 725 
Q 2881 1009 2881 1497 
Q 2881 1984 2565 2268 
Q 2250 2553 1709 2553 
Q 1456 2553 1204 2497 
Q 953 2441 691 2322 
L 691 4666 
z
" transform="scale(0.015625)"/>
       </defs>
       <use xlink:href="#DejaVuSans-2212"/>
       <use xlink:href="#DejaVuSans-31" x="83.789062"/>
       <use xlink:href="#DejaVuSans-2e" x="147.412109"/>
       <use xlink:href="#DejaVuSans-35" x="179.199219"/>
      </g>
     </g>
    </g>
    <g id="ytick_2">
     <g id="line2d_9">
      <g>
       <use xlink:href="#m09038211ca" x="63.529063" y="149.599219" style="stroke: #000000; stroke-width: 0.8"/>
      </g>
     </g>
     <g id="text_9">
      <!-- −1.0 -->
      <g transform="translate(32.24625 153.398438) scale(0.1 -0.1)">
       <defs>
        <path id="DejaVuSans-30" d="M 2034 4250 
Q 1547 4250 1301 3770 
Q 1056 3291 1056 2328 
Q 1056 1369 1301 889 
Q 1547 409 2034 409 
Q 2525 409 2770 889 
Q 3016 1369 3016 2328 
Q 3016 3291 2770 3770 
Q 2525 4250 2034 4250 
z
M 2034 4750 
Q 2819 4750 3233 4129 
Q 3647 3509 3647 2328 
Q 3647 1150 3233 529 
Q 2819 -91 2034 -91 
Q 1250 -91 836 529 
Q 422 1150 422 2328 
Q 422 3509 836 4129 
Q 1250 4750 2034 4750 
z
" transform="scale(0.015625)"/>
       </defs>
       <use xlink:href="#DejaVuSans-2212"/>
       <use xlink:href="#DejaVuSans-31" x="83.789062"/>
       <use xlink:href="#DejaVuSans-2e" x="147.412109"/>
       <use xlink:href="#DejaVuSans-30" x="179.199219"/>
      </g>
     </g>
    </g>
    <g id="ytick_3">
     <g id="line2d_10">
      <g>
       <use xlink:href="#m09038211ca" x="63.529063" y="121.879219" style="stroke: #000000; stroke-width: 0.8"/>
      </g>
     </g>
     <g id="text_10">
      <!-- −0.5 -->
      <g transform="translate(32.24625 125.678438) scale(0.1 -0.1)">
       <use xlink:href="#DejaVuSans-2212"/>
       <use xlink:href="#DejaVuSans-30" x="83.789062"/>
       <use xlink:href="#DejaVuSans-2e" x="147.412109"/>
       <use xlink:href="#DejaVuSans-35" x="179.199219"/>
      </g>
     </g>
    </g>
    <g id="ytick_4">
     <g id="line2d_11">
      <g>
       <use xlink:href="#m09038211ca" x="63.529063" y="94.159219" style="stroke: #000000; stroke-width: 0.8"/>
      </g>
     </g>
     <g id="text_11">
      <!-- 0.0 -->
      <g transform="translate(40.625937 97.958438) scale(0.1 -0.1)">
       <use xlink:href="#DejaVuSans-30"/>
       <use xlink:href="#DejaVuSans-2e" x="63.623047"/>
       <use xlink:href="#DejaVuSans-30" x="95.410156"/>
      </g>
     </g>
    </g>
    <g id="ytick_5">
     <g id="line2d_12">
      <g>
       <use xlink:href="#m09038211ca" x="63.529063" y="66.439219" style="stroke: #000000; stroke-width: 0.8"/>
      </g>
     </g>
     <g id="text_12">
      <!-- 0.5 -->
      <g transform="translate(40.625937 70.238438) scale(0.1 -0.1)">
       <use xlink:href="#DejaVuSans-30"/>
       <use xlink:href="#DejaVuSans-2e" x="63.623047"/>
       <use xlink:href="#DejaVuSans-35" x="95.410156"/>
      </g>
     </g>
    </g>
    <g id="ytick_6">
     <g id="line2d_13">
      <g>
       <use xlink:href="#m09038211ca" x="63.529063" y="38.719219" style="stroke: #000000; stroke-width: 0.8"/>
      </g>
     </g>
     <g id="text_13">
      <!-- 1.0 -->
      <g transform="translate(40.625937 42.518438) scale(0.1 -0.1)">
       <use xlink:href="#DejaVuSans-31"/>
       <use xlink:href="#DejaVuSans-2e" x="63.623047"/>
       <use xlink:href="#DejaVuSans-30" x="95.410156"/>
      </g>
     </g>
    </g>
    <g id="ytick_7">
     <g id="line2d_14">
      <g>
       <use xlink:href="#m09038211ca" x="63.529063" y="10.999219" style="stroke: #000000; stroke-width: 0.8"/>
      </g>
     </g>
     <g id="text_14">
      <!-- 1.5 -->
      <g transform="translate(40.625937 14.798438) scale(0.1 -0.1)">
       <use xlink:href="#DejaVuSans-31"/>
       <use xlink:href="#DejaVuSans-2e" x="63.623047"/>
       <use xlink:href="#DejaVuSans-35" x="95.410156"/>
      </g>
     </g>
    </g>
    <g id="text_15">
     <!-- Температура больного -->
     <g transform="translate(14.96875 154.645156) rotate(-90) scale(0.1 -0.1)">
      <defs>
       <path id="DejaVuSans-422" d="M -19 4666 
L 3928 4666 
L 3928 4134 
L 2272 4134 
L 2272 0 
L 1638 0 
L 1638 4134 
L -19 4134 
L -19 4666 
z
" transform="scale(0.015625)"/>
       <path id="DejaVuSans-44c" d="M 2781 1038 
Q 2781 1319 2576 1466 
Q 2372 1613 1978 1613 
L 1159 1613 
L 1159 459 
L 1978 459 
Q 2372 459 2576 607 
Q 2781 756 2781 1038 
z
M 581 3500 
L 1159 3500 
L 1159 2072 
L 2003 2072 
Q 2672 2072 3033 1817 
Q 3394 1563 3394 1038 
Q 3394 513 3033 256 
Q 2672 0 2003 0 
L 581 0 
L 581 3500 
z
" transform="scale(0.015625)"/>
      </defs>
      <use xlink:href="#DejaVuSans-422"/>
      <use xlink:href="#DejaVuSans-435" x="61.083984"/>
      <use xlink:href="#DejaVuSans-43c" x="122.607422"/>
      <use xlink:href="#DejaVuSans-43f" x="198.046875"/>
      <use xlink:href="#DejaVuSans-435" x="263.427734"/>
      <use xlink:href="#DejaVuSans-440" x="324.951172"/>
      <use xlink:href="#DejaVuSans-430" x="388.427734"/>
      <use xlink:href="#DejaVuSans-442" x="449.707031"/>
      <use xlink:href="#DejaVuSans-443" x="507.958984"/>
      <use xlink:href="#DejaVuSans-440" x="567.138672"/>
      <use xlink:href="#DejaVuSans-430" x="630.615234"/>
      <use xlink:href="#DejaVuSans-20" x="691.894531"/>
      <use xlink:href="#DejaVuSans-431" x="723.681641"/>
      <use xlink:href="#DejaVuSans-43e" x="785.351562"/>
      <use xlink:href="#DejaVuSans-43b" x="846.533203"/>
      <use xlink:href="#DejaVuSans-44c" x="910.449219"/>
      <use xlink:href="#DejaVuSans-43d" x="969.384766"/>
      <use xlink:href="#DejaVuSans-43e" x="1034.765625"/>
      <use xlink:href="#DejaVuSans-433" x="1095.947266"/>
      <use xlink:href="#DejaVuSans-43e" x="1148.486328"/>
     </g>
     <!--  относительно средней, ℃ -->
     <g transform="translate(26.166563 164.94125) rotate(-90) scale(0.1 -0.1)">
      <defs>
       <path id="DejaVuSans-439" d="M 3578 3500 
L 3578 0 
L 3006 0 
L 3006 2809 
L 1319 0 
L 581 0 
L 581 3500 
L 1153 3500 
L 1153 697 
L 2838 3500 
L 3578 3500 
z
M 1102 4833 
L 1471 4833 
Q 1505 4599 1656 4481 
Q 1808 4364 2080 4364 
Q 2349 4364 2499 4480 
Q 2649 4596 2689 4833 
L 3058 4833 
Q 3027 4386 2780 4161 
Q 2533 3936 2080 3936 
Q 1627 3936 1380 4161 
Q 1133 4386 1102 4833 
z
" transform="scale(0.015625)"/>
       <path id="DejaVuSans-2c" d="M 750 794 
L 1409 794 
L 1409 256 
L 897 -744 
L 494 -744 
L 750 256 
L 750 794 
z
" transform="scale(0.015625)"/>
       <path id="DejaVuSans-2103" d="M 1600 4347 
Q 1350 4347 1178 4173 
Q 1006 4000 1006 3750 
Q 1006 3503 1178 3333 
Q 1350 3163 1600 3163 
Q 1850 3163 2022 3333 
Q 2194 3503 2194 3750 
Q 2194 3997 2020 4172 
Q 1847 4347 1600 4347 
z
M 1600 4750 
Q 1800 4750 1984 4673 
Q 2169 4597 2303 4453 
Q 2447 4313 2519 4134 
Q 2591 3956 2591 3750 
Q 2591 3338 2302 3052 
Q 2013 2766 1594 2766 
Q 1172 2766 890 3047 
Q 609 3328 609 3750 
Q 609 4169 896 4459 
Q 1184 4750 1600 4750 
z
M 6738 4306 
L 6738 3641 
Q 6419 3938 6058 4084 
Q 5697 4231 5291 4231 
Q 4491 4231 4066 3742 
Q 3641 3253 3641 2328 
Q 3641 1406 4066 917 
Q 4491 428 5291 428 
Q 5697 428 6058 575 
Q 6419 722 6738 1019 
L 6738 359 
Q 6407 134 6036 21 
Q 5666 -91 5254 -91 
Q 4194 -91 3584 557 
Q 2975 1206 2975 2328 
Q 2975 3453 3584 4101 
Q 4194 4750 5254 4750 
Q 5672 4750 6042 4639 
Q 6413 4528 6738 4306 
z
" transform="scale(0.015625)"/>
      </defs>
      <use xlink:href="#DejaVuSans-20"/>
      <use xlink:href="#DejaVuSans-43e" x="31.787109"/>
      <use xlink:href="#DejaVuSans-442" x="92.96875"/>
      <use xlink:href="#DejaVuSans-43d" x="151.220703"/>
      <use xlink:href="#DejaVuSans-43e" x="216.601562"/>
      <use xlink:href="#DejaVuSans-441" x="277.783203"/>
      <use xlink:href="#DejaVuSans-438" x="332.763672"/>
      <use xlink:href="#DejaVuSans-442" x="397.753906"/>
      <use xlink:href="#DejaVuSans-435" x="456.005859"/>
      <use xlink:href="#DejaVuSans-43b" x="517.529297"/>
      <use xlink:href="#DejaVuSans-44c" x="581.445312"/>
      <use xlink:href="#DejaVuSans-43d" x="640.380859"/>
      <use xlink:href="#DejaVuSans-43e" x="705.761719"/>
      <use xlink:href="#DejaVuSans-20" x="766.943359"/>
      <use xlink:href="#DejaVuSans-441" x="798.730469"/>
      <use xlink:href="#DejaVuSans-440" x="853.710938"/>
      <use xlink:href="#DejaVuSans-435" x="917.1875"/>
      <use xlink:href="#DejaVuSans-434" x="978.710938"/>
      <use xlink:href="#DejaVuSans-43d" x="1047.851562"/>
      <use xlink:href="#DejaVuSans-435" x="1113.232422"/>
      <use xlink:href="#DejaVuSans-439" x="1174.755859"/>
      <use xlink:href="#DejaVuSans-2c" x="1239.746094"/>
      <use xlink:href="#DejaVuSans-20" x="1271.533203"/>
      <use xlink:href="#DejaVuSans-2103" x="1303.320312"/>
     </g>
    </g>
   </g>
   <g id="line2d_15">
    <path d="M 63.529063 94.159219 
L 733.129063 94.159219 
" clip-path="url(#p8acecf907d)" style="fill: none; stroke-dasharray: 5.55,2.4; stroke-dashoffset: 0; stroke: #808080; stroke-width: 1.5"/>
   </g>
   <g id="patch_17">
    <path d="M 63.529063 177.319219 
L 63.529063 10.999219 
" style="fill: none; stroke: #000000; stroke-width: 0.8; stroke-linejoin: miter; stroke-linecap: square"/>
   </g>
   <g id="patch_18">
    <path d="M 733.129063 177.319219 
L 733.129063 10.999219 
" style="fill: none; stroke: #000000; stroke-width: 0.8; stroke-linejoin: miter; stroke-linecap: square"/>
   </g>
   <g id="patch_19">
    <path d="M 63.529063 177.319219 
L 733.129063 177.319219 
" style="fill: none; stroke: #000000; stroke-width: 0.8; stroke-linejoin: miter; stroke-linecap: square"/>
   </g>
   <g id="patch_20">
    <path d="M 63.529063 10.999219 
L 733.129063 10.999219 
" style="fill: none; stroke: #000000; stroke-width: 0.8; stroke-linejoin: miter; stroke-linecap: square"/>
   </g>
  </g>
 </g>
 <defs>
  <clipPath id="p8acecf907d">
   <rect x="63.529063" y="10.999219" width="669.6" height="166.32"/>
  </clipPath>
 </defs>
</svg>
