<?xml version="1.0" encoding="utf-8" standalone="no"?>
<!DOCTYPE svg PUBLIC "-//W3C//DTD SVG 1.1//EN"
  "http://www.w3.org/Graphics/SVG/1.1/DTD/svg11.dtd">
<svg xmlns:xlink="http://www.w3.org/1999/xlink" width="717.573437pt" height="208.800313pt" viewBox="0 0 717.573437 208.800313" xmlns="http://www.w3.org/2000/svg" version="1.1">
 <metadata>
  <rdf:RDF xmlns:dc="http://purl.org/dc/elements/1.1/" xmlns:cc="http://creativecommons.org/ns#" xmlns:rdf="http://www.w3.org/1999/02/22-rdf-syntax-ns#">
   <cc:Work>
    <dc:type rdf:resource="http://purl.org/dc/dcmitype/StillImage"/>
    <dc:date>2024-12-11T09:54:10.912698</dc:date>
    <dc:format>image/svg+xml</dc:format>
    <dc:creator>
     <cc:Agent>
      <dc:title>Matplotlib v3.8.0, https://matplotlib.org/</dc:title>
     </cc:Agent>
    </dc:creator>
   </cc:Work>
  </rdf:RDF>
 </metadata>
 <defs>
  <style type="text/css">*{stroke-linejoin: round; stroke-linecap: butt}</style>
 </defs>
 <g id="figure_1">
  <g id="patch_1">
   <path d="M 0 208.800313 
L 717.573437 208.800313 
L 717.573437 0 
L 0 0 
z
" style="fill: #ffffff"/>
  </g>
  <g id="axes_1">
   <g id="patch_2">
    <path d="M 40.773438 173.52 
L 710.373438 173.52 
L 710.373438 7.2 
L 40.773438 7.2 
z
" style="fill: #ffffff"/>
   </g>
   <g id="PathCollection_1">
    <defs>
     <path id="md953c3e02d" d="M 0 3 
C 0.795609 3 1.55874 2.683901 2.12132 2.12132 
C 2.683901 1.55874 3 0.795609 3 0 
C 3 -0.795609 2.683901 -1.55874 2.12132 -2.12132 
C 1.55874 -2.683901 0.795609 -3 0 -3 
C -0.795609 -3 -1.55874 -2.683901 -2.12132 -2.12132 
C -2.683901 -1.55874 -3 -0.795609 -3 0 
C -3 0.795609 -2.683901 1.55874 -2.12132 2.12132 
C -1.55874 2.683901 -0.795609 3 0 3 
z
" style="stroke: #9467bd"/>
    </defs>
    <g clip-path="url(#peed0ed6ac2)">
     <use xlink:href="#md953c3e02d" x="88.602009" y="32.400886" style="fill: #9467bd; stroke: #9467bd"/>
     <use xlink:href="#md953c3e02d" x="88.602009" y="34.467339" style="fill: #9467bd; stroke: #9467bd"/>
     <use xlink:href="#md953c3e02d" x="88.602009" y="27.076044" style="fill: #9467bd; stroke: #9467bd"/>
     <use xlink:href="#md953c3e02d" x="88.602009" y="34.256496" style="fill: #9467bd; stroke: #9467bd"/>
     <use xlink:href="#md953c3e02d" x="88.602009" y="33.288432" style="fill: #9467bd; stroke: #9467bd"/>
     <use xlink:href="#md953c3e02d" x="88.602009" y="29.346419" style="fill: #9467bd; stroke: #9467bd"/>
     <use xlink:href="#md953c3e02d" x="88.602009" y="36.015275" style="fill: #9467bd; stroke: #9467bd"/>
     <use xlink:href="#md953c3e02d" x="88.602009" y="35.165258" style="fill: #9467bd; stroke: #9467bd"/>
     <use xlink:href="#md953c3e02d" x="88.602009" y="33.079689" style="fill: #9467bd; stroke: #9467bd"/>
     <use xlink:href="#md953c3e02d" x="88.602009" y="34.464662" style="fill: #9467bd; stroke: #9467bd"/>
     <use xlink:href="#md953c3e02d" x="88.602009" y="36.774125" style="fill: #9467bd; stroke: #9467bd"/>
     <use xlink:href="#md953c3e02d" x="88.602009" y="34.130127" style="fill: #9467bd; stroke: #9467bd"/>
     <use xlink:href="#md953c3e02d" x="88.602009" y="34.542168" style="fill: #9467bd; stroke: #9467bd"/>
     <use xlink:href="#md953c3e02d" x="88.602009" y="31.966653" style="fill: #9467bd; stroke: #9467bd"/>
     <use xlink:href="#md953c3e02d" x="88.602009" y="38.037456" style="fill: #9467bd; stroke: #9467bd"/>
     <use xlink:href="#md953c3e02d" x="88.602009" y="35.455762" style="fill: #9467bd; stroke: #9467bd"/>
     <use xlink:href="#md953c3e02d" x="88.602009" y="30.500194" style="fill: #9467bd; stroke: #9467bd"/>
     <use xlink:href="#md953c3e02d" x="88.602009" y="28.610807" style="fill: #9467bd; stroke: #9467bd"/>
     <use xlink:href="#md953c3e02d" x="88.602009" y="37.626335" style="fill: #9467bd; stroke: #9467bd"/>
     <use xlink:href="#md953c3e02d" x="88.602009" y="31.855914" style="fill: #9467bd; stroke: #9467bd"/>
    </g>
   </g>
   <g id="PathCollection_2">
    <defs>
     <path id="m8b15d44ecc" d="M 0 3 
C 0.795609 3 1.55874 2.683901 2.12132 2.12132 
C 2.683901 1.55874 3 0.795609 3 0 
C 3 -0.795609 2.683901 -1.55874 2.12132 -2.12132 
C 1.55874 -2.683901 0.795609 -3 0 -3 
C -0.795609 -3 -1.55874 -2.683901 -2.12132 -2.12132 
C -2.683901 -1.55874 -3 -0.795609 -3 0 
C -3 0.795609 -2.683901 1.55874 -2.12132 2.12132 
C -1.55874 2.683901 -0.795609 3 0 3 
z
" style="stroke: #1f77b4"/>
    </defs>
    <g clip-path="url(#peed0ed6ac2)">
     <use xlink:href="#m8b15d44ecc" x="184.259152" y="38.03647" style="fill: #1f77b4; stroke: #1f77b4"/>
     <use xlink:href="#m8b15d44ecc" x="184.259152" y="37.184765" style="fill: #1f77b4; stroke: #1f77b4"/>
     <use xlink:href="#m8b15d44ecc" x="184.259152" y="37.288177" style="fill: #1f77b4; stroke: #1f77b4"/>
     <use xlink:href="#m8b15d44ecc" x="184.259152" y="34.195511" style="fill: #1f77b4; stroke: #1f77b4"/>
     <use xlink:href="#m8b15d44ecc" x="184.259152" y="24.430019" style="fill: #1f77b4; stroke: #1f77b4"/>
     <use xlink:href="#m8b15d44ecc" x="184.259152" y="26.384694" style="fill: #1f77b4; stroke: #1f77b4"/>
     <use xlink:href="#m8b15d44ecc" x="184.259152" y="30.880681" style="fill: #1f77b4; stroke: #1f77b4"/>
     <use xlink:href="#m8b15d44ecc" x="184.259152" y="33.788105" style="fill: #1f77b4; stroke: #1f77b4"/>
     <use xlink:href="#m8b15d44ecc" x="184.259152" y="31.26509" style="fill: #1f77b4; stroke: #1f77b4"/>
     <use xlink:href="#m8b15d44ecc" x="184.259152" y="32.016759" style="fill: #1f77b4; stroke: #1f77b4"/>
     <use xlink:href="#m8b15d44ecc" x="184.259152" y="25.829767" style="fill: #1f77b4; stroke: #1f77b4"/>
     <use xlink:href="#m8b15d44ecc" x="184.259152" y="35.634331" style="fill: #1f77b4; stroke: #1f77b4"/>
     <use xlink:href="#m8b15d44ecc" x="184.259152" y="31.330359" style="fill: #1f77b4; stroke: #1f77b4"/>
     <use xlink:href="#m8b15d44ecc" x="184.259152" y="31.983292" style="fill: #1f77b4; stroke: #1f77b4"/>
     <use xlink:href="#m8b15d44ecc" x="184.259152" y="31.64772" style="fill: #1f77b4; stroke: #1f77b4"/>
    </g>
   </g>
   <g id="PathCollection_3">
    <defs>
     <path id="mc9fbd1e435" d="M 0 3 
C 0.795609 3 1.55874 2.683901 2.12132 2.12132 
C 2.683901 1.55874 3 0.795609 3 0 
C 3 -0.795609 2.683901 -1.55874 2.12132 -2.12132 
C 1.55874 -2.683901 0.795609 -3 0 -3 
C -0.795609 -3 -1.55874 -2.683901 -2.12132 -2.12132 
C -2.683901 -1.55874 -3 -0.795609 -3 0 
C -3 0.795609 -2.683901 1.55874 -2.12132 2.12132 
C -1.55874 2.683901 -0.795609 3 0 3 
z
" style="stroke: #ff7f0e"/>
    </defs>
    <g clip-path="url(#peed0ed6ac2)">
     <use xlink:href="#mc9fbd1e435" x="279.916295" y="24.791452" style="fill: #ff7f0e; stroke: #ff7f0e"/>
     <use xlink:href="#mc9fbd1e435" x="279.916295" y="25.028005" style="fill: #ff7f0e; stroke: #ff7f0e"/>
     <use xlink:href="#mc9fbd1e435" x="279.916295" y="19.810427" style="fill: #ff7f0e; stroke: #ff7f0e"/>
     <use xlink:href="#mc9fbd1e435" x="279.916295" y="26.333494" style="fill: #ff7f0e; stroke: #ff7f0e"/>
     <use xlink:href="#mc9fbd1e435" x="279.916295" y="18.770371" style="fill: #ff7f0e; stroke: #ff7f0e"/>
     <use xlink:href="#mc9fbd1e435" x="279.916295" y="27.338192" style="fill: #ff7f0e; stroke: #ff7f0e"/>
     <use xlink:href="#mc9fbd1e435" x="279.916295" y="28.126794" style="fill: #ff7f0e; stroke: #ff7f0e"/>
     <use xlink:href="#mc9fbd1e435" x="279.916295" y="25.472696" style="fill: #ff7f0e; stroke: #ff7f0e"/>
     <use xlink:href="#mc9fbd1e435" x="279.916295" y="24.304096" style="fill: #ff7f0e; stroke: #ff7f0e"/>
     <use xlink:href="#mc9fbd1e435" x="279.916295" y="24.697878" style="fill: #ff7f0e; stroke: #ff7f0e"/>
    </g>
   </g>
   <g id="PathCollection_4">
    <defs>
     <path id="ma8ef0b6eca" d="M 0 3 
C 0.795609 3 1.55874 2.683901 2.12132 2.12132 
C 2.683901 1.55874 3 0.795609 3 0 
C 3 -0.795609 2.683901 -1.55874 2.12132 -2.12132 
C 1.55874 -2.683901 0.795609 -3 0 -3 
C -0.795609 -3 -1.55874 -2.683901 -2.12132 -2.12132 
C -2.683901 -1.55874 -3 -0.795609 -3 0 
C -3 0.795609 -2.683901 1.55874 -2.12132 2.12132 
C -1.55874 2.683901 -0.795609 3 0 3 
z
" style="stroke: #d62728"/>
    </defs>
    <g clip-path="url(#peed0ed6ac2)">
     <use xlink:href="#ma8ef0b6eca" x="375.573438" y="15.991208" style="fill: #d62728; stroke: #d62728"/>
     <use xlink:href="#ma8ef0b6eca" x="375.573438" y="17.391695" style="fill: #d62728; stroke: #d62728"/>
     <use xlink:href="#ma8ef0b6eca" x="375.573438" y="23.309499" style="fill: #d62728; stroke: #d62728"/>
     <use xlink:href="#ma8ef0b6eca" x="375.573438" y="30.932935" style="fill: #d62728; stroke: #d62728"/>
     <use xlink:href="#ma8ef0b6eca" x="375.573438" y="28.769886" style="fill: #d62728; stroke: #d62728"/>
     <use xlink:href="#ma8ef0b6eca" x="375.573438" y="14.876891" style="fill: #d62728; stroke: #d62728"/>
     <use xlink:href="#ma8ef0b6eca" x="375.573438" y="25.816332" style="fill: #d62728; stroke: #d62728"/>
     <use xlink:href="#ma8ef0b6eca" x="375.573438" y="39.874637" style="fill: #d62728; stroke: #d62728"/>
     <use xlink:href="#ma8ef0b6eca" x="375.573438" y="34.174261" style="fill: #d62728; stroke: #d62728"/>
    </g>
   </g>
   <g id="PathCollection_5">
    <defs>
     <path id="m60a50a5bfe" d="M 0 3 
C 0.795609 3 1.55874 2.683901 2.12132 2.12132 
C 2.683901 1.55874 3 0.795609 3 0 
C 3 -0.795609 2.683901 -1.55874 2.12132 -2.12132 
C 1.55874 -2.683901 0.795609 -3 0 -3 
C -0.795609 -3 -1.55874 -2.683901 -2.12132 -2.12132 
C -2.683901 -1.55874 -3 -0.795609 -3 0 
C -3 0.795609 -2.683901 1.55874 -2.12132 2.12132 
C -1.55874 2.683901 -0.795609 3 0 3 
z
" style="stroke: #e377c2"/>
    </defs>
    <g clip-path="url(#peed0ed6ac2)">
     <use xlink:href="#m60a50a5bfe" x="471.23058" y="28.584607" style="fill: #e377c2; stroke: #e377c2"/>
     <use xlink:href="#m60a50a5bfe" x="471.23058" y="20.648422" style="fill: #e377c2; stroke: #e377c2"/>
     <use xlink:href="#m60a50a5bfe" x="471.23058" y="26.42658" style="fill: #e377c2; stroke: #e377c2"/>
     <use xlink:href="#m60a50a5bfe" x="471.23058" y="15.565215" style="fill: #e377c2; stroke: #e377c2"/>
     <use xlink:href="#m60a50a5bfe" x="471.23058" y="22.922236" style="fill: #e377c2; stroke: #e377c2"/>
     <use xlink:href="#m60a50a5bfe" x="471.23058" y="25.362266" style="fill: #e377c2; stroke: #e377c2"/>
     <use xlink:href="#m60a50a5bfe" x="471.23058" y="27.933966" style="fill: #e377c2; stroke: #e377c2"/>
     <use xlink:href="#m60a50a5bfe" x="471.23058" y="21.474404" style="fill: #e377c2; stroke: #e377c2"/>
     <use xlink:href="#m60a50a5bfe" x="471.23058" y="27.039312" style="fill: #e377c2; stroke: #e377c2"/>
     <use xlink:href="#m60a50a5bfe" x="471.23058" y="29.716089" style="fill: #e377c2; stroke: #e377c2"/>
     <use xlink:href="#m60a50a5bfe" x="471.23058" y="23.328225" style="fill: #e377c2; stroke: #e377c2"/>
     <use xlink:href="#m60a50a5bfe" x="471.23058" y="25.87636" style="fill: #e377c2; stroke: #e377c2"/>
    </g>
   </g>
   <g id="PathCollection_6">
    <defs>
     <path id="m7fc2bf6c35" d="M 0 3 
C 0.795609 3 1.55874 2.683901 2.12132 2.12132 
C 2.683901 1.55874 3 0.795609 3 0 
C 3 -0.795609 2.683901 -1.55874 2.12132 -2.12132 
C 1.55874 -2.683901 0.795609 -3 0 -3 
C -0.795609 -3 -1.55874 -2.683901 -2.12132 -2.12132 
C -2.683901 -1.55874 -3 -0.795609 -3 0 
C -3 0.795609 -2.683901 1.55874 -2.12132 2.12132 
C -1.55874 2.683901 -0.795609 3 0 3 
z
" style="stroke: #bcbd22"/>
    </defs>
    <g clip-path="url(#peed0ed6ac2)">
     <use xlink:href="#m7fc2bf6c35" x="566.887723" y="28.48765" style="fill: #bcbd22; stroke: #bcbd22"/>
     <use xlink:href="#m7fc2bf6c35" x="566.887723" y="31.867035" style="fill: #bcbd22; stroke: #bcbd22"/>
     <use xlink:href="#m7fc2bf6c35" x="566.887723" y="39.323777" style="fill: #bcbd22; stroke: #bcbd22"/>
     <use xlink:href="#m7fc2bf6c35" x="566.887723" y="29.557398" style="fill: #bcbd22; stroke: #bcbd22"/>
     <use xlink:href="#m7fc2bf6c35" x="566.887723" y="36.695681" style="fill: #bcbd22; stroke: #bcbd22"/>
     <use xlink:href="#m7fc2bf6c35" x="566.887723" y="27.551721" style="fill: #bcbd22; stroke: #bcbd22"/>
     <use xlink:href="#m7fc2bf6c35" x="566.887723" y="26.795343" style="fill: #bcbd22; stroke: #bcbd22"/>
    </g>
   </g>
   <g id="PathCollection_7">
    <defs>
     <path id="mda0773e4fd" d="M 0 3 
C 0.795609 3 1.55874 2.683901 2.12132 2.12132 
C 2.683901 1.55874 3 0.795609 3 0 
C 3 -0.795609 2.683901 -1.55874 2.12132 -2.12132 
C 1.55874 -2.683901 0.795609 -3 0 -3 
C -0.795609 -3 -1.55874 -2.683901 -2.12132 -2.12132 
C -2.683901 -1.55874 -3 -0.795609 -3 0 
C -3 0.795609 -2.683901 1.55874 -2.12132 2.12132 
C -1.55874 2.683901 -0.795609 3 0 3 
z
" style="stroke: #2ca02c"/>
    </defs>
    <g clip-path="url(#peed0ed6ac2)">
     <use xlink:href="#mda0773e4fd" x="662.544866" y="34.071613" style="fill: #2ca02c; stroke: #2ca02c"/>
     <use xlink:href="#mda0773e4fd" x="662.544866" y="34.917746" style="fill: #2ca02c; stroke: #2ca02c"/>
     <use xlink:href="#mda0773e4fd" x="662.544866" y="35.184285" style="fill: #2ca02c; stroke: #2ca02c"/>
     <use xlink:href="#mda0773e4fd" x="662.544866" y="32.580828" style="fill: #2ca02c; stroke: #2ca02c"/>
     <use xlink:href="#mda0773e4fd" x="662.544866" y="33.81363" style="fill: #2ca02c; stroke: #2ca02c"/>
     <use xlink:href="#mda0773e4fd" x="662.544866" y="34.268133" style="fill: #2ca02c; stroke: #2ca02c"/>
     <use xlink:href="#mda0773e4fd" x="662.544866" y="33.861004" style="fill: #2ca02c; stroke: #2ca02c"/>
     <use xlink:href="#mda0773e4fd" x="662.544866" y="31.186195" style="fill: #2ca02c; stroke: #2ca02c"/>
     <use xlink:href="#mda0773e4fd" x="662.544866" y="33.183865" style="fill: #2ca02c; stroke: #2ca02c"/>
    </g>
   </g>
   <g id="matplotlib.axis_1">
    <g id="xtick_1">
     <g id="line2d_1">
      <defs>
       <path id="mf1831d6eeb" d="M 0 0 
L 0 3.5 
" style="stroke: #000000; stroke-width: 0.8"/>
      </defs>
      <g>
       <use xlink:href="#mf1831d6eeb" x="88.602009" y="173.52" style="stroke: #000000; stroke-width: 0.8"/>
      </g>
     </g>
     <g id="text_1">
      <!-- Приемное -->
      <g transform="translate(62.16529 188.118438) scale(0.1 -0.1)">
       <defs>
        <path id="DejaVuSans-41f" d="M 4184 4666 
L 4184 0 
L 3553 0 
L 3553 4134 
L 1259 4134 
L 1259 0 
L 628 0 
L 628 4666 
L 4184 4666 
z
" transform="scale(0.015625)"/>
        <path id="DejaVuSans-440" d="M 1159 525 
L 1159 -1331 
L 581 -1331 
L 581 3500 
L 1159 3500 
L 1159 2969 
Q 1341 3281 1617 3432 
Q 1894 3584 2278 3584 
Q 2916 3584 3314 3078 
Q 3713 2572 3713 1747 
Q 3713 922 3314 415 
Q 2916 -91 2278 -91 
Q 1894 -91 1617 61 
Q 1341 213 1159 525 
z
M 3116 1747 
Q 3116 2381 2855 2742 
Q 2594 3103 2138 3103 
Q 1681 3103 1420 2742 
Q 1159 2381 1159 1747 
Q 1159 1113 1420 752 
Q 1681 391 2138 391 
Q 2594 391 2855 752 
Q 3116 1113 3116 1747 
z
" transform="scale(0.015625)"/>
        <path id="DejaVuSans-438" d="M 3578 3500 
L 3578 0 
L 3006 0 
L 3006 2809 
L 1319 0 
L 581 0 
L 581 3500 
L 1153 3500 
L 1153 697 
L 2838 3500 
L 3578 3500 
z
" transform="scale(0.015625)"/>
        <path id="DejaVuSans-435" d="M 3597 1894 
L 3597 1613 
L 953 1613 
Q 991 1019 1311 708 
Q 1631 397 2203 397 
Q 2534 397 2845 478 
Q 3156 559 3463 722 
L 3463 178 
Q 3153 47 2828 -22 
Q 2503 -91 2169 -91 
Q 1331 -91 842 396 
Q 353 884 353 1716 
Q 353 2575 817 3079 
Q 1281 3584 2069 3584 
Q 2775 3584 3186 3129 
Q 3597 2675 3597 1894 
z
M 3022 2063 
Q 3016 2534 2758 2815 
Q 2500 3097 2075 3097 
Q 1594 3097 1305 2825 
Q 1016 2553 972 2059 
L 3022 2063 
z
" transform="scale(0.015625)"/>
        <path id="DejaVuSans-43c" d="M 581 3500 
L 1422 3500 
L 2416 1156 
L 3413 3500 
L 4247 3500 
L 4247 0 
L 3669 0 
L 3669 2950 
L 2703 672 
L 2128 672 
L 1159 2950 
L 1159 0 
L 581 0 
L 581 3500 
z
" transform="scale(0.015625)"/>
        <path id="DejaVuSans-43d" d="M 581 3500 
L 1159 3500 
L 1159 2072 
L 3025 2072 
L 3025 3500 
L 3603 3500 
L 3603 0 
L 3025 0 
L 3025 1613 
L 1159 1613 
L 1159 0 
L 581 0 
L 581 3500 
z
" transform="scale(0.015625)"/>
        <path id="DejaVuSans-43e" d="M 1959 3097 
Q 1497 3097 1228 2736 
Q 959 2375 959 1747 
Q 959 1119 1226 758 
Q 1494 397 1959 397 
Q 2419 397 2687 759 
Q 2956 1122 2956 1747 
Q 2956 2369 2687 2733 
Q 2419 3097 1959 3097 
z
M 1959 3584 
Q 2709 3584 3137 3096 
Q 3566 2609 3566 1747 
Q 3566 888 3137 398 
Q 2709 -91 1959 -91 
Q 1206 -91 779 398 
Q 353 888 353 1747 
Q 353 2609 779 3096 
Q 1206 3584 1959 3584 
z
" transform="scale(0.015625)"/>
       </defs>
       <use xlink:href="#DejaVuSans-41f"/>
       <use xlink:href="#DejaVuSans-440" x="75.195312"/>
       <use xlink:href="#DejaVuSans-438" x="138.671875"/>
       <use xlink:href="#DejaVuSans-435" x="203.662109"/>
       <use xlink:href="#DejaVuSans-43c" x="265.185547"/>
       <use xlink:href="#DejaVuSans-43d" x="340.625"/>
       <use xlink:href="#DejaVuSans-43e" x="406.005859"/>
       <use xlink:href="#DejaVuSans-435" x="467.1875"/>
      </g>
      <!--  отделение -->
      <g transform="translate(58.64029 199.31625) scale(0.1 -0.1)">
       <defs>
        <path id="DejaVuSans-20" transform="scale(0.015625)"/>
        <path id="DejaVuSans-442" d="M 188 3500 
L 3541 3500 
L 3541 3041 
L 2147 3041 
L 2147 0 
L 1581 0 
L 1581 3041 
L 188 3041 
L 188 3500 
z
" transform="scale(0.015625)"/>
        <path id="DejaVuSans-434" d="M 1384 459 
L 3053 459 
L 3053 3041 
L 1844 3041 
L 1844 2603 
Q 1844 1316 1475 628 
L 1384 459 
z
M 550 459 
Q 834 584 959 850 
Q 1266 1509 1266 2838 
L 1266 3500 
L 3631 3500 
L 3631 459 
L 4091 459 
L 4091 -884 
L 3631 -884 
L 3631 0 
L 794 0 
L 794 -884 
L 334 -884 
L 334 459 
L 550 459 
z
" transform="scale(0.015625)"/>
        <path id="DejaVuSans-43b" d="M 238 0 
L 238 478 
Q 806 566 981 959 
Q 1194 1513 1194 2928 
L 1194 3500 
L 3559 3500 
L 3559 0 
L 2984 0 
L 2984 3041 
L 1769 3041 
L 1769 2694 
Q 1769 1344 1494 738 
Q 1200 91 238 0 
z
" transform="scale(0.015625)"/>
       </defs>
       <use xlink:href="#DejaVuSans-20"/>
       <use xlink:href="#DejaVuSans-43e" x="31.787109"/>
       <use xlink:href="#DejaVuSans-442" x="92.96875"/>
       <use xlink:href="#DejaVuSans-434" x="151.220703"/>
       <use xlink:href="#DejaVuSans-435" x="220.361328"/>
       <use xlink:href="#DejaVuSans-43b" x="281.884766"/>
       <use xlink:href="#DejaVuSans-435" x="345.800781"/>
       <use xlink:href="#DejaVuSans-43d" x="407.324219"/>
       <use xlink:href="#DejaVuSans-438" x="472.705078"/>
       <use xlink:href="#DejaVuSans-435" x="537.695312"/>
      </g>
     </g>
    </g>
    <g id="xtick_2">
     <g id="line2d_2">
      <g>
       <use xlink:href="#mf1831d6eeb" x="184.259152" y="173.52" style="stroke: #000000; stroke-width: 0.8"/>
      </g>
     </g>
     <g id="text_2">
      <!-- Отделение -->
      <g transform="translate(155.009933 188.118438) scale(0.1 -0.1)">
       <defs>
        <path id="DejaVuSans-41e" d="M 2522 4238 
Q 1834 4238 1429 3725 
Q 1025 3213 1025 2328 
Q 1025 1447 1429 934 
Q 1834 422 2522 422 
Q 3209 422 3611 934 
Q 4013 1447 4013 2328 
Q 4013 3213 3611 3725 
Q 3209 4238 2522 4238 
z
M 2522 4750 
Q 3503 4750 4090 4092 
Q 4678 3434 4678 2328 
Q 4678 1225 4090 567 
Q 3503 -91 2522 -91 
Q 1538 -91 948 565 
Q 359 1222 359 2328 
Q 359 3434 948 4092 
Q 1538 4750 2522 4750 
z
" transform="scale(0.015625)"/>
       </defs>
       <use xlink:href="#DejaVuSans-41e"/>
       <use xlink:href="#DejaVuSans-442" x="78.710938"/>
       <use xlink:href="#DejaVuSans-434" x="136.962891"/>
       <use xlink:href="#DejaVuSans-435" x="206.103516"/>
       <use xlink:href="#DejaVuSans-43b" x="267.626953"/>
       <use xlink:href="#DejaVuSans-435" x="331.542969"/>
       <use xlink:href="#DejaVuSans-43d" x="393.066406"/>
       <use xlink:href="#DejaVuSans-438" x="458.447266"/>
       <use xlink:href="#DejaVuSans-435" x="523.4375"/>
      </g>
      <!--  диагностики -->
      <g transform="translate(148.763839 199.31625) scale(0.1 -0.1)">
       <defs>
        <path id="DejaVuSans-430" d="M 2194 1759 
Q 1497 1759 1228 1600 
Q 959 1441 959 1056 
Q 959 750 1161 570 
Q 1363 391 1709 391 
Q 2188 391 2477 730 
Q 2766 1069 2766 1631 
L 2766 1759 
L 2194 1759 
z
M 3341 1997 
L 3341 0 
L 2766 0 
L 2766 531 
Q 2569 213 2275 61 
Q 1981 -91 1556 -91 
Q 1019 -91 701 211 
Q 384 513 384 1019 
Q 384 1609 779 1909 
Q 1175 2209 1959 2209 
L 2766 2209 
L 2766 2266 
Q 2766 2663 2505 2880 
Q 2244 3097 1772 3097 
Q 1472 3097 1187 3025 
Q 903 2953 641 2809 
L 641 3341 
Q 956 3463 1253 3523 
Q 1550 3584 1831 3584 
Q 2591 3584 2966 3190 
Q 3341 2797 3341 1997 
z
" transform="scale(0.015625)"/>
        <path id="DejaVuSans-433" d="M 581 0 
L 581 3500 
L 3050 3500 
L 3050 3041 
L 1159 3041 
L 1159 0 
L 581 0 
z
" transform="scale(0.015625)"/>
        <path id="DejaVuSans-441" d="M 3122 3366 
L 3122 2828 
Q 2878 2963 2633 3030 
Q 2388 3097 2138 3097 
Q 1578 3097 1268 2742 
Q 959 2388 959 1747 
Q 959 1106 1268 751 
Q 1578 397 2138 397 
Q 2388 397 2633 464 
Q 2878 531 3122 666 
L 3122 134 
Q 2881 22 2623 -34 
Q 2366 -91 2075 -91 
Q 1284 -91 818 406 
Q 353 903 353 1747 
Q 353 2603 823 3093 
Q 1294 3584 2113 3584 
Q 2378 3584 2631 3529 
Q 2884 3475 3122 3366 
z
" transform="scale(0.015625)"/>
        <path id="DejaVuSans-43a" d="M 581 3500 
L 1153 3500 
L 1153 1856 
L 2775 3500 
L 3481 3500 
L 2144 2147 
L 3653 0 
L 3009 0 
L 1769 1766 
L 1153 1141 
L 1153 0 
L 581 0 
L 581 3500 
z
" transform="scale(0.015625)"/>
       </defs>
       <use xlink:href="#DejaVuSans-20"/>
       <use xlink:href="#DejaVuSans-434" x="31.787109"/>
       <use xlink:href="#DejaVuSans-438" x="100.927734"/>
       <use xlink:href="#DejaVuSans-430" x="165.917969"/>
       <use xlink:href="#DejaVuSans-433" x="227.197266"/>
       <use xlink:href="#DejaVuSans-43d" x="279.736328"/>
       <use xlink:href="#DejaVuSans-43e" x="345.117188"/>
       <use xlink:href="#DejaVuSans-441" x="406.298828"/>
       <use xlink:href="#DejaVuSans-442" x="461.279297"/>
       <use xlink:href="#DejaVuSans-438" x="519.53125"/>
       <use xlink:href="#DejaVuSans-43a" x="584.521484"/>
       <use xlink:href="#DejaVuSans-438" x="644.921875"/>
      </g>
     </g>
    </g>
    <g id="xtick_3">
     <g id="line2d_3">
      <g>
       <use xlink:href="#mf1831d6eeb" x="279.916295" y="173.52" style="stroke: #000000; stroke-width: 0.8"/>
      </g>
     </g>
     <g id="text_3">
      <!-- Отделение -->
      <g transform="translate(250.667076 188.118438) scale(0.1 -0.1)">
       <use xlink:href="#DejaVuSans-41e"/>
       <use xlink:href="#DejaVuSans-442" x="78.710938"/>
       <use xlink:href="#DejaVuSans-434" x="136.962891"/>
       <use xlink:href="#DejaVuSans-435" x="206.103516"/>
       <use xlink:href="#DejaVuSans-43b" x="267.626953"/>
       <use xlink:href="#DejaVuSans-435" x="331.542969"/>
       <use xlink:href="#DejaVuSans-43d" x="393.066406"/>
       <use xlink:href="#DejaVuSans-438" x="458.447266"/>
       <use xlink:href="#DejaVuSans-435" x="523.4375"/>
      </g>
      <!--  травматологии -->
      <g transform="translate(238.040513 199.31625) scale(0.1 -0.1)">
       <defs>
        <path id="DejaVuSans-432" d="M 1156 1613 
L 1156 459 
L 1975 459 
Q 2369 459 2575 607 
Q 2781 756 2781 1038 
Q 2781 1319 2575 1466 
Q 2369 1613 1975 1613 
L 1156 1613 
z
M 1156 3041 
L 1156 2072 
L 1913 2072 
Q 2238 2072 2444 2201 
Q 2650 2331 2650 2563 
Q 2650 2794 2444 2917 
Q 2238 3041 1913 3041 
L 1156 3041 
z
M 581 3500 
L 1950 3500 
Q 2566 3500 2897 3275 
Q 3228 3050 3228 2634 
Q 3228 2313 3059 2123 
Q 2891 1934 2559 1888 
Q 2956 1813 3175 1575 
Q 3394 1338 3394 981 
Q 3394 513 3033 256 
Q 2672 0 2003 0 
L 581 0 
L 581 3500 
z
" transform="scale(0.015625)"/>
       </defs>
       <use xlink:href="#DejaVuSans-20"/>
       <use xlink:href="#DejaVuSans-442" x="31.787109"/>
       <use xlink:href="#DejaVuSans-440" x="90.039062"/>
       <use xlink:href="#DejaVuSans-430" x="153.515625"/>
       <use xlink:href="#DejaVuSans-432" x="214.794922"/>
       <use xlink:href="#DejaVuSans-43c" x="273.730469"/>
       <use xlink:href="#DejaVuSans-430" x="349.169922"/>
       <use xlink:href="#DejaVuSans-442" x="410.449219"/>
       <use xlink:href="#DejaVuSans-43e" x="468.701172"/>
       <use xlink:href="#DejaVuSans-43b" x="529.882812"/>
       <use xlink:href="#DejaVuSans-43e" x="593.798828"/>
       <use xlink:href="#DejaVuSans-433" x="654.980469"/>
       <use xlink:href="#DejaVuSans-438" x="707.519531"/>
       <use xlink:href="#DejaVuSans-438" x="772.509766"/>
      </g>
     </g>
    </g>
    <g id="xtick_4">
     <g id="line2d_4">
      <g>
       <use xlink:href="#mf1831d6eeb" x="375.573438" y="173.52" style="stroke: #000000; stroke-width: 0.8"/>
      </g>
     </g>
     <g id="text_4">
      <!-- Инфекционное -->
      <g transform="translate(335.807031 188.118438) scale(0.1 -0.1)">
       <defs>
        <path id="DejaVuSans-418" d="M 4159 4666 
L 4159 0 
L 3547 0 
L 3547 3903 
L 1478 0 
L 628 0 
L 628 4666 
L 1241 4666 
L 1241 763 
L 3309 4666 
L 4159 4666 
z
" transform="scale(0.015625)"/>
        <path id="DejaVuSans-444" d="M 947 1747 
Q 947 1013 1173 702 
Q 1400 391 1784 391 
Q 2091 391 2447 916 
L 2447 2578 
Q 2091 3103 1784 3103 
Q 1400 3103 1173 2792 
Q 947 2481 947 1747 
z
M 2447 -1331 
L 2447 447 
Q 2269 153 2064 31 
Q 1859 -91 1600 -91 
Q 1078 -91 714 392 
Q 350 875 350 1734 
Q 350 2594 714 3089 
Q 1078 3584 1600 3584 
Q 1859 3584 2064 3465 
Q 2269 3347 2447 3053 
L 2447 4666 
L 3025 4666 
L 3025 3053 
Q 3203 3347 3408 3465 
Q 3613 3584 3872 3584 
Q 4394 3584 4758 3089 
Q 5122 2594 5122 1734 
Q 5122 875 4758 392 
Q 4394 -91 3872 -91 
Q 3613 -91 3408 31 
Q 3203 153 3025 447 
L 3025 -1331 
L 2447 -1331 
z
M 4525 1747 
Q 4525 2481 4298 2792 
Q 4072 3103 3688 3103 
Q 3381 3103 3025 2578 
L 3025 916 
Q 3381 391 3688 391 
Q 4072 391 4298 702 
Q 4525 1013 4525 1747 
z
" transform="scale(0.015625)"/>
        <path id="DejaVuSans-446" d="M 3603 0 
L 581 0 
L 581 3500 
L 1159 3500 
L 1159 459 
L 3025 459 
L 3025 3500 
L 3603 3500 
L 3603 459 
L 4063 459 
L 4063 -884 
L 3603 -884 
L 3603 0 
z
" transform="scale(0.015625)"/>
       </defs>
       <use xlink:href="#DejaVuSans-418"/>
       <use xlink:href="#DejaVuSans-43d" x="74.804688"/>
       <use xlink:href="#DejaVuSans-444" x="140.185547"/>
       <use xlink:href="#DejaVuSans-435" x="225.683594"/>
       <use xlink:href="#DejaVuSans-43a" x="287.207031"/>
       <use xlink:href="#DejaVuSans-446" x="347.607422"/>
       <use xlink:href="#DejaVuSans-438" x="415.673828"/>
       <use xlink:href="#DejaVuSans-43e" x="480.664062"/>
       <use xlink:href="#DejaVuSans-43d" x="541.845703"/>
       <use xlink:href="#DejaVuSans-43d" x="607.226562"/>
       <use xlink:href="#DejaVuSans-43e" x="672.607422"/>
       <use xlink:href="#DejaVuSans-435" x="733.789062"/>
      </g>
      <!--  отделение -->
      <g transform="translate(345.611719 199.31625) scale(0.1 -0.1)">
       <use xlink:href="#DejaVuSans-20"/>
       <use xlink:href="#DejaVuSans-43e" x="31.787109"/>
       <use xlink:href="#DejaVuSans-442" x="92.96875"/>
       <use xlink:href="#DejaVuSans-434" x="151.220703"/>
       <use xlink:href="#DejaVuSans-435" x="220.361328"/>
       <use xlink:href="#DejaVuSans-43b" x="281.884766"/>
       <use xlink:href="#DejaVuSans-435" x="345.800781"/>
       <use xlink:href="#DejaVuSans-43d" x="407.324219"/>
       <use xlink:href="#DejaVuSans-438" x="472.705078"/>
       <use xlink:href="#DejaVuSans-435" x="537.695312"/>
      </g>
     </g>
    </g>
    <g id="xtick_5">
     <g id="line2d_5">
      <g>
       <use xlink:href="#mf1831d6eeb" x="471.23058" y="173.52" style="stroke: #000000; stroke-width: 0.8"/>
      </g>
     </g>
     <g id="text_5">
      <!-- Хирургическое -->
      <g transform="translate(431.436049 188.118438) scale(0.1 -0.1)">
       <defs>
        <path id="DejaVuSans-425" d="M 403 4666 
L 1081 4666 
L 2241 2931 
L 3406 4666 
L 4084 4666 
L 2584 2425 
L 4184 0 
L 3506 0 
L 2194 1984 
L 872 0 
L 191 0 
L 1856 2491 
L 403 4666 
z
" transform="scale(0.015625)"/>
        <path id="DejaVuSans-443" d="M 2059 -325 
Q 1816 -950 1584 -1140 
Q 1353 -1331 966 -1331 
L 506 -1331 
L 506 -850 
L 844 -850 
Q 1081 -850 1212 -737 
Q 1344 -625 1503 -206 
L 1606 56 
L 191 3500 
L 800 3500 
L 1894 763 
L 2988 3500 
L 3597 3500 
L 2059 -325 
z
" transform="scale(0.015625)"/>
        <path id="DejaVuSans-447" d="M 2625 0 
L 2625 1472 
L 1553 1472 
Q 1075 1472 756 1769 
Q 469 2038 469 2613 
L 469 3500 
L 1044 3500 
L 1044 2666 
Q 1044 2300 1206 2116 
Q 1372 1931 1697 1931 
L 2625 1931 
L 2625 3500 
L 3200 3500 
L 3200 0 
L 2625 0 
z
" transform="scale(0.015625)"/>
       </defs>
       <use xlink:href="#DejaVuSans-425"/>
       <use xlink:href="#DejaVuSans-438" x="68.505859"/>
       <use xlink:href="#DejaVuSans-440" x="133.496094"/>
       <use xlink:href="#DejaVuSans-443" x="196.972656"/>
       <use xlink:href="#DejaVuSans-440" x="256.152344"/>
       <use xlink:href="#DejaVuSans-433" x="319.628906"/>
       <use xlink:href="#DejaVuSans-438" x="372.167969"/>
       <use xlink:href="#DejaVuSans-447" x="437.158203"/>
       <use xlink:href="#DejaVuSans-435" x="496.240234"/>
       <use xlink:href="#DejaVuSans-441" x="557.763672"/>
       <use xlink:href="#DejaVuSans-43a" x="612.744141"/>
       <use xlink:href="#DejaVuSans-43e" x="673.144531"/>
       <use xlink:href="#DejaVuSans-435" x="734.326172"/>
      </g>
      <!--  отделение -->
      <g transform="translate(441.268862 199.31625) scale(0.1 -0.1)">
       <use xlink:href="#DejaVuSans-20"/>
       <use xlink:href="#DejaVuSans-43e" x="31.787109"/>
       <use xlink:href="#DejaVuSans-442" x="92.96875"/>
       <use xlink:href="#DejaVuSans-434" x="151.220703"/>
       <use xlink:href="#DejaVuSans-435" x="220.361328"/>
       <use xlink:href="#DejaVuSans-43b" x="281.884766"/>
       <use xlink:href="#DejaVuSans-435" x="345.800781"/>
       <use xlink:href="#DejaVuSans-43d" x="407.324219"/>
       <use xlink:href="#DejaVuSans-438" x="472.705078"/>
       <use xlink:href="#DejaVuSans-435" x="537.695312"/>
      </g>
     </g>
    </g>
    <g id="xtick_6">
     <g id="line2d_6">
      <g>
       <use xlink:href="#mf1831d6eeb" x="566.887723" y="173.52" style="stroke: #000000; stroke-width: 0.8"/>
      </g>
     </g>
     <g id="text_6">
      <!-- Отделение -->
      <g transform="translate(537.638504 188.118438) scale(0.1 -0.1)">
       <use xlink:href="#DejaVuSans-41e"/>
       <use xlink:href="#DejaVuSans-442" x="78.710938"/>
       <use xlink:href="#DejaVuSans-434" x="136.962891"/>
       <use xlink:href="#DejaVuSans-435" x="206.103516"/>
       <use xlink:href="#DejaVuSans-43b" x="267.626953"/>
       <use xlink:href="#DejaVuSans-435" x="331.542969"/>
       <use xlink:href="#DejaVuSans-43d" x="393.066406"/>
       <use xlink:href="#DejaVuSans-438" x="458.447266"/>
       <use xlink:href="#DejaVuSans-435" x="523.4375"/>
      </g>
      <!--  физиотерапии -->
      <g transform="translate(526.812723 199.31625) scale(0.1 -0.1)">
       <defs>
        <path id="DejaVuSans-437" d="M 2206 1888 
Q 2594 1813 2809 1584 
Q 3025 1356 3025 1019 
Q 3025 478 2622 193 
Q 2219 -91 1475 -91 
Q 1225 -91 961 -47 
Q 697 -3 416 84 
L 416 619 
Q 638 503 903 445 
Q 1169 388 1459 388 
Q 1931 388 2195 563 
Q 2459 738 2459 1019 
Q 2459 1294 2225 1461 
Q 1991 1628 1563 1628 
L 1100 1628 
L 1100 2103 
L 1584 2103 
Q 1947 2103 2158 2242 
Q 2369 2381 2369 2600 
Q 2369 2800 2151 2944 
Q 1934 3088 1563 3088 
Q 1341 3088 1089 3047 
Q 838 3006 534 2916 
L 534 3438 
Q 841 3513 1106 3550 
Q 1372 3588 1609 3588 
Q 2222 3588 2576 3342 
Q 2931 3097 2931 2656 
Q 2931 2366 2743 2164 
Q 2556 1963 2206 1888 
z
" transform="scale(0.015625)"/>
        <path id="DejaVuSans-43f" d="M 3603 3500 
L 3603 0 
L 3025 0 
L 3025 3041 
L 1159 3041 
L 1159 0 
L 581 0 
L 581 3500 
L 3603 3500 
z
" transform="scale(0.015625)"/>
       </defs>
       <use xlink:href="#DejaVuSans-20"/>
       <use xlink:href="#DejaVuSans-444" x="31.787109"/>
       <use xlink:href="#DejaVuSans-438" x="117.285156"/>
       <use xlink:href="#DejaVuSans-437" x="182.275391"/>
       <use xlink:href="#DejaVuSans-438" x="235.449219"/>
       <use xlink:href="#DejaVuSans-43e" x="300.439453"/>
       <use xlink:href="#DejaVuSans-442" x="361.621094"/>
       <use xlink:href="#DejaVuSans-435" x="419.873047"/>
       <use xlink:href="#DejaVuSans-440" x="481.396484"/>
       <use xlink:href="#DejaVuSans-430" x="544.873047"/>
       <use xlink:href="#DejaVuSans-43f" x="606.152344"/>
       <use xlink:href="#DejaVuSans-438" x="671.533203"/>
       <use xlink:href="#DejaVuSans-438" x="736.523438"/>
      </g>
     </g>
    </g>
    <g id="xtick_7">
     <g id="line2d_7">
      <g>
       <use xlink:href="#mf1831d6eeb" x="662.544866" y="173.52" style="stroke: #000000; stroke-width: 0.8"/>
      </g>
     </g>
     <g id="text_7">
      <!-- Отделение -->
      <g transform="translate(633.295647 188.118438) scale(0.1 -0.1)">
       <use xlink:href="#DejaVuSans-41e"/>
       <use xlink:href="#DejaVuSans-442" x="78.710938"/>
       <use xlink:href="#DejaVuSans-434" x="136.962891"/>
       <use xlink:href="#DejaVuSans-435" x="206.103516"/>
       <use xlink:href="#DejaVuSans-43b" x="267.626953"/>
       <use xlink:href="#DejaVuSans-435" x="331.542969"/>
       <use xlink:href="#DejaVuSans-43d" x="393.066406"/>
       <use xlink:href="#DejaVuSans-438" x="458.447266"/>
       <use xlink:href="#DejaVuSans-435" x="523.4375"/>
      </g>
      <!--  реабилитации -->
      <g transform="translate(622.98471 199.520625) scale(0.1 -0.1)">
       <defs>
        <path id="DejaVuSans-431" d="M 1991 3584 
Q 2741 3584 3169 3096 
Q 3597 2609 3597 1747 
Q 3597 888 3169 398 
Q 2741 -91 1991 -91 
Q 1238 -91 822 384 
Q 406 859 384 1747 
L 366 2463 
Q 350 2834 350 2963 
Q 350 3463 531 3831 
Q 816 4409 1308 4659 
Q 1800 4909 2625 4916 
Q 3006 4919 3175 4972 
L 3334 4516 
Q 3181 4453 3041 4450 
L 2259 4397 
Q 1866 4369 1628 4231 
Q 1006 3866 947 3388 
L 925 3213 
Q 1331 3584 1991 3584 
z
M 1991 3097 
Q 1528 3097 1259 2736 
Q 991 2375 991 1747 
Q 991 1119 1258 758 
Q 1525 397 1991 397 
Q 2450 397 2719 759 
Q 2988 1122 2988 1747 
Q 2988 2369 2719 2733 
Q 2450 3097 1991 3097 
z
" transform="scale(0.015625)"/>
       </defs>
       <use xlink:href="#DejaVuSans-20"/>
       <use xlink:href="#DejaVuSans-440" x="31.787109"/>
       <use xlink:href="#DejaVuSans-435" x="95.263672"/>
       <use xlink:href="#DejaVuSans-430" x="156.787109"/>
       <use xlink:href="#DejaVuSans-431" x="218.066406"/>
       <use xlink:href="#DejaVuSans-438" x="279.736328"/>
       <use xlink:href="#DejaVuSans-43b" x="344.726562"/>
       <use xlink:href="#DejaVuSans-438" x="408.642578"/>
       <use xlink:href="#DejaVuSans-442" x="473.632812"/>
       <use xlink:href="#DejaVuSans-430" x="531.884766"/>
       <use xlink:href="#DejaVuSans-446" x="593.164062"/>
       <use xlink:href="#DejaVuSans-438" x="661.230469"/>
       <use xlink:href="#DejaVuSans-438" x="726.220703"/>
      </g>
     </g>
    </g>
   </g>
   <g id="matplotlib.axis_2">
    <g id="ytick_1">
     <g id="line2d_8">
      <defs>
       <path id="m11bbc0a873" d="M 0 0 
L -3.5 0 
" style="stroke: #000000; stroke-width: 0.8"/>
      </defs>
      <g>
       <use xlink:href="#m11bbc0a873" x="40.773438" y="173.52" style="stroke: #000000; stroke-width: 0.8"/>
      </g>
     </g>
     <g id="text_8">
      <!-- 0 -->
      <g transform="translate(27.410937 177.319219) scale(0.1 -0.1)">
       <defs>
        <path id="DejaVuSans-30" d="M 2034 4250 
Q 1547 4250 1301 3770 
Q 1056 3291 1056 2328 
Q 1056 1369 1301 889 
Q 1547 409 2034 409 
Q 2525 409 2770 889 
Q 3016 1369 3016 2328 
Q 3016 3291 2770 3770 
Q 2525 4250 2034 4250 
z
M 2034 4750 
Q 2819 4750 3233 4129 
Q 3647 3509 3647 2328 
Q 3647 1150 3233 529 
Q 2819 -91 2034 -91 
Q 1250 -91 836 529 
Q 422 1150 422 2328 
Q 422 3509 836 4129 
Q 1250 4750 2034 4750 
z
" transform="scale(0.015625)"/>
       </defs>
       <use xlink:href="#DejaVuSans-30"/>
      </g>
     </g>
    </g>
    <g id="ytick_2">
     <g id="line2d_9">
      <g>
       <use xlink:href="#m11bbc0a873" x="40.773438" y="135.285517" style="stroke: #000000; stroke-width: 0.8"/>
      </g>
     </g>
     <g id="text_9">
      <!-- 10 -->
      <g transform="translate(21.048437 139.084736) scale(0.1 -0.1)">
       <defs>
        <path id="DejaVuSans-31" d="M 794 531 
L 1825 531 
L 1825 4091 
L 703 3866 
L 703 4441 
L 1819 4666 
L 2450 4666 
L 2450 531 
L 3481 531 
L 3481 0 
L 794 0 
L 794 531 
z
" transform="scale(0.015625)"/>
       </defs>
       <use xlink:href="#DejaVuSans-31"/>
       <use xlink:href="#DejaVuSans-30" x="63.623047"/>
      </g>
     </g>
    </g>
    <g id="ytick_3">
     <g id="line2d_10">
      <g>
       <use xlink:href="#m11bbc0a873" x="40.773438" y="97.051034" style="stroke: #000000; stroke-width: 0.8"/>
      </g>
     </g>
     <g id="text_10">
      <!-- 20 -->
      <g transform="translate(21.048437 100.850253) scale(0.1 -0.1)">
       <defs>
        <path id="DejaVuSans-32" d="M 1228 531 
L 3431 531 
L 3431 0 
L 469 0 
L 469 531 
Q 828 903 1448 1529 
Q 2069 2156 2228 2338 
Q 2531 2678 2651 2914 
Q 2772 3150 2772 3378 
Q 2772 3750 2511 3984 
Q 2250 4219 1831 4219 
Q 1534 4219 1204 4116 
Q 875 4013 500 3803 
L 500 4441 
Q 881 4594 1212 4672 
Q 1544 4750 1819 4750 
Q 2544 4750 2975 4387 
Q 3406 4025 3406 3419 
Q 3406 3131 3298 2873 
Q 3191 2616 2906 2266 
Q 2828 2175 2409 1742 
Q 1991 1309 1228 531 
z
" transform="scale(0.015625)"/>
       </defs>
       <use xlink:href="#DejaVuSans-32"/>
       <use xlink:href="#DejaVuSans-30" x="63.623047"/>
      </g>
     </g>
    </g>
    <g id="ytick_4">
     <g id="line2d_11">
      <g>
       <use xlink:href="#m11bbc0a873" x="40.773438" y="58.816552" style="stroke: #000000; stroke-width: 0.8"/>
      </g>
     </g>
     <g id="text_11">
      <!-- 30 -->
      <g transform="translate(21.048437 62.61577) scale(0.1 -0.1)">
       <defs>
        <path id="DejaVuSans-33" d="M 2597 2516 
Q 3050 2419 3304 2112 
Q 3559 1806 3559 1356 
Q 3559 666 3084 287 
Q 2609 -91 1734 -91 
Q 1441 -91 1130 -33 
Q 819 25 488 141 
L 488 750 
Q 750 597 1062 519 
Q 1375 441 1716 441 
Q 2309 441 2620 675 
Q 2931 909 2931 1356 
Q 2931 1769 2642 2001 
Q 2353 2234 1838 2234 
L 1294 2234 
L 1294 2753 
L 1863 2753 
Q 2328 2753 2575 2939 
Q 2822 3125 2822 3475 
Q 2822 3834 2567 4026 
Q 2313 4219 1838 4219 
Q 1578 4219 1281 4162 
Q 984 4106 628 3988 
L 628 4550 
Q 988 4650 1302 4700 
Q 1616 4750 1894 4750 
Q 2613 4750 3031 4423 
Q 3450 4097 3450 3541 
Q 3450 3153 3228 2886 
Q 3006 2619 2597 2516 
z
" transform="scale(0.015625)"/>
       </defs>
       <use xlink:href="#DejaVuSans-33"/>
       <use xlink:href="#DejaVuSans-30" x="63.623047"/>
      </g>
     </g>
    </g>
    <g id="ytick_5">
     <g id="line2d_12">
      <g>
       <use xlink:href="#m11bbc0a873" x="40.773438" y="20.582069" style="stroke: #000000; stroke-width: 0.8"/>
      </g>
     </g>
     <g id="text_12">
      <!-- 40 -->
      <g transform="translate(21.048437 24.381288) scale(0.1 -0.1)">
       <defs>
        <path id="DejaVuSans-34" d="M 2419 4116 
L 825 1625 
L 2419 1625 
L 2419 4116 
z
M 2253 4666 
L 3047 4666 
L 3047 1625 
L 3713 1625 
L 3713 1100 
L 3047 1100 
L 3047 0 
L 2419 0 
L 2419 1100 
L 313 1100 
L 313 1709 
L 2253 4666 
z
" transform="scale(0.015625)"/>
       </defs>
       <use xlink:href="#DejaVuSans-34"/>
       <use xlink:href="#DejaVuSans-30" x="63.623047"/>
      </g>
     </g>
    </g>
    <g id="text_13">
     <!-- Температура больного, ℃ -->
     <g transform="translate(14.96875 159.639688) rotate(-90) scale(0.1 -0.1)">
      <defs>
       <path id="DejaVuSans-422" d="M -19 4666 
L 3928 4666 
L 3928 4134 
L 2272 4134 
L 2272 0 
L 1638 0 
L 1638 4134 
L -19 4134 
L -19 4666 
z
" transform="scale(0.015625)"/>
       <path id="DejaVuSans-44c" d="M 2781 1038 
Q 2781 1319 2576 1466 
Q 2372 1613 1978 1613 
L 1159 1613 
L 1159 459 
L 1978 459 
Q 2372 459 2576 607 
Q 2781 756 2781 1038 
z
M 581 3500 
L 1159 3500 
L 1159 2072 
L 2003 2072 
Q 2672 2072 3033 1817 
Q 3394 1563 3394 1038 
Q 3394 513 3033 256 
Q 2672 0 2003 0 
L 581 0 
L 581 3500 
z
" transform="scale(0.015625)"/>
       <path id="DejaVuSans-2c" d="M 750 794 
L 1409 794 
L 1409 256 
L 897 -744 
L 494 -744 
L 750 256 
L 750 794 
z
" transform="scale(0.015625)"/>
       <path id="DejaVuSans-2103" d="M 1600 4347 
Q 1350 4347 1178 4173 
Q 1006 4000 1006 3750 
Q 1006 3503 1178 3333 
Q 1350 3163 1600 3163 
Q 1850 3163 2022 3333 
Q 2194 3503 2194 3750 
Q 2194 3997 2020 4172 
Q 1847 4347 1600 4347 
z
M 1600 4750 
Q 1800 4750 1984 4673 
Q 2169 4597 2303 4453 
Q 2447 4313 2519 4134 
Q 2591 3956 2591 3750 
Q 2591 3338 2302 3052 
Q 2013 2766 1594 2766 
Q 1172 2766 890 3047 
Q 609 3328 609 3750 
Q 609 4169 896 4459 
Q 1184 4750 1600 4750 
z
M 6738 4306 
L 6738 3641 
Q 6419 3938 6058 4084 
Q 5697 4231 5291 4231 
Q 4491 4231 4066 3742 
Q 3641 3253 3641 2328 
Q 3641 1406 4066 917 
Q 4491 428 5291 428 
Q 5697 428 6058 575 
Q 6419 722 6738 1019 
L 6738 359 
Q 6407 134 6036 21 
Q 5666 -91 5254 -91 
Q 4194 -91 3584 557 
Q 2975 1206 2975 2328 
Q 2975 3453 3584 4101 
Q 4194 4750 5254 4750 
Q 5672 4750 6042 4639 
Q 6413 4528 6738 4306 
z
" transform="scale(0.015625)"/>
      </defs>
      <use xlink:href="#DejaVuSans-422"/>
      <use xlink:href="#DejaVuSans-435" x="61.083984"/>
      <use xlink:href="#DejaVuSans-43c" x="122.607422"/>
      <use xlink:href="#DejaVuSans-43f" x="198.046875"/>
      <use xlink:href="#DejaVuSans-435" x="263.427734"/>
      <use xlink:href="#DejaVuSans-440" x="324.951172"/>
      <use xlink:href="#DejaVuSans-430" x="388.427734"/>
      <use xlink:href="#DejaVuSans-442" x="449.707031"/>
      <use xlink:href="#DejaVuSans-443" x="507.958984"/>
      <use xlink:href="#DejaVuSans-440" x="567.138672"/>
      <use xlink:href="#DejaVuSans-430" x="630.615234"/>
      <use xlink:href="#DejaVuSans-20" x="691.894531"/>
      <use xlink:href="#DejaVuSans-431" x="723.681641"/>
      <use xlink:href="#DejaVuSans-43e" x="785.351562"/>
      <use xlink:href="#DejaVuSans-43b" x="846.533203"/>
      <use xlink:href="#DejaVuSans-44c" x="910.449219"/>
      <use xlink:href="#DejaVuSans-43d" x="969.384766"/>
      <use xlink:href="#DejaVuSans-43e" x="1034.765625"/>
      <use xlink:href="#DejaVuSans-433" x="1095.947266"/>
      <use xlink:href="#DejaVuSans-43e" x="1148.486328"/>
      <use xlink:href="#DejaVuSans-2c" x="1209.667969"/>
      <use xlink:href="#DejaVuSans-20" x="1241.455078"/>
      <use xlink:href="#DejaVuSans-2103" x="1273.242188"/>
     </g>
    </g>
   </g>
   <g id="patch_3">
    <path d="M 40.773438 173.52 
L 40.773438 7.2 
" style="fill: none; stroke: #000000; stroke-width: 0.8; stroke-linejoin: miter; stroke-linecap: square"/>
   </g>
   <g id="patch_4">
    <path d="M 710.373438 173.52 
L 710.373438 7.2 
" style="fill: none; stroke: #000000; stroke-width: 0.8; stroke-linejoin: miter; stroke-linecap: square"/>
   </g>
   <g id="patch_5">
    <path d="M 40.773438 173.52 
L 710.373438 173.52 
" style="fill: none; stroke: #000000; stroke-width: 0.8; stroke-linejoin: miter; stroke-linecap: square"/>
   </g>
   <g id="patch_6">
    <path d="M 40.773438 7.2 
L 710.373438 7.2 
" style="fill: none; stroke: #000000; stroke-width: 0.8; stroke-linejoin: miter; stroke-linecap: square"/>
   </g>
  </g>
 </g>
 <defs>
  <clipPath id="peed0ed6ac2">
   <rect x="40.773438" y="7.2" width="669.6" height="166.32"/>
  </clipPath>
 </defs>
</svg>
